BasicallyAMono-Regular.ufo
<glyph name="exclam" format="2">
  <advance width="1020"/>
  <unicode hex="0021"/>
  <outline>
    <contour>
      <point x="450.0" y="336.0" type="line"/>
      <point x="570.0" y="336.0" type="line"/>
      <point x="570.0" y="1170.0" type="line"/>
      <point x="450.0" y="1170.0" type="line"/>
    </contour>
    <contour>
      <point x="630.0" y="120.0" type="curve" smooth="yes"/>
      <point x="630.0" y="186.2298"/>
      <point x="576.2298" y="240.0"/>
      <point x="510.0" y="240.0" type="curve" smooth="yes"/>
      <point x="443.7702" y="240.0"/>
      <point x="390.0" y="186.2298"/>
      <point x="390.0" y="120.0" type="curve" smooth="yes"/>
      <point x="390.0" y="53.7702"/>
      <point x="443.7702" y="0.0"/>
      <point x="510.0" y="0.0" type="curve" smooth="yes"/>
      <point x="576.2298" y="-0.0"/>
      <point x="630.0" y="53.7702"/>
    </contour>
  </outline>
</glyph>
<glyph name="quotedbl" format="2">
  <advance width="1020"/>
  <unicode hex="0022"/>
  <outline>
    <contour>
      <point x="590.0" y="930.0" type="line"/>
      <point x="710.0" y="930.0" type="line"/>
      <point x="710.0" y="1290.0" type="line"/>
      <point x="590.0" y="1290.0" type="line"/>
    </contour>
    <contour>
      <point x="310.0" y="930.0" type="line"/>
      <point x="430.0" y="930.0" type="line"/>
      <point x="430.0" y="1290.0" type="line"/>
      <point x="310.0" y="1290.0" type="line"/>
    </contour>
  </outline>
</glyph>
<glyph name="numbersign" format="2">
  <advance width="980"/>
  <unicode hex="0023"/>
  <outline>
    <contour>
      <point x="155.16452026367188" y="0" type="line"/>
      <point x="277.4105224609375" y="0" type="line"/>
      <point x="341.55602264404297" y="330" type="line"/>
      <point x="539.3100204467773" y="330" type="line"/>
      <point x="475.1645202636719" y="0" type="line"/>
      <point x="597.4105224609375" y="0" type="line"/>
      <point x="661.556022644043" y="330" type="line"/>
      <point x="840" y="330" type="line"/>
      <point x="840" y="450" type="line"/>
      <point x="684.8816604614258" y="450" type="line"/>
      <point x="737.3643417358398" y="720" type="line"/>
      <point x="920" y="720" type="line"/>
      <point x="920" y="840" type="line"/>
      <point x="760.6899795532227" y="840" type="line"/>
      <point x="824.8354797363281" y="1170" type="line"/>
      <point x="702.5894775390625" y="1170" type="line"/>
      <point x="638.443977355957" y="840" type="line"/>
      <point x="440.68997955322266" y="840" type="line"/>
      <point x="504.8354797363281" y="1170" type="line"/>
      <point x="382.5894775390625" y="1170" type="line"/>
      <point x="318.44397735595703" y="840" type="line"/>
      <point x="140" y="840" type="line"/>
      <point x="140" y="720" type="line"/>
      <point x="295.1183395385742" y="720" type="line"/>
      <point x="242.63565826416016" y="450" type="line"/>
      <point x="60" y="450" type="line"/>
      <point x="60" y="330" type="line"/>
      <point x="219.31002044677734" y="330" type="line"/>
    </contour>
    <contour>
      <point x="364.8816604614258" y="450" type="line"/>
      <point x="417.36434173583984" y="720" type="line"/>
      <point x="615.1183395385742" y="720" type="line"/>
      <point x="562.6356582641602" y="450" type="line"/>
    </contour>
  </outline>
</glyph>
<glyph name="dollar" format="2">
  <advance width="1020"/>
  <unicode hex="0024"/>
  <outline>
    <contour>
      <point x="454.0839309692383" y="672.310905456543" type="line"/>
      <point x="340.57138564588547" y="694.1930062580032"/>
      <point x="255.0" y="771.5263794480752"/>
      <point x="254.99999999999997" y="866.25" type="curve"/>
      <point x="255.0" y="963.1559649798513"/>
      <point x="344.1749525282414" y="1043.9564942470824"/>
      <point x="462" y="1061.4638137817383" type="curve"/>
      <point x="462" y="670.7849044799805" type="line"/>
    </contour>
    <contour>
      <point x="105" y="318.75" type="line"/>
      <point x="105.0" y="147.9311636751651"/>
      <point x="261.06300043983276" y="6.913190174979803"/>
      <point x="462" y="-12.667671203613281" type="curve"/>
      <point x="462" y="-120" type="line"/>
      <point x="558" y="-120" type="line"/>
      <point x="558" y="-12.674652099609375" type="line"/>
      <point x="758.9369995601672" y="6.9131901749797695"/>
      <point x="915.0000000000001" y="147.93116367516498"/>
      <point x="915.0" y="318.75" type="curve"/>
      <point x="915.0" y="478.45797772683693"/>
      <point x="778.1547285200164" y="609.8389571920119"/>
      <point x="596.6095733642578" y="644.8358764648438" type="curve"/>
      <point x="558" y="652.2787399291992" type="line"/>
      <point x="558" y="1061.4709548950195" type="line"/>
      <point x="675.8250474717586" y="1043.9564942470824"/>
      <point x="765.0" y="963.1559649798513"/>
      <point x="765.0" y="866.25" type="curve"/>
      <point x="885" y="866.25" type="line"/>
      <point x="885.0" y="1028.3508253029663"/>
      <point x="742.3350486304928" y="1162.3521337102761"/>
      <point x="558" y="1182.401626586914" type="curve"/>
      <point x="558" y="1290" type="line"/>
      <point x="462" y="1290" type="line"/>
      <point x="462" y="1182.4051895141602" type="line"/>
      <point x="277.6649513695072" y="1162.3521337102761"/>
      <point x="134.99999999999997" y="1028.3508253029663"/>
      <point x="134.99999999999991" y="866.2499999999998" type="curve"/>
      <point x="135.0" y="713.0146339558579"/>
      <point x="262.8795974635601" y="587.0000076766358"/>
      <point x="432.1460876464844" y="554.400260925293" type="curve"/>
      <point x="462" y="548.6505737304688" type="line"/>
      <point x="462" y="108.03459930419922" type="line"/>
      <point x="327.52596554062364" y="125.15935471666468"/>
      <point x="225.00000000000006" y="213.0457017357382"/>
      <point x="225.00000000000006" y="318.75000000000006" type="curve"/>
    </contour>
    <contour>
      <point x="795.0" y="318.75" type="curve"/>
      <point x="795.0" y="213.04570173573813"/>
      <point x="692.4740344593764" y="125.15935471666467"/>
      <point x="558" y="108.03699493408203" type="curve"/>
      <point x="558" y="530.1615219116211" type="line"/>
      <point x="574.6762924194336" y="526.9497680664062" type="line"/>
      <point x="700.4481271891589" y="502.7268403178967"/>
      <point x="795.0" y="420.0395562352453"/>
    </contour>
  </outline>
</glyph>
<glyph name="percent" format="2">
  <advance width="1020"/>
  <unicode hex="0025"/>
  <outline>
    <contour>
      <point x="600.0" y="930.0" type="curve" smooth="yes"/>
      <point x="600.0" y="1070.7383301"/>
      <point x="485.7383301" y="1185.0"/>
      <point x="345.0" y="1185.0" type="curve" smooth="yes"/>
      <point x="204.26166990000002" y="1185.0"/>
      <point x="90.0" y="1070.7383301"/>
      <point x="90.0" y="930.0" type="curve" smooth="yes"/>
      <point x="89.99999999999997" y="789.2616699"/>
      <point x="204.26166989999996" y="675.0"/>
      <point x="345.0" y="675.0" type="curve" smooth="yes"/>
      <point x="485.7383301" y="675.0"/>
      <point x="600.0" y="789.2616698999999"/>
    </contour>
    <contour>
      <point x="480.0" y="930.0" type="curve" smooth="yes"/>
      <point x="480.0" y="855.4914722999999"/>
      <point x="419.50852769999995" y="795.0"/>
      <point x="345.0" y="795.0" type="curve" smooth="yes"/>
      <point x="270.4914723" y="795.0"/>
      <point x="210.0" y="855.4914723"/>
      <point x="210.0" y="930.0" type="curve" smooth="yes"/>
      <point x="210.0" y="1004.5085277000001"/>
      <point x="270.4914723" y="1065.0"/>
      <point x="345.0" y="1065.0" type="curve" smooth="yes"/>
      <point x="419.5085277" y="1065.0"/>
      <point x="480.0" y="1004.5085277000001"/>
    </contour>
    <contour>
      <point x="90.00000000000003" y="344.9999999999723" type="line"/>
      <point x="930.0" y="742.8050931050661" type="line"/>
      <point x="930.0" y="825.0" type="line"/>
      <point x="90.00000000000003" y="427.1949068949063" type="line"/>
    </contour>
    <contour>
      <point x="930.0" y="240.0" type="curve" smooth="yes"/>
      <point x="930.0" y="380.7383301"/>
      <point x="815.7383301" y="495.0"/>
      <point x="675.0" y="495.0" type="curve" smooth="yes"/>
      <point x="534.2616699" y="495.0"/>
      <point x="420.0" y="380.73833010000004"/>
      <point x="420.0" y="240.00000000000003" type="curve" smooth="yes"/>
      <point x="420.0" y="99.26166990000002"/>
      <point x="534.2616699" y="-14.999999999999972"/>
      <point x="675.0" y="-15.0" type="curve" smooth="yes"/>
      <point x="815.7383301" y="-15.000000000000028"/>
      <point x="930.0" y="99.26166989999993"/>
    </contour>
    <contour>
      <point x="810.0" y="240.0" type="curve" smooth="yes"/>
      <point x="810.0" y="165.49147229999997"/>
      <point x="749.5085277" y="105.0"/>
      <point x="675.0" y="105.0" type="curve" smooth="yes"/>
      <point x="600.4914722999999" y="105.0"/>
      <point x="540.0" y="165.4914723"/>
      <point x="540.0" y="240.0" type="curve" smooth="yes"/>
      <point x="540.0" y="314.5085277"/>
      <point x="600.4914722999999" y="375.0"/>
      <point x="675.0" y="375.0" type="curve" smooth="yes"/>
      <point x="749.5085277000001" y="375.0"/>
      <point x="810.0" y="314.5085277"/>
    </contour>
  </outline>
</glyph>
<glyph name="ampersand" format="2">
  <advance width="1020"/>
  <unicode hex="0026"/>
  <outline>
    <contour>
      <point x="364.6251622134545" y="800.8536530907692" type="line"/>
      <point x="328.9503575673585" y="844.1306519372996"/>
      <point x="305.20203" y="875.8482751504611"/>
      <point x="305.20203" y="925.0" type="curve"/>
      <point x="305.20203" y="1005.02768"/>
      <point x="370.17435" y="1070.0"/>
      <point x="450.20203" y="1070.0" type="curve" smooth="yes"/>
      <point x="530.2297100000001" y="1070.0"/>
      <point x="595.20203" y="1005.02768"/>
      <point x="595.20203" y="925.0" type="curve"/>
      <point x="595.20203" y="844.3813847142225"/>
      <point x="537.3577716885427" y="807.4407620690972"/>
      <point x="483.62503839625714" y="777.9205813138901" type="curve"/>
      <point x="414.73069763183594" y="740.0707778930664" type="line"/>
    </contour>
    <contour>
      <point x="321.9231604533671" y="552.166082506066" type="curve"/>
      <point x="385.3751220703125" y="587.0259017944336" type="line"/>
      <point x="692.8551254272461" y="214.0228271484375" type="line"/>
      <point x="628.5466047364222" y="143.09977648864412"/>
      <point x="540.4431756162201" y="100.0"/>
      <point x="435.20203" y="100.00000000000001" type="curve"/>
      <point x="286.07062999999994" y="100.0"/>
      <point x="165.20203" y="200.94925999999995"/>
      <point x="165.20203" y="330.0" type="curve"/>
      <point x="165.20203" y="457.1656200637317"/>
      <point x="256.8074934364332" y="516.3922415213669"/>
    </contour>
    <contour>
      <point x="450.20203" y="1190.0" type="curve" smooth="yes"/>
      <point x="303.94454999999994" y="1190.0"/>
      <point x="185.20203" y="1071.25748"/>
      <point x="185.20203" y="925.0" type="curve"/>
      <point x="185.20203" y="843.4563367164196"/>
      <point x="219.15078448043516" y="788.6721369122381"/>
      <point x="272.9138542243407" y="723.4523193136306" type="curve"/>
      <point x="307.6909637451172" y="681.2643127441406" type="line"/>
      <point x="264.1422372025758" y="657.3391143839674" type="line"/>
      <point x="184.515523532982" y="613.5930609269797"/>
      <point x="45.202030000000015" y="526.2254250125546"/>
      <point x="45.20203" y="330.0" type="curve"/>
      <point x="45.202030000000015" y="134.72197999999992"/>
      <point x="219.8439099999999" y="-19.999999999999975"/>
      <point x="435.20203" y="-20.0" type="curve"/>
      <point x="569.38080641129" y="-20.0"/>
      <point x="684.247648162976" y="33.25021519740886"/>
      <point x="769.4545669555664" y="121.10027313232422" type="curve"/>
      <point x="869.2819290161133" y="0" type="line"/>
      <point x="1024.7979736328125" y="0" type="line"/>
      <point x="844.0706253051758" y="219.23980712890625" type="line"/>
      <point x="899.3137768981995" y="312.50962724214025"/>
      <point x="930.20203" y="426.69397767832"/>
      <point x="930.20203" y="550.0" type="curve"/>
      <point x="810.2020263671875" y="550" type="line"/>
      <point x="810.20203" y="465.57645016245"/>
      <point x="793.1828582056722" y="386.57421579716294"/>
      <point x="761.7842330932617" y="319.06117248535156" type="curve"/>
      <point x="492.4148483276367" y="645.8323669433594" type="line"/>
      <point x="540.3336685145879" y="672.1584454018459" type="line"/>
      <point x="609.68395091312" y="710.2587360270962"/>
      <point x="715.20203" y="775.0796813966139"/>
      <point x="715.20203" y="925.0" type="curve"/>
      <point x="715.20203" y="1071.25748"/>
      <point x="596.4595100000001" y="1190.0"/>
    </contour>
  </outline>
</glyph>
<glyph name="quotesingle" format="2">
  <advance width="1020"/>
  <unicode hex="0027"/>
  <outline>
    <contour>
      <point x="450.0" y="930.0" type="line"/>
      <point x="570.0" y="930.0" type="line"/>
      <point x="570.0" y="1290.0" type="line"/>
      <point x="450.0" y="1290.0" type="line"/>
    </contour>
  </outline>
</glyph>
<glyph name="parenleft" format="2">
  <advance width="980"/>
  <unicode hex="0028"/>
  <outline>
    <contour>
      <point x="697.4193008792612" y="-120.0" type="line"/>
      <point x="467.9440901640006" y="321.9899606746567"/>
      <point x="467.9440901640006" y="848.010039325344"/>
      <point x="697.4193043629335" y="1290.0000000000002" type="curve"/>
      <point x="563.5094879520151" y="1290.0" type="line"/>
      <point x="352.5814585765196" y="843.7724647178682"/>
      <point x="352.58069563706647" y="326.23268309420587"/>
      <point x="563.5071991336557" y="-120.0" type="curve"/>
    </contour>
  </outline>
</glyph>
<glyph name="parenright" format="2">
  <advance width="1020"/>
  <unicode hex="0029"/>
  <outline>
    <contour>
      <point x="321.81734" y="-60.0" type="curve"/>
      <point x="453.12759" y="-60.0" type="line"/>
      <point x="628.18266" y="352.11969"/>
      <point x="628.1824" y="817.88216"/>
      <point x="453.12679" y="1230.0" type="curve"/>
      <point x="321.81734" y="1230.0" type="line"/>
      <point x="511.95248" y="821.01824"/>
      <point x="511.95248" y="348.98176"/>
    </contour>
  </outline>
</glyph>
<glyph name="asterisk" format="2">
  <advance width="1020"/>
  <unicode hex="002A"/>
  <outline>
    <contour>
      <point x="129.25971221923828" y="339.4615173339844" type="line"/>
      <point x="189.25971221923828" y="235.53848266601562" type="line"/>
      <point x="450" y="386.0769577026367" type="line"/>
      <point x="450" y="85" type="line"/>
      <point x="570" y="85" type="line"/>
      <point x="570" y="386.0769577026367" type="line"/>
      <point x="830.7402877807617" y="235.53848266601562" type="line"/>
      <point x="890.7402877807617" y="339.4615173339844" type="line"/>
      <point x="629.9999847412109" y="490" type="line"/>
      <point x="890.7402877807617" y="640.5384826660156" type="line"/>
      <point x="830.7402877807617" y="744.4615173339844" type="line"/>
      <point x="570" y="593.9230422973633" type="line"/>
      <point x="570" y="895" type="line"/>
      <point x="450" y="895" type="line"/>
      <point x="450" y="593.9230422973633" type="line"/>
      <point x="189.25971221923828" y="744.4615173339844" type="line"/>
      <point x="129.25971221923828" y="640.5384826660156" type="line"/>
      <point x="390.00001525878906" y="490" type="line"/>
    </contour>
  </outline>
</glyph>
<glyph name="plus" format="2">
  <advance width="1020"/>
  <unicode hex="002B"/>
  <outline>
    <contour>
      <point x="105" y="430" type="line"/>
      <point x="450" y="430" type="line"/>
      <point x="450" y="85" type="line"/>
      <point x="570" y="85" type="line"/>
      <point x="570" y="430" type="line"/>
      <point x="915" y="430" type="line"/>
      <point x="915" y="550" type="line"/>
      <point x="570" y="550" type="line"/>
      <point x="570" y="895" type="line"/>
      <point x="450" y="895" type="line"/>
      <point x="450" y="550" type="line"/>
      <point x="105" y="550" type="line"/>
    </contour>
  </outline>
</glyph>
<glyph name="comma" format="2">
  <advance width="1020"/>
  <unicode hex="002C"/>
  <outline>
    <contour>
      <point x="476.48058319091797" y="-345" type="line"/>
      <point x="579.8324934558697" y="-165.9892355681979"/>
      <point x="585.0" y="-10.746520306154693"/>
      <point x="585.0" y="102.75" type="curve"/>
      <point x="585" y="240" type="line"/>
      <point x="435" y="240" type="line"/>
      <point x="435.0" y="102.75" type="line"/>
      <point x="435.0" y="9.172139400480084"/>
      <point x="433.2513971448409" y="-119.87514255948193"/>
      <point x="346.57677" y="-270.0" type="curve"/>
    </contour>
  </outline>
</glyph>
<glyph name="hyphen" format="2">
  <advance width="980"/>
  <unicode hex="002D"/>
  <outline>
    <contour>
      <point x="100.0" y="430.0" type="line"/>
      <point x="880.0" y="430.0" type="line"/>
      <point x="880.0" y="550.0" type="line"/>
      <point x="100.0" y="550.0" type="line"/>
    </contour>
  </outline>
</glyph>
<glyph name="period" format="2">
  <advance width="1020"/>
  <unicode hex="002E"/>
  <outline>
    <contour>
      <point x="630.0" y="120.0" type="curve" smooth="yes"/>
      <point x="630.0" y="186.2298024"/>
      <point x="576.2298024" y="240.0"/>
      <point x="510.0" y="240.0" type="curve" smooth="yes"/>
      <point x="443.7701976" y="240.0"/>
      <point x="390.0" y="186.22980240000004"/>
      <point x="390.0" y="120.00000000000001" type="curve" smooth="yes"/>
      <point x="390.0" y="53.7701976"/>
      <point x="443.77019759999996" y="1.4210854715202004e-14"/>
      <point x="510.0" y="0.0" type="curve" smooth="yes"/>
      <point x="576.2298023999999" y="-1.4210854715202004e-14"/>
      <point x="630.0" y="53.77019759999996"/>
    </contour>
  </outline>
</glyph>
<glyph name="slash" format="2">
  <advance width="1020"/>
  <unicode hex="002F"/>
  <outline>
    <contour>
      <point x="226.38853" y="0.0" type="line"/>
      <point x="354.08987" y="0.0" type="line"/>
      <point x="823.61147" y="1290.0" type="line"/>
      <point x="695.91013" y="1290.0" type="line"/>
    </contour>
  </outline>
</glyph>
<glyph name="zero" format="2">
  <advance width="980"/>
  <unicode hex="0030"/>
  <outline>
    <contour>
      <point x="490.0" y="1050.0" type="curve" smooth="yes"/>
      <point x="606.0308883784149" y="1050.0"/>
      <point x="703.7054482656287" y="970.7821254344757"/>
      <point x="731.8432388305664" y="863.4836196899414" type="curve"/>
      <point x="240" y="455.6415100097656" type="line"/>
      <point x="240" y="800" type="line"/>
      <point x="240.0" y="937.9787550000001"/>
      <point x="352.021245" y="1050.0"/>
    </contour>
    <contour>
      <point x="120" y="370" type="line"/>
      <point x="120.0" y="165.79144260000004"/>
      <point x="285.7914425999999" y="0.0"/>
      <point x="489.99999999999994" y="0.0" type="curve" smooth="yes"/>
      <point x="694.2085573999999" y="0.0"/>
      <point x="860.0" y="165.7914425999999"/>
      <point x="860.0" y="369.99999999999994" type="curve"/>
      <point x="860" y="800" type="line"/>
      <point x="860.0" y="1004.2085574"/>
      <point x="694.2085574" y="1170.0"/>
      <point x="490.0" y="1170.0" type="curve" smooth="yes"/>
      <point x="285.7914426" y="1170.0"/>
      <point x="120.0" y="1004.2085574"/>
      <point x="120.0" y="800.0" type="curve"/>
    </contour>
    <contour>
      <point x="740" y="370" type="line"/>
      <point x="740.0" y="232.02124499999994"/>
      <point x="627.978755" y="119.99999999999997"/>
      <point x="489.99999999999994" y="120.0" type="curve" smooth="yes"/>
      <point x="373.96911162158494" y="120.00000000000003"/>
      <point x="276.2945517343713" y="199.21787456552437"/>
      <point x="248.1567611694336" y="306.5163803100586" type="curve"/>
      <point x="740" y="714.3584899902344" type="line"/>
    </contour>
  </outline>
</glyph>
<glyph name="one" format="2">
  <advance width="1020"/>
  <unicode hex="0031"/>
  <outline>
    <contour>
      <point x="137.5" y="0" type="line"/>
      <point x="902.5" y="0" type="line"/>
      <point x="902.5" y="120" type="line"/>
      <point x="605" y="120" type="line"/>
      <point x="605" y="1170" type="line"/>
      <point x="485" y="1170" type="line"/>
      <point x="137.5" y="969.3707809448242" type="line"/>
      <point x="137.5" y="830.8067169189453" type="line"/>
      <point x="485" y="1031.435935974121" type="line"/>
      <point x="485" y="120" type="line"/>
      <point x="137.5" y="120" type="line"/>
    </contour>
  </outline>
</glyph>
<glyph name="two" format="2">
  <advance width="980"/>
  <unicode hex="0032"/>
  <outline>
    <contour>
      <point x="110" y="0" type="line"/>
      <point x="850" y="0" type="line"/>
      <point x="850" y="120" type="line"/>
      <point x="287.2582550048828" y="120" type="line"/>
      <point x="730.4819869995117" y="527.6789169311523" type="line"/>
      <point x="806.6540088000957" y="597.7422351325836"/>
      <point x="850.0" y="696.5058218336119"/>
      <point x="850.0" y="800.0" type="curve"/>
      <point x="850.0" y="1004.2085574"/>
      <point x="684.2085574" y="1170.0"/>
      <point x="480.0" y="1170.0" type="curve" smooth="yes"/>
      <point x="275.7914426" y="1170.0"/>
      <point x="110.0" y="1004.2085574"/>
      <point x="110.0" y="800.0" type="curve"/>
      <point x="230" y="800" type="line"/>
      <point x="230.0" y="937.9787550000001"/>
      <point x="342.021245" y="1050.0"/>
      <point x="480.0" y="1050.0" type="curve" smooth="yes"/>
      <point x="617.978755" y="1050.0"/>
      <point x="730.0" y="937.978755"/>
      <point x="730.0" y="800.0" type="curve"/>
      <point x="730.0" y="730.071501238927"/>
      <point x="700.7121681081728" y="663.3393480625565"/>
      <point x="649.2445883052048" y="615.9992681280812" type="curve"/>
      <point x="110" y="120" type="line"/>
    </contour>
  </outline>
</glyph>
<glyph name="three" format="2">
  <advance width="980"/>
  <unicode hex="0033"/>
  <outline>
    <contour>
      <point x="120" y="332.5" type="line"/>
      <point x="120.0" y="148.98825585000003"/>
      <point x="285.7914426" y="0.0"/>
      <point x="489.99999999999994" y="0.0" type="curve" smooth="yes"/>
      <point x="694.2085574" y="0.0"/>
      <point x="860.0" y="148.9882558499999"/>
      <point x="860.0" y="332.49999999999994" type="curve"/>
      <point x="860.0" y="446.3594946343792"/>
      <point x="796.1776357273611" y="546.9289749490158"/>
      <point x="698.9556121826172" y="606.8583221435547" type="curve"/>
      <point x="784.538801046777" y="663.8428672604374"/>
      <point x="840.0000000000001" y="754.934182364525"/>
      <point x="840.0000000000001" y="857.5" type="curve"/>
      <point x="840.0" y="1029.9734437500001"/>
      <point x="683.170257" y="1170.0"/>
      <point x="490.0" y="1170.0" type="curve" smooth="yes"/>
      <point x="296.829743" y="1170.0"/>
      <point x="140.0" y="1029.9734437500001"/>
      <point x="140.0" y="857.5" type="curve"/>
      <point x="260" y="857.5" type="line"/>
      <point x="260.0" y="963.7436413500001"/>
      <point x="363.0595454" y="1050.0"/>
      <point x="490.0" y="1050.0" type="curve" smooth="yes"/>
      <point x="616.9404546000001" y="1050.0"/>
      <point x="720.0" y="963.74364135"/>
      <point x="720.0" y="857.5" type="curve"/>
      <point x="720.0" y="751.25635865"/>
      <point x="616.9404546000001" y="665.0"/>
      <point x="490.0" y="665.0" type="curve"/>
      <point x="400" y="665" type="line"/>
      <point x="400" y="545" type="line"/>
      <point x="490" y="545" type="line"/>
      <point x="627.978755" y="545.0"/>
      <point x="740.0" y="449.78194175"/>
      <point x="740.0" y="332.5" type="curve"/>
      <point x="740.0" y="215.21805824999996"/>
      <point x="627.978755" y="119.99999999999997"/>
      <point x="490.0" y="120.0" type="curve" smooth="yes"/>
      <point x="352.02124499999996" y="120.00000000000003"/>
      <point x="239.99999999999997" y="215.21805825"/>
      <point x="240.0" y="332.50000000000006" type="curve"/>
    </contour>
  </outline>
</glyph>
<glyph name="four" format="2">
  <advance width="980"/>
  <unicode hex="0034"/>
  <outline>
    <contour>
      <point x="252.47189331054688" y="420" type="line"/>
      <point x="590" y="947.3876724243164" type="line"/>
      <point x="590" y="420" type="line"/>
    </contour>
    <contour>
      <point x="110" y="300" type="line"/>
      <point x="590" y="300" type="line"/>
      <point x="590" y="0" type="line"/>
      <point x="710" y="0" type="line"/>
      <point x="710" y="300" type="line"/>
      <point x="890" y="300" type="line"/>
      <point x="890" y="420" type="line"/>
      <point x="710" y="420" type="line"/>
      <point x="710" y="1170" type="line"/>
      <point x="590" y="1170" type="line"/>
      <point x="110" y="420" type="line"/>
    </contour>
  </outline>
</glyph>
<glyph name="five" format="2">
  <advance width="1020"/>
  <unicode hex="0035"/>
  <outline>
    <contour>
      <point x="152.23336029052734" y="532.5" type="line"/>
      <point x="292.40795135498047" y="532.5" type="line"/>
      <point x="341.39832" y="594.89992"/>
      <point x="417.50019" y="635.0"/>
      <point x="502.89402" y="635.0" type="curve" smooth="yes"/>
      <point x="650.53129" y="635.0"/>
      <point x="770.39402" y="515.13727"/>
      <point x="770.39402" y="367.5" type="curve" smooth="yes"/>
      <point x="770.39402" y="219.86273"/>
      <point x="650.53129" y="100.0"/>
      <point x="502.89402" y="100.0" type="curve" smooth="yes"/>
      <point x="404.48906" y="100.0"/>
      <point x="318.42335" y="153.25081"/>
      <point x="271.96577" y="232.5" type="curve"/>
      <point x="139.6059799194336" y="232.5" type="line"/>
      <point x="194.46921" y="85.09777"/>
      <point x="336.50502" y="-20.0"/>
      <point x="502.89402" y="-20.0" type="curve" smooth="yes"/>
      <point x="716.76109" y="-20.0"/>
      <point x="890.39402" y="153.63293"/>
      <point x="890.39402" y="367.5" type="curve" smooth="yes"/>
      <point x="890.39402" y="581.36707"/>
      <point x="716.76109" y="755.0"/>
      <point x="502.89402" y="755.0" type="curve" smooth="yes"/>
      <point x="423.1695763552" y="755.0"/>
      <point x="349.0361383115286" y="730.8716700074599"/>
      <point x="287.40394592285156" y="689.5138626098633" type="curve"/>
      <point x="321.03734588623047" y="1050" type="line"/>
      <point x="845.3940200805664" y="1050" type="line"/>
      <point x="845.3940200805664" y="1170" type="line"/>
      <point x="211.71219635009766" y="1170" type="line"/>
    </contour>
  </outline>
</glyph>
<glyph name="six" format="2">
  <advance width="1020"/>
  <unicode hex="0036"/>
  <outline>
    <contour>
      <point x="902.5" y="377.5" type="curve" smooth="yes"/>
      <point x="902.5" y="594.12664535"/>
      <point x="726.62664535" y="770.0"/>
      <point x="510.0" y="770.0" type="curve" smooth="yes"/>
      <point x="477.35241490594683" y="770.0"/>
      <point x="445.63046756348047" y="766.0053528496471"/>
      <point x="415.2967300415039" y="758.469123840332" type="curve"/>
      <point x="652.8941879272461" y="1170" type="line"/>
      <point x="514.3301239013672" y="1170" type="line"/>
      <point x="170.22049713134766" y="573.9846343994141" type="line"/>
      <point x="136.69778865978975" y="516.1936189371693"/>
      <point x="117.5" y="449.07106073054115"/>
      <point x="117.49999999999999" y="377.49999999999994" type="curve" smooth="yes"/>
      <point x="117.5" y="160.87335465000004"/>
      <point x="293.3733546499999" y="-15.0"/>
      <point x="509.99999999999994" y="-15.0" type="curve" smooth="yes"/>
      <point x="726.62664535" y="-15.000000000000057"/>
      <point x="902.5" y="160.8733546499999"/>
    </contour>
    <contour>
      <point x="782.5" y="377.5" type="curve" smooth="yes"/>
      <point x="782.5" y="227.10315704999994"/>
      <point x="660.39684295" y="105.0"/>
      <point x="509.99999999999994" y="105.0" type="curve" smooth="yes"/>
      <point x="359.60315704999994" y="105.0"/>
      <point x="237.5" y="227.10315705000002"/>
      <point x="237.5" y="377.5" type="curve" smooth="yes"/>
      <point x="237.5" y="527.8968429500001"/>
      <point x="359.60315705000005" y="650.0"/>
      <point x="510.0" y="650.0" type="curve" smooth="yes"/>
      <point x="660.3968429500001" y="650.0"/>
      <point x="782.5" y="527.8968429500001"/>
    </contour>
  </outline>
</glyph>
<glyph name="seven" format="2">
  <advance width="1020"/>
  <unicode hex="0037"/>
  <outline>
    <contour>
      <point x="300.47618865966797" y="0" type="line"/>
      <point x="432.3109359741211" y="0" type="line"/>
      <point x="910" y="1050" type="line"/>
      <point x="910" y="1170" type="line"/>
      <point x="110" y="1170" type="line"/>
      <point x="110" y="1050" type="line"/>
      <point x="778.1652603149414" y="1050" type="line"/>
    </contour>
  </outline>
</glyph>
<glyph name="eight" format="2">
  <advance width="1020"/>
  <unicode hex="0038"/>
  <outline>
    <contour>
      <point x="905.0" y="321.1832061068702" type="curve" smooth="yes"/>
      <point x="905.0" y="436.4594441839413"/>
      <point x="836.6811390736664" y="538.2621281548187"/>
      <point x="732.6536636352539" y="598.8273849487305" type="curve"/>
      <point x="827.9611083749404" y="657.6780215221484"/>
      <point x="890.0" y="753.3055242816682"/>
      <point x="890.0" y="861.1832061068703" type="curve" smooth="yes"/>
      <point x="890.0" y="1039.9025583847329"/>
      <point x="719.7277076" y="1185.0"/>
      <point x="510.0" y="1185.0" type="curve" smooth="yes"/>
      <point x="300.2722924" y="1185.0"/>
      <point x="130.0" y="1039.9025583847329"/>
      <point x="130.0" y="861.1832061068702" type="curve" smooth="yes"/>
      <point x="130.0" y="753.3107071428843"/>
      <point x="192.03293059149146" y="657.6872101808594"/>
      <point x="287.33245849609375" y="598.8262939453125" type="curve"/>
      <point x="183.31270310207816" y="538.2529520792195"/>
      <point x="115.00000000000001" y="436.45424893623533"/>
      <point x="114.99999999999997" y="321.18320610687016" type="curve" smooth="yes"/>
      <point x="115.0" y="135.63864518473284"/>
      <point x="291.99356709999995" y="-15.0"/>
      <point x="509.99999999999994" y="-15.0" type="curve" smooth="yes"/>
      <point x="728.0064328999999" y="-15.000000000000057"/>
      <point x="905.0" y="135.63864518473272"/>
    </contour>
    <contour>
      <point x="770.0" y="861.1832061068702" type="curve" smooth="yes"/>
      <point x="770.0" y="748.6936562290075"/>
      <point x="653.4979052" y="657.3664122137404"/>
      <point x="509.99999999999994" y="657.3664122137404" type="curve" smooth="yes"/>
      <point x="366.50209479999995" y="657.3664122137404"/>
      <point x="250.0" y="748.6936562290076"/>
      <point x="250.0" y="861.1832061068702" type="curve" smooth="yes"/>
      <point x="250.0" y="973.6727559847328"/>
      <point x="366.5020948" y="1065.0"/>
      <point x="510.0" y="1065.0" type="curve" smooth="yes"/>
      <point x="653.4979052" y="1065.0"/>
      <point x="770.0" y="973.6727559847328"/>
    </contour>
    <contour>
      <point x="785.0" y="321.1832061068702" type="curve" smooth="yes"/>
      <point x="785.0" y="201.86844758473276"/>
      <point x="661.7766305" y="105.0"/>
      <point x="509.99999999999994" y="105.0" type="curve" smooth="yes"/>
      <point x="358.2233695" y="105.0"/>
      <point x="235.0" y="201.86844758473285"/>
      <point x="235.0" y="321.1832061068702" type="curve" smooth="yes"/>
      <point x="235.0" y="440.49796462900764"/>
      <point x="358.2233695" y="537.3664122137404"/>
      <point x="510.0" y="537.3664122137404" type="curve" smooth="yes"/>
      <point x="661.7766305" y="537.3664122137404"/>
      <point x="785.0" y="440.4979646290076"/>
    </contour>
  </outline>
</glyph>
<glyph name="nine" format="2">
  <advance width="1020"/>
  <unicode hex="0039"/>
  <outline>
    <contour>
      <point x="902.4999999999999" y="792.5" type="curve" smooth="yes"/>
      <point x="902.5" y="1009.12664535"/>
      <point x="726.62664535" y="1185.0"/>
      <point x="510.0" y="1185.0" type="curve" smooth="yes"/>
      <point x="293.37335465" y="1185.0"/>
      <point x="117.5" y="1009.12664535"/>
      <point x="117.5" y="792.5" type="curve" smooth="yes"/>
      <point x="117.5" y="575.87335465"/>
      <point x="293.3733546499999" y="400.0"/>
      <point x="509.99999999999994" y="400.0" type="curve" smooth="yes"/>
      <point x="542.647585094053" y="400.0"/>
      <point x="574.3695324365194" y="403.9946471503528"/>
      <point x="604.7032699584961" y="411.53087615966797" type="curve"/>
      <point x="367.1058120727539" y="0" type="line"/>
      <point x="505.6698760986328" y="0" type="line"/>
      <point x="849.7795028686523" y="596.0153656005859" type="line"/>
      <point x="883.3022113402102" y="653.8063810628306"/>
      <point x="902.4999999999999" y="720.9289392694587"/>
    </contour>
    <contour>
      <point x="782.5" y="792.5" type="curve" smooth="yes"/>
      <point x="782.5" y="642.1031570499999"/>
      <point x="660.39684295" y="520.0"/>
      <point x="509.99999999999994" y="520.0" type="curve" smooth="yes"/>
      <point x="359.60315704999994" y="520.0"/>
      <point x="237.5" y="642.10315705"/>
      <point x="237.5" y="792.5" type="curve" smooth="yes"/>
      <point x="237.5" y="942.8968429500001"/>
      <point x="359.60315705000005" y="1065.0"/>
      <point x="510.0" y="1065.0" type="curve" smooth="yes"/>
      <point x="660.3968429500001" y="1065.0"/>
      <point x="782.5" y="942.8968429500001"/>
    </contour>
  </outline>
</glyph>
<glyph name="colon" format="2">
  <advance width="1020"/>
  <unicode hex="003A"/>
  <outline>
    <contour>
      <point x="630.0" y="690.0" type="curve" smooth="yes"/>
      <point x="630.0" y="756.2298024"/>
      <point x="576.2298024" y="810.0"/>
      <point x="510.0" y="810.0" type="curve" smooth="yes"/>
      <point x="443.7701976" y="810.0"/>
      <point x="390.0" y="756.2298024"/>
      <point x="390.0" y="690.0" type="curve" smooth="yes"/>
      <point x="390.0" y="623.7701976"/>
      <point x="443.77019759999996" y="570.0"/>
      <point x="510.0" y="570.0" type="curve" smooth="yes"/>
      <point x="576.2298023999999" y="570.0"/>
      <point x="630.0" y="623.7701976"/>
    </contour>
    <contour>
      <point x="630.0" y="120.0" type="curve" smooth="yes"/>
      <point x="630.0" y="186.2298024"/>
      <point x="576.2298024" y="240.0"/>
      <point x="510.0" y="240.0" type="curve" smooth="yes"/>
      <point x="443.7701976" y="240.0"/>
      <point x="390.0" y="186.22980240000004"/>
      <point x="390.0" y="120.00000000000001" type="curve" smooth="yes"/>
      <point x="390.0" y="53.7701976"/>
      <point x="443.77019759999996" y="1.4210854715202004e-14"/>
      <point x="510.0" y="0.0" type="curve" smooth="yes"/>
      <point x="576.2298023999999" y="-1.4210854715202004e-14"/>
      <point x="630.0" y="53.77019759999996"/>
    </contour>
  </outline>
</glyph>
<glyph name="semicolon" format="2">
  <advance width="980"/>
  <unicode hex="003B"/>
  <outline>
    <contour>
      <point x="610.0" y="660.0" type="curve" smooth="yes"/>
      <point x="610.0" y="726.2298024"/>
      <point x="556.2298024000002" y="780.0"/>
      <point x="490.00000000000006" y="780.0" type="curve" smooth="yes"/>
      <point x="423.7701976000001" y="780.0"/>
      <point x="370.00000000000006" y="726.2298024"/>
      <point x="370.00000000000006" y="660.0" type="curve" smooth="yes"/>
      <point x="370.00000000000006" y="593.7701976"/>
      <point x="423.7701976" y="540.0"/>
      <point x="490.00000000000006" y="540.0" type="curve" smooth="yes"/>
      <point x="556.2298024" y="540.0"/>
      <point x="610.0" y="593.7701976"/>
    </contour>
    <contour>
      <point x="460.49981689453125" y="-330" type="line"/>
      <point x="528.9591136973081" y="-211.42501632235144"/>
      <point x="565.0" y="-76.91859749089167"/>
      <point x="565.0" y="60.0" type="curve"/>
      <point x="565" y="240" type="line"/>
      <point x="415" y="240" type="line"/>
      <point x="415" y="60" type="line"/>
      <point x="415.00000000000006" y="-50.58809797341249"/>
      <point x="385.89005337090265" y="-159.2278977988223"/>
      <point x="330.5960043841964" y="-254.99999999999994" type="curve"/>
    </contour>
  </outline>
</glyph>
<glyph name="less" format="2">
  <advance width="1020"/>
  <unicode hex="003C"/>
  <outline>
    <contour>
      <point x="102.5" y="555.0694580078125" type="line"/>
      <point x="102.5" y="424.9305419921875" type="line"/>
      <point x="912.5" y="85" type="line"/>
      <point x="912.5" y="215.13892364501953" type="line"/>
      <point x="257.5500946044922" y="490" type="line"/>
      <point x="912.5" y="764.8610763549805" type="line"/>
      <point x="912.5" y="895" type="line"/>
    </contour>
  </outline>
</glyph>
<glyph name="equal" format="2">
  <advance width="980"/>
  <unicode hex="003D"/>
  <outline>
    <contour>
      <point x="100.0" y="580.0" type="line"/>
      <point x="880.0" y="580.0" type="line"/>
      <point x="880.0" y="700.0" type="line"/>
      <point x="100.0" y="700.0" type="line"/>
    </contour>
    <contour>
      <point x="100.0" y="280.0" type="line"/>
      <point x="880.0" y="280.0" type="line"/>
      <point x="880.0" y="400.0" type="line"/>
      <point x="100.0" y="400.0" type="line"/>
    </contour>
  </outline>
</glyph>
<glyph name="greater" format="2">
  <advance width="1020"/>
  <unicode hex="003E"/>
  <outline>
    <contour>
      <point x="917.5" y="555.0694580078125" type="line"/>
      <point x="107.5" y="895" type="line"/>
      <point x="107.5" y="764.861083984375" type="line"/>
      <point x="762.4499130249023" y="490" type="line"/>
      <point x="107.5" y="215.138916015625" type="line"/>
      <point x="107.5" y="85" type="line"/>
      <point x="917.5" y="424.9305419921875" type="line"/>
    </contour>
  </outline>
</glyph>
<glyph name="question" format="2">
  <advance width="1020"/>
  <unicode hex="003F"/>
  <outline>
    <contour>
      <point x="445" y="336" type="line"/>
      <point x="565" y="336" type="line"/>
      <point x="565" y="485.0599060058594" type="line"/>
      <point x="732.3993759500671" y="513.6035422947092"/>
      <point x="860.0" y="659.51799484829"/>
      <point x="860.0" y="835.0" type="curve"/>
      <point x="860.0" y="1030.92983"/>
      <point x="700.92983" y="1190.0"/>
      <point x="505.0" y="1190.0" type="curve" smooth="yes"/>
      <point x="309.07017" y="1190.0"/>
      <point x="150.0" y="1030.92983"/>
      <point x="150.0" y="835.0" type="curve"/>
      <point x="270" y="835" type="line"/>
      <point x="270.0" y="964.70003"/>
      <point x="375.29997" y="1070.0"/>
      <point x="505.0" y="1070.0" type="curve" smooth="yes"/>
      <point x="634.70003" y="1070.0"/>
      <point x="740.0" y="964.70003"/>
      <point x="740.0" y="835.0" type="curve"/>
      <point x="740.0" y="705.29997"/>
      <point x="634.70003" y="600.0"/>
      <point x="505.0" y="600.0" type="curve"/>
      <point x="445" y="600" type="line"/>
    </contour>
    <contour>
      <point x="625.0" y="120.0" type="curve" smooth="yes"/>
      <point x="625.0" y="186.2298"/>
      <point x="571.2298" y="240.0"/>
      <point x="505.0" y="240.0" type="curve" smooth="yes"/>
      <point x="438.7702" y="240.0"/>
      <point x="385.0" y="186.2298"/>
      <point x="385.0" y="120.0" type="curve" smooth="yes"/>
      <point x="385.0" y="53.7702"/>
      <point x="438.7702" y="0.0"/>
      <point x="505.0" y="0.0" type="curve" smooth="yes"/>
      <point x="571.2298" y="-0.0"/>
      <point x="625.0" y="53.7702"/>
    </contour>
  </outline>
</glyph>
<glyph name="at" format="2">
  <advance width="980"/>
  <unicode hex="0040"/>
  <outline>
    <contour>
      <point x="100" y="390" type="line"/>
      <point x="100.0" y="174.75314220000004"/>
      <point x="274.75314219999996" y="0.0"/>
      <point x="489.99999999999994" y="0.0" type="curve" smooth="yes"/>
      <point x="652.1039153371845" y="0.0"/>
      <point x="791.2410037837969" y="99.11476647726884"/>
      <point x="850.0637130737305" y="240" type="curve"/>
      <point x="714.4673004150391" y="240" type="line"/>
      <point x="666.0056601093013" y="167.6538863001382"/>
      <point x="583.5239980713724" y="119.99999999999997"/>
      <point x="490.00000000000006" y="120.0" type="curve" smooth="yes"/>
      <point x="340.9829446" y="120.0"/>
      <point x="220.0" y="240.98294460000002"/>
      <point x="220.0" y="390.00000000000006" type="curve"/>
      <point x="220" y="780" type="line"/>
      <point x="220.0" y="929.0170554"/>
      <point x="340.9829446" y="1050.0"/>
      <point x="490.0" y="1050.0" type="curve" smooth="yes"/>
      <point x="639.0170554" y="1050.0"/>
      <point x="760.0" y="929.0170554"/>
      <point x="760.0" y="780.0" type="curve"/>
      <point x="760" y="630" type="line"/>
      <point x="760.0" y="563.7701976"/>
      <point x="706.2298024" y="510.0"/>
      <point x="640.0" y="510.0" type="curve"/>
      <point x="580" y="510" type="line"/>
      <point x="580" y="690" type="line"/>
      <point x="580.0" y="739.6723518"/>
      <point x="539.6723518" y="780.0"/>
      <point x="490.0" y="780.0" type="curve" smooth="yes"/>
      <point x="440.3276482" y="780.0"/>
      <point x="400.0" y="739.6723518"/>
      <point x="400.0" y="690.0" type="curve" smooth="yes"/>
      <point x="400" y="480" type="line"/>
      <point x="400.0" y="430.3276482"/>
      <point x="440.3276482" y="390.0"/>
      <point x="490.0" y="390.0" type="curve" smooth="yes"/>
      <point x="640" y="390" type="line"/>
      <point x="772.4596048000001" y="390.0"/>
      <point x="880.0" y="497.54039520000003"/>
      <point x="880.0" y="630.0" type="curve"/>
      <point x="880" y="780" type="line"/>
      <point x="880.0" y="995.2468578"/>
      <point x="705.2468578" y="1170.0"/>
      <point x="490.0" y="1170.0" type="curve" smooth="yes"/>
      <point x="274.7531422" y="1170.0"/>
      <point x="100.0" y="995.2468578"/>
      <point x="100.0" y="780.0" type="curve"/>
    </contour>
  </outline>
</glyph>
<glyph name="B" format="2">
  <advance width="1020"/>
  <unicode hex="0042"/>
  <outline>
    <contour>
      <point x="120" y="0" type="line"/>
      <point x="607.5" y="0" type="line"/>
      <point x="785.49259395" y="0.0"/>
      <point x="930.0" y="144.50740605000001"/>
      <point x="930.0" y="322.5" type="curve" smooth="yes"/>
      <point x="930.0" y="441.1491511566942"/>
      <point x="865.7881012872878" y="544.919151461653"/>
      <point x="770.2492828369141" y="600.9138641357422" type="curve"/>
      <point x="840.4056208177224" y="660.0786328175741"/>
      <point x="885.0" y="748.6226221644597"/>
      <point x="884.9999999999999" y="847.5" type="curve" smooth="yes"/>
      <point x="885.0" y="1025.49259395"/>
      <point x="740.49259395" y="1170.0"/>
      <point x="562.5" y="1170.0" type="curve"/>
      <point x="120" y="1170" type="line"/>
    </contour>
    <contour>
      <point x="562.5" y="1050" type="line"/>
      <point x="674.26279155" y="1050.0"/>
      <point x="765.0" y="959.26279155"/>
      <point x="765.0" y="847.5" type="curve" smooth="yes"/>
      <point x="765.0" y="735.73720845"/>
      <point x="674.26279155" y="645.0"/>
      <point x="562.5" y="645.0" type="curve"/>
      <point x="240" y="645" type="line"/>
      <point x="240" y="1050" type="line"/>
    </contour>
    <contour>
      <point x="607.5" y="525" type="line"/>
      <point x="719.26279155" y="525.0"/>
      <point x="810.0" y="434.26279155"/>
      <point x="810.0" y="322.5" type="curve" smooth="yes"/>
      <point x="810.0" y="210.73720845000003"/>
      <point x="719.26279155" y="120.0"/>
      <point x="607.5" y="120.0" type="curve"/>
      <point x="240" y="120" type="line"/>
      <point x="240" y="525" type="line"/>
    </contour>
  </outline>
</glyph>
<glyph name="C" format="2">
  <advance width="1020"/>
  <unicode hex="0043"/>
  <outline>
    <contour>
      <point x="105" y="390" type="line"/>
      <point x="105.0" y="166.47441690000005"/>
      <point x="286.47441689999994" y="-15.0"/>
      <point x="509.99999999999994" y="-15.0" type="curve" smooth="yes"/>
      <point x="733.5255831" y="-15.0"/>
      <point x="915.0" y="166.4744168999999"/>
      <point x="915.0" y="389.99999999999994" type="curve"/>
      <point x="795" y="390" type="line"/>
      <point x="795.0" y="232.70421929999992"/>
      <point x="667.2957807" y="105.0"/>
      <point x="509.99999999999994" y="105.0" type="curve" smooth="yes"/>
      <point x="352.7042193" y="105.0"/>
      <point x="225.0" y="232.7042193"/>
      <point x="225.0" y="390.00000000000006" type="curve"/>
      <point x="225" y="780" type="line"/>
      <point x="225.0" y="937.2957807"/>
      <point x="352.7042193" y="1065.0"/>
      <point x="510.0" y="1065.0" type="curve" smooth="yes"/>
      <point x="667.2957807" y="1065.0"/>
      <point x="795.0" y="937.2957807"/>
      <point x="795.0" y="780.0" type="curve"/>
      <point x="915" y="780" type="line"/>
      <point x="915.0" y="1003.5255831"/>
      <point x="733.5255831" y="1185.0"/>
      <point x="510.0" y="1185.0" type="curve" smooth="yes"/>
      <point x="286.47441690000005" y="1185.0"/>
      <point x="105.0" y="1003.5255831000001"/>
      <point x="105.0" y="780.0" type="curve"/>
    </contour>
  </outline>
</glyph>
<glyph name="D" format="2">
  <advance width="1020"/>
  <unicode hex="0044"/>
  <outline>
    <contour>
      <point x="129" y="0" type="line"/>
      <point x="461.25" y="0.0" type="line"/>
      <point x="653.0015395803078" y="0.0"/>
      <point x="909.0" y="82.00584658069874"/>
      <point x="909.0" y="447.75" type="curve"/>
      <point x="909.0" y="722.25" type="line"/>
      <point x="909.0" y="914.0015395803078"/>
      <point x="826.9941534193013" y="1170.0"/>
      <point x="461.25" y="1170.0" type="curve"/>
      <point x="129" y="1170" type="line"/>
    </contour>
    <contour>
      <point x="789.0" y="447.75" type="line"/>
      <point x="789.0" y="135.24369474123574"/>
      <point x="563.351599596726" y="120.0"/>
      <point x="461.25" y="120.0" type="curve"/>
      <point x="249" y="120" type="line"/>
      <point x="249" y="1050" type="line"/>
      <point x="461.25" y="1050.0" type="line"/>
      <point x="563.351599596726" y="1050.0"/>
      <point x="789.0" y="1034.7563052587643"/>
      <point x="789.0" y="722.25" type="curve"/>
    </contour>
  </outline>
</glyph>
<glyph name="E" format="2">
  <advance width="1020"/>
  <unicode hex="0045"/>
  <outline>
    <contour>
      <point x="160" y="0" type="line"/>
      <point x="870" y="0" type="line"/>
      <point x="870" y="120" type="line"/>
      <point x="280" y="120" type="line"/>
      <point x="280" y="525" type="line"/>
      <point x="810" y="525" type="line"/>
      <point x="810" y="645" type="line"/>
      <point x="280" y="645" type="line"/>
      <point x="280" y="1050" type="line"/>
      <point x="865" y="1050" type="line"/>
      <point x="865" y="1170" type="line"/>
      <point x="160" y="1170" type="line"/>
    </contour>
  </outline>
</glyph>
<glyph name="F" format="2">
  <advance width="980"/>
  <unicode hex="0046"/>
  <outline>
    <contour>
      <point x="125" y="0" type="line"/>
      <point x="245" y="0" type="line"/>
      <point x="245" y="525" type="line"/>
      <point x="845" y="525" type="line"/>
      <point x="845" y="645" type="line"/>
      <point x="245" y="645" type="line"/>
      <point x="245" y="1050" type="line"/>
      <point x="905" y="1050" type="line"/>
      <point x="905" y="1170" type="line"/>
      <point x="125" y="1170" type="line"/>
    </contour>
  </outline>
</glyph>
<glyph name="G" format="2">
  <advance width="1020"/>
  <unicode hex="0047"/>
  <outline>
    <contour>
      <point x="85.0" y="447.75" type="line"/>
      <point x="85.00000000000003" y="98.76342663747107"/>
      <point x="330.87837468627856" y="-19.99999999999998"/>
      <point x="510.0" y="-20.0" type="curve" smooth="yes"/>
      <point x="689.1216253137214" y="-20.0"/>
      <point x="935.0" y="98.76342663747101"/>
      <point x="935.0" y="447.75" type="curve"/>
      <point x="935" y="600" type="line"/>
      <point x="510" y="600" type="line"/>
      <point x="510" y="480" type="line"/>
      <point x="815" y="480" type="line"/>
      <point x="815.0" y="447.75" type="line"/>
      <point x="815.0" y="170.82443097343946"/>
      <point x="629.0575873956514" y="100.0"/>
      <point x="510.0" y="100.0" type="curve" smooth="yes"/>
      <point x="390.94241260434865" y="100.00000000000001"/>
      <point x="205.00000000000003" y="170.82443097343946"/>
      <point x="205.0" y="447.75" type="curve"/>
      <point x="205.0" y="722.25" type="line"/>
      <point x="205.00000000000003" y="999.1755690265605"/>
      <point x="390.94241260434865" y="1070.0"/>
      <point x="510.0" y="1070.0" type="curve" smooth="yes"/>
      <point x="678.3340800000001" y="1070.0"/>
      <point x="815.0" y="933.3340800000001"/>
      <point x="815.0" y="765.0" type="curve"/>
      <point x="935" y="765" type="line"/>
      <point x="935.0" y="999.5638800000002"/>
      <point x="744.5638800000002" y="1190.0"/>
      <point x="510.0" y="1190.0" type="curve" smooth="yes"/>
      <point x="330.87837468627856" y="1190.0"/>
      <point x="85.00000000000003" y="1071.236573362529"/>
      <point x="85.0" y="722.25" type="curve"/>
    </contour>
  </outline>
</glyph>
<glyph name="H" format="2">
  <advance width="980"/>
  <unicode hex="0048"/>
  <outline>
    <contour>
      <point x="100" y="0" type="line"/>
      <point x="220" y="0" type="line"/>
      <point x="220" y="525" type="line"/>
      <point x="760" y="525" type="line"/>
      <point x="760" y="0" type="line"/>
      <point x="880" y="0" type="line"/>
      <point x="880" y="1170" type="line"/>
      <point x="760" y="1170" type="line"/>
      <point x="760" y="645" type="line"/>
      <point x="220" y="645" type="line"/>
      <point x="220" y="1170" type="line"/>
      <point x="100" y="1170" type="line"/>
    </contour>
  </outline>
</glyph>
<glyph name="I" format="2">
  <advance width="980"/>
  <unicode hex="0049"/>
  <outline>
    <contour>
      <point x="130" y="0" type="line"/>
      <point x="850" y="0" type="line"/>
      <point x="850" y="120" type="line"/>
      <point x="550" y="120" type="line"/>
      <point x="550" y="1050" type="line"/>
      <point x="850" y="1050" type="line"/>
      <point x="850" y="1170" type="line"/>
      <point x="130" y="1170" type="line"/>
      <point x="130" y="1050" type="line"/>
      <point x="430" y="1050" type="line"/>
      <point x="430" y="120" type="line"/>
      <point x="130" y="120" type="line"/>
    </contour>
  </outline>
</glyph>
<glyph name="J" format="2">
  <advance width="1020"/>
  <unicode hex="004A"/>
  <outline>
    <contour>
      <point x="115" y="375" type="line"/>
      <point x="115.0" y="159.75314220000004"/>
      <point x="289.75314219999996" y="-15.0"/>
      <point x="504.99999999999994" y="-15.0" type="curve" smooth="yes"/>
      <point x="720.2468577999999" y="-15.0"/>
      <point x="895.0" y="159.7531421999999"/>
      <point x="895.0" y="374.99999999999994" type="curve"/>
      <point x="895" y="1170" type="line"/>
      <point x="775" y="1170" type="line"/>
      <point x="775" y="375" type="line"/>
      <point x="775.0" y="225.98294459999994"/>
      <point x="654.0170553999999" y="105.0"/>
      <point x="504.99999999999994" y="105.0" type="curve" smooth="yes"/>
      <point x="355.9829446" y="105.0"/>
      <point x="235.0" y="225.98294460000002"/>
      <point x="235.0" y="375.00000000000006" type="curve"/>
    </contour>
  </outline>
</glyph>
<glyph name="K" format="2">
  <advance width="980"/>
  <unicode hex="004B"/>
  <outline>
    <contour>
      <point x="140" y="0" type="line"/>
      <point x="260" y="0" type="line"/>
      <point x="260" y="525" type="line"/>
      <point x="780.9480056762695" y="0" type="line"/>
      <point x="950" y="0" type="line"/>
      <point x="369.5150833129883" y="585" type="line"/>
      <point x="950" y="1170" type="line"/>
      <point x="780.9480056762695" y="1170" type="line"/>
      <point x="260" y="645" type="line"/>
      <point x="260" y="1170" type="line"/>
      <point x="140" y="1170" type="line"/>
    </contour>
  </outline>
</glyph>
<glyph name="L" format="2">
  <advance width="1020"/>
  <unicode hex="004C"/>
  <outline>
    <contour>
      <point x="160" y="0" type="line"/>
      <point x="880" y="0" type="line"/>
      <point x="880" y="120" type="line"/>
      <point x="280" y="120" type="line"/>
      <point x="280" y="1170" type="line"/>
      <point x="160" y="1170" type="line"/>
    </contour>
  </outline>
</glyph>
<glyph name="M" format="2">
  <advance width="1020"/>
  <unicode hex="004D"/>
  <outline>
    <contour>
      <point x="90" y="0" type="line"/>
      <point x="210" y="0" type="line"/>
      <point x="210" y="924.2168655395508" type="line"/>
      <point x="463.5" y="405" type="line"/>
      <point x="556.5" y="405" type="line"/>
      <point x="810" y="924.2168655395508" type="line"/>
      <point x="810" y="0" type="line"/>
      <point x="930" y="0" type="line"/>
      <point x="930" y="1170" type="line"/>
      <point x="796.461311340332" y="1170" type="line"/>
      <point x="510" y="583.2720108032227" type="line"/>
      <point x="223.53868865966797" y="1170" type="line"/>
      <point x="90" y="1170" type="line"/>
    </contour>
  </outline>
</glyph>
<glyph name="N" format="2">
  <advance width="1020"/>
  <unicode hex="004E"/>
  <outline>
    <contour>
      <point x="120" y="0" type="line"/>
      <point x="240" y="0" type="line"/>
      <point x="240" y="930.8561401367188" type="line"/>
      <point x="780" y="0" type="line"/>
      <point x="900" y="0" type="line"/>
      <point x="900" y="1170" type="line"/>
      <point x="780" y="1170" type="line"/>
      <point x="780" y="239.14385986328125" type="line"/>
      <point x="240" y="1170" type="line"/>
      <point x="120" y="1170" type="line"/>
    </contour>
  </outline>
</glyph>
<glyph name="P" format="2">
  <advance width="1020"/>
  <unicode hex="0050"/>
  <outline>
    <contour>
      <point x="147.5" y="0" type="line"/>
      <point x="267.5" y="0" type="line"/>
      <point x="267.5" y="420" type="line"/>
      <point x="509.75" y="420.0" type="line"/>
      <point x="828.4825341698134" y="420.0"/>
      <point x="927.5" y="640.6019105546065"/>
      <point x="927.5" y="795.0" type="curve" smooth="yes"/>
      <point x="927.5" y="949.3980894453935"/>
      <point x="828.4825341698134" y="1170.0"/>
      <point x="509.75" y="1170.0" type="curve"/>
      <point x="147.5" y="1170" type="line"/>
    </contour>
    <contour>
      <point x="509.75" y="1050.0" type="line"/>
      <point x="756.807269560044" y="1050.0"/>
      <point x="807.5" y="888.7359814091778"/>
      <point x="807.5" y="795.0" type="curve" smooth="yes"/>
      <point x="807.5" y="701.2640185908222"/>
      <point x="756.807269560044" y="540.0"/>
      <point x="509.75" y="540.0" type="curve"/>
      <point x="267.5" y="540" type="line"/>
      <point x="267.5" y="1050" type="line"/>
    </contour>
  </outline>
</glyph>
<glyph name="Q" format="2">
  <advance width="1020"/>
  <unicode hex="0051"/>
  <outline>
    <contour>
      <point x="795" y="390" type="line"/>
      <point x="795.0" y="343.63612486399074"/>
      <point x="783.9049170118295" y="299.8431971194006"/>
      <point x="764.2273483276367" y="261.14588928222656" type="curve"/>
      <point x="637.8718719482422" y="480" type="line"/>
      <point x="499.3078079223633" y="480" type="line"/>
      <point x="682.3031311035156" y="163.04280853271484" type="line"/>
      <point x="634.4357854035807" y="126.62160516620173"/>
      <point x="574.7229667719711" y="105.00000000000001"/>
      <point x="510.00000000000006" y="105.00000000000003" type="curve" smooth="yes"/>
      <point x="352.7042193" y="105.0"/>
      <point x="225.0" y="232.7042193"/>
      <point x="225.0" y="390.00000000000006" type="curve"/>
      <point x="225" y="780" type="line"/>
      <point x="225.0" y="937.2957807"/>
      <point x="352.7042193" y="1065.0"/>
      <point x="510.0" y="1065.0" type="curve" smooth="yes"/>
      <point x="667.2957807" y="1065.0"/>
      <point x="795.0" y="937.2957807"/>
      <point x="795.0" y="780.0" type="curve"/>
    </contour>
    <contour>
      <point x="105" y="390" type="line"/>
      <point x="105.0" y="166.47441690000005"/>
      <point x="286.47441689999994" y="-15.0"/>
      <point x="509.99999999999994" y="-15.0" type="curve" smooth="yes"/>
      <point x="596.5486587251537" y="-15.0"/>
      <point x="676.7929102658034" y="12.20706037655788"/>
      <point x="742.6392135620117" y="58.53764343261719" type="curve"/>
      <point x="776.4359359741211" y="0" type="line"/>
      <point x="915" y="0" type="line"/>
      <point x="831.7711410522461" y="144.15660858154297" type="line"/>
      <point x="883.9712459601612" y="212.3347580631937"/>
      <point x="915.0" y="297.57239491373304"/>
      <point x="914.9999999999999" y="389.99999999999994" type="curve"/>
      <point x="915" y="780" type="line"/>
      <point x="915.0" y="1003.5255831"/>
      <point x="733.5255831" y="1185.0"/>
      <point x="510.0" y="1185.0" type="curve" smooth="yes"/>
      <point x="286.47441690000005" y="1185.0"/>
      <point x="105.0" y="1003.5255831000001"/>
      <point x="105.0" y="780.0" type="curve"/>
    </contour>
  </outline>
</glyph>
<glyph name="R" format="2">
  <advance width="1020"/>
  <unicode hex="0052"/>
  <outline>
    <contour>
      <point x="137.5" y="0" type="line"/>
      <point x="257.5" y="0" type="line"/>
      <point x="257.5" y="420" type="line"/>
      <point x="526.7827606201172" y="420" type="line"/>
      <point x="803.7558670043945" y="0" type="line"/>
      <point x="947.5" y="0" type="line"/>
      <point x="658.4529876708984" y="438.30877685546875" type="line"/>
      <point x="808.7442081736477" y="487.18580446121564"/>
      <point x="917.5" y="628.4924836699599"/>
      <point x="917.5" y="795.0" type="curve" smooth="yes"/>
      <point x="917.5" y="949.3980894453935"/>
      <point x="818.4825341698134" y="1170.0"/>
      <point x="499.75" y="1170.0" type="curve"/>
      <point x="137.5" y="1170" type="line"/>
    </contour>
    <contour>
      <point x="499.75" y="1050.0" type="line"/>
      <point x="746.807269560044" y="1050.0"/>
      <point x="797.5" y="888.7359814091778"/>
      <point x="797.5" y="795.0" type="curve" smooth="yes"/>
      <point x="797.5" y="701.2640185908222"/>
      <point x="746.807269560044" y="540.0"/>
      <point x="499.75" y="540.0" type="curve"/>
      <point x="257.5" y="540" type="line"/>
      <point x="257.5" y="1050" type="line"/>
    </contour>
  </outline>
</glyph>
<glyph name="S" format="2">
  <advance width="1020"/>
  <unicode hex="0053"/>
  <outline>
    <contour>
      <point x="100" y="316.25" type="line"/>
      <point x="100.0" y="130.86413"/>
      <point x="283.47631" y="-20.0"/>
      <point x="510.0" y="-20.0" type="curve" smooth="yes"/>
      <point x="736.5236900000001" y="-20.0"/>
      <point x="920.0" y="130.8641299999999"/>
      <point x="920.0" y="316.25" type="curve"/>
      <point x="920.0" y="422.9874371133647"/>
      <point x="861.1319575596356" y="594.5282863514178"/>
      <point x="555.339182677416" y="652.851986845487" type="curve"/>
      <point x="495.1017056770761" y="664.3410502101771" type="line"/>
      <point x="430.2135773805421" y="676.7171299322877"/>
      <point x="250.0" y="716.2637314251081"/>
      <point x="250.0" y="868.75" type="curve"/>
      <point x="250.0" y="979.67192"/>
      <point x="366.30701999999997" y="1070.0"/>
      <point x="510.0" y="1070.0" type="curve" smooth="yes"/>
      <point x="653.69298" y="1070.0"/>
      <point x="770.0" y="979.67192"/>
      <point x="770.0" y="868.75" type="curve"/>
      <point x="890" y="868.75" type="line"/>
      <point x="890.0" y="1045.8942"/>
      <point x="719.96203" y="1190.0"/>
      <point x="510.0" y="1190.0" type="curve" smooth="yes"/>
      <point x="300.03796999999986" y="1190.0"/>
      <point x="130.0" y="1045.8942"/>
      <point x="130.0" y="868.75" type="curve"/>
      <point x="130.0" y="779.0724409069823"/>
      <point x="172.0105735966411" y="603.8090930513401"/>
      <point x="473.36783792322774" y="546.4012370322729" type="curve"/>
      <point x="533.607685362905" y="534.9256865883326" type="line"/>
      <point x="600.6226362805179" y="522.1594947329609"/>
      <point x="800.0" y="478.72873502268413"/>
      <point x="800.0" y="316.25" type="curve"/>
      <point x="800.0" y="197.08378999999996"/>
      <point x="670.3041700000001" y="100.0"/>
      <point x="510.0" y="100.0" type="curve" smooth="yes"/>
      <point x="349.69583" y="100.0"/>
      <point x="220.0" y="197.08379"/>
      <point x="220.0" y="316.25" type="curve"/>
    </contour>
  </outline>
</glyph>
<glyph name="T" format="2">
  <advance width="1020"/>
  <unicode hex="0054"/>
  <outline>
    <contour>
      <point x="450" y="0" type="line"/>
      <point x="570" y="0" type="line"/>
      <point x="570" y="1050" type="line"/>
      <point x="922.5" y="1050" type="line"/>
      <point x="922.5" y="1170" type="line"/>
      <point x="97.5" y="1170" type="line"/>
      <point x="97.5" y="1050" type="line"/>
      <point x="450" y="1050" type="line"/>
    </contour>
  </outline>
</glyph>
<glyph name="U" format="2">
  <advance width="1020"/>
  <unicode hex="0055"/>
  <outline>
    <contour>
      <point x="110" y="380" type="line"/>
      <point x="110.0" y="159.23399"/>
      <point x="289.23399" y="-20.0"/>
      <point x="510.0" y="-20.0" type="curve" smooth="yes"/>
      <point x="730.76601" y="-20.0"/>
      <point x="910.0" y="159.23399"/>
      <point x="910.0" y="380.0" type="curve"/>
      <point x="910" y="1170" type="line"/>
      <point x="790" y="1170" type="line"/>
      <point x="790" y="380" type="line"/>
      <point x="790.0" y="225.46379"/>
      <point x="664.53621" y="100.0"/>
      <point x="510.0" y="100.0" type="curve" smooth="yes"/>
      <point x="355.46379" y="100.0"/>
      <point x="230.0" y="225.46379"/>
      <point x="230.0" y="380.0" type="curve"/>
      <point x="230" y="1170" type="line"/>
      <point x="110" y="1170" type="line"/>
    </contour>
  </outline>
</glyph>
<glyph name="V" format="2">
  <advance width="1020"/>
  <unicode hex="0056"/>
  <outline>
    <contour>
      <point x="446.8060531616211" y="0" type="line"/>
      <point x="573.1939468383789" y="0" type="line"/>
      <point x="960" y="1170" type="line"/>
      <point x="833.6121063232422" y="1170" type="line"/>
      <point x="510" y="191.1472625732422" type="line"/>
      <point x="186.3878936767578" y="1170" type="line"/>
      <point x="60" y="1170" type="line"/>
    </contour>
  </outline>
</glyph>
<glyph name="W" format="2">
  <advance width="1020"/>
  <unicode hex="0057"/>
  <outline>
    <contour>
      <point x="247.05592346191406" y="0" type="line"/>
      <point x="368.83223724365234" y="0" type="line"/>
      <point x="510" y="817.4285583496094" type="line"/>
      <point x="651.1677627563477" y="0" type="line"/>
      <point x="772.9440765380859" y="0" type="line"/>
      <point x="975" y="1170" type="line"/>
      <point x="853.2236862182617" y="1170" type="line"/>
      <point x="712.0559234619141" y="352.57142639160156" type="line"/>
      <point x="570.8881607055664" y="1170" type="line"/>
      <point x="449.1118392944336" y="1170" type="line"/>
      <point x="307.94407653808594" y="352.57142639160156" type="line"/>
      <point x="166.77631378173828" y="1170" type="line"/>
      <point x="45" y="1170" type="line"/>
    </contour>
  </outline>
</glyph>
<glyph name="X" format="2">
  <advance width="980"/>
  <unicode hex="0058"/>
  <outline>
    <contour>
      <point x="100" y="0" type="line"/>
      <point x="236.93123626708984" y="0" type="line"/>
      <point x="490" y="460.43357849121094" type="line"/>
      <point x="743.0687637329102" y="0" type="line"/>
      <point x="880" y="0" type="line"/>
      <point x="558.4656219482422" y="585" type="line"/>
      <point x="880" y="1170" type="line"/>
      <point x="743.0687637329102" y="1170" type="line"/>
      <point x="490" y="709.5664215087891" type="line"/>
      <point x="236.93123626708984" y="1170" type="line"/>
      <point x="100" y="1170" type="line"/>
      <point x="421.53438568115234" y="585" type="line"/>
    </contour>
  </outline>
</glyph>
<glyph name="Y" format="2">
  <advance width="1020"/>
  <unicode hex="0059"/>
  <outline>
    <contour>
      <point x="450" y="0" type="line"/>
      <point x="570" y="0" type="line"/>
      <point x="570" y="480" type="line"/>
      <point x="945" y="1170" type="line"/>
      <point x="808.4228820800781" y="1170" type="line"/>
      <point x="510" y="620.9018936157227" type="line"/>
      <point x="211.57711791992188" y="1170" type="line"/>
      <point x="75" y="1170" type="line"/>
      <point x="450" y="480" type="line"/>
    </contour>
  </outline>
</glyph>
<glyph name="Z" format="2">
  <advance width="1020"/>
  <unicode hex="005A"/>
  <outline>
    <contour>
      <point x="135" y="0" type="line"/>
      <point x="885" y="0" type="line"/>
      <point x="885" y="120" type="line"/>
      <point x="278.2787322998047" y="120" type="line"/>
      <point x="885" y="1050" type="line"/>
      <point x="885" y="1170" type="line"/>
      <point x="135" y="1170" type="line"/>
      <point x="135" y="1050" type="line"/>
      <point x="741.7212677001953" y="1050" type="line"/>
      <point x="135" y="120" type="line"/>
    </contour>
  </outline>
</glyph>
<glyph name="bracketleft" format="2">
  <advance width="980"/>
  <unicode hex="005B"/>
  <outline>
    <contour>
      <point x="285" y="-120" type="line"/>
      <point x="765" y="-120" type="line"/>
      <point x="765" y="0" type="line"/>
      <point x="405" y="0" type="line"/>
      <point x="405" y="1170" type="line"/>
      <point x="765" y="1170" type="line"/>
      <point x="765" y="1290" type="line"/>
      <point x="285" y="1290" type="line"/>
    </contour>
  </outline>
</glyph>
<glyph name="backslash" format="2">
  <advance width="1020"/>
  <unicode hex="005C"/>
  <outline>
    <contour>
      <point x="793.61147" y="0.0" type="line"/>
      <point x="324.08987" y="1290.0" type="line"/>
      <point x="196.38853" y="1290.0" type="line"/>
      <point x="665.91013" y="0.0" type="line"/>
    </contour>
  </outline>
</glyph>
<glyph name="bracketright" format="2">
  <advance width="980"/>
  <unicode hex="005D"/>
  <outline>
    <contour>
      <point x="695" y="-120" type="line"/>
      <point x="695" y="1290" type="line"/>
      <point x="215" y="1290" type="line"/>
      <point x="215" y="1170" type="line"/>
      <point x="575" y="1170" type="line"/>
      <point x="575" y="0" type="line"/>
      <point x="215" y="0" type="line"/>
      <point x="215" y="-120" type="line"/>
    </contour>
  </outline>
</glyph>
<glyph name="asciicircum" format="2">
  <advance width="1020"/>
  <unicode hex="005E"/>
  <outline>
    <contour>
      <point x="240" y="690" type="line"/>
      <point x="370.46314239501953" y="690" type="line"/>
      <point x="510" y="1017.0899276733398" type="line"/>
      <point x="649.5368576049805" y="690" type="line"/>
      <point x="780" y="690" type="line"/>
      <point x="575.231575012207" y="1170" type="line"/>
      <point x="444.76842498779297" y="1170" type="line"/>
    </contour>
  </outline>
</glyph>
<glyph name="underscore" format="2">
  <advance width="1020"/>
  <unicode hex="005F"/>
  <outline>
    <contour>
      <point x="105.0" y="-180.0" type="line"/>
      <point x="915.0" y="-180.0" type="line"/>
      <point x="915.0" y="-60.0" type="line"/>
      <point x="105.0" y="-60.0" type="line"/>
    </contour>
  </outline>
</glyph>
<glyph name="b" format="2">
  <advance width="1020"/>
  <unicode hex="0062"/>
  <outline>
    <contour>
      <point x="100" y="0" type="line"/>
      <point x="220" y="0" type="line"/>
      <point x="220" y="111.18876647949219" type="line"/>
      <point x="296.2551862811474" y="33.33220551972306"/>
      <point x="402.5278352192068" y="-15.000000000000021"/>
      <point x="520.0" y="-15.000000000000028" type="curve" smooth="yes"/>
      <point x="751.8043084" y="-15.000000000000057"/>
      <point x="940.0" y="173.1956915999999"/>
      <point x="940.0" y="405.0" type="curve" smooth="yes"/>
      <point x="940.0" y="636.8043084000001"/>
      <point x="751.8043084000001" y="825.0"/>
      <point x="520.0" y="825.0" type="curve" smooth="yes"/>
      <point x="402.5278352192068" y="825.0"/>
      <point x="296.2551862811474" y="776.6677944802769"/>
      <point x="220" y="698.8204498291016" type="curve"/>
      <point x="220" y="1170" type="line"/>
      <point x="100" y="1170" type="line"/>
    </contour>
    <contour>
      <point x="820.0" y="405.0" type="curve" smooth="yes"/>
      <point x="820.0" y="239.42549399999993"/>
      <point x="685.5745059999999" y="104.99999999999994"/>
      <point x="520.0" y="105.0" type="curve" smooth="yes"/>
      <point x="354.42549399999996" y="105.0"/>
      <point x="220.0" y="239.42549400000001"/>
      <point x="220.0" y="405.0" type="curve" smooth="yes"/>
      <point x="220.0" y="570.574506"/>
      <point x="354.425494" y="705.0"/>
      <point x="520.0" y="705.0" type="curve" smooth="yes"/>
      <point x="685.574506" y="705.0"/>
      <point x="820.0" y="570.574506"/>
    </contour>
  </outline>
</glyph>
<glyph name="c" format="2">
  <advance width="1020"/>
  <unicode hex="0063"/>
  <outline>
    <contour>
      <point x="528.8104934692383" y="105.0" type="curve" smooth="yes"/>
      <point x="363.23598746923824" y="105.0"/>
      <point x="228.81049346923828" y="239.42549400000001"/>
      <point x="228.81049346923828" y="405.0" type="curve" smooth="yes"/>
      <point x="228.81049346923828" y="570.574506"/>
      <point x="363.2359874692383" y="705.0"/>
      <point x="528.8104934692383" y="705.0" type="curve" smooth="yes"/>
      <point x="639.7488895538643" y="705.0"/>
      <point x="736.7036176047559" y="644.6526129507172"/>
      <point x="788.6099319458008" y="555.0" type="curve"/>
      <point x="921.1817626953125" y="555.0" type="line"/>
      <point x="860.7381960320332" y="712.8296615436547"/>
      <point x="707.7703736832904" y="825.0"/>
      <point x="528.8104934692384" y="825.0" type="curve" smooth="yes"/>
      <point x="297.0061850692383" y="825.0"/>
      <point x="108.81049346923828" y="636.8043084000001"/>
      <point x="108.81049346923828" y="405.0" type="curve" smooth="yes"/>
      <point x="108.81049346923828" y="173.19569160000003"/>
      <point x="297.0061850692382" y="-15.0"/>
      <point x="528.8104934692383" y="-15.0" type="curve" smooth="yes"/>
      <point x="707.7780232254675" y="-15.000000000000044"/>
      <point x="860.7512730363095" y="97.17992798079634"/>
      <point x="921.1895065307617" y="255.0" type="curve"/>
      <point x="788.6118850708008" y="255.0" type="line"/>
      <point x="736.7059328669836" y="165.3488281443486"/>
      <point x="639.7502141499123" y="104.99999999999994"/>
    </contour>
  </outline>
</glyph>
<glyph name="d" format="2">
  <advance width="980"/>
  <unicode hex="0064"/>
  <outline>
    <contour>
      <point x="750" y="0" type="line"/>
      <point x="870" y="0" type="line"/>
      <point x="870" y="1170" type="line"/>
      <point x="750" y="1170" type="line"/>
      <point x="750" y="671.310302734375" type="line"/>
      <point x="679.9046279465593" y="738.615735060984"/>
      <point x="584.7470851392186" y="780.0"/>
      <point x="479.99999999999994" y="780.0" type="curve" smooth="yes"/>
      <point x="264.7531422" y="780.0"/>
      <point x="90.0" y="605.2468578"/>
      <point x="90.0" y="390.0" type="curve" smooth="yes"/>
      <point x="90.0" y="174.75314220000004"/>
      <point x="264.75314219999996" y="0.0"/>
      <point x="479.99999999999994" y="0.0" type="curve" smooth="yes"/>
      <point x="584.7470851392185" y="-2.766211082416703e-14"/>
      <point x="679.9046279465592" y="41.38426493901603"/>
      <point x="750" y="108.6875991821289" type="curve"/>
    </contour>
    <contour>
      <point x="750.0" y="390.0" type="curve" smooth="yes"/>
      <point x="750.0" y="240.98294459999994"/>
      <point x="629.0170553999999" y="120.0"/>
      <point x="479.99999999999994" y="120.0" type="curve" smooth="yes"/>
      <point x="330.9829446" y="120.0"/>
      <point x="210.0" y="240.98294460000002"/>
      <point x="210.0" y="390.0" type="curve" smooth="yes"/>
      <point x="210.0" y="539.0170554"/>
      <point x="330.9829446" y="660.0"/>
      <point x="480.0" y="660.0" type="curve" smooth="yes"/>
      <point x="629.0170554" y="660.0"/>
      <point x="750.0" y="539.0170554"/>
    </contour>
  </outline>
</glyph>
<glyph name="f" format="2">
  <advance width="1020"/>
  <unicode hex="0066"/>
  <outline>
    <contour>
      <point x="315" y="0" type="line"/>
      <point x="435" y="0" type="line"/>
      <point x="435" y="690" type="line"/>
      <point x="915" y="690" type="line"/>
      <point x="915" y="810" type="line"/>
      <point x="435" y="810" type="line"/>
      <point x="435" y="861.4285736083984" type="line"/>
      <point x="435.0" y="965.5039752"/>
      <point x="519.4960248" y="1050.0"/>
      <point x="623.5714285714286" y="1050.0" type="curve"/>
      <point x="915" y="1050" type="line"/>
      <point x="915" y="1170" type="line"/>
      <point x="623.5714263916016" y="1170" type="line"/>
      <point x="453.2662224" y="1170.0"/>
      <point x="315.0" y="1031.7337776"/>
      <point x="315.0" y="861.4285714285714" type="curve"/>
      <point x="315" y="810" type="line"/>
      <point x="75" y="810" type="line"/>
      <point x="75" y="690" type="line"/>
      <point x="315" y="690" type="line"/>
    </contour>
  </outline>
</glyph>
<glyph name="g" format="2">
  <advance width="1020"/>
  <unicode hex="0067"/>
  <outline>
    <contour>
      <point x="90" y="-65" type="line"/>
      <point x="90.0" y="-294.04473329999996"/>
      <point x="275.9552666999999" y="-480.0"/>
      <point x="505.0" y="-480.0" type="curve" smooth="yes"/>
      <point x="734.0447333" y="-480.0"/>
      <point x="920.0" y="-294.0447333000001"/>
      <point x="920.0" y="-65.00000000000007" type="curve"/>
      <point x="920" y="810" type="line"/>
      <point x="800" y="810" type="line"/>
      <point x="800" y="698.8112335205078" type="line"/>
      <point x="723.7448137188526" y="776.6677944802769"/>
      <point x="617.4721647807933" y="825.0"/>
      <point x="499.99999999999994" y="825.0" type="curve" smooth="yes"/>
      <point x="268.19569160000003" y="825.0"/>
      <point x="80.0" y="636.8043084000001"/>
      <point x="80.0" y="405.0" type="curve" smooth="yes"/>
      <point x="80.0" y="173.19569160000003"/>
      <point x="268.1956915999999" y="-15.0"/>
      <point x="499.99999999999994" y="-15.0" type="curve" smooth="yes"/>
      <point x="617.4721647807932" y="-15.000000000000028"/>
      <point x="723.7448137188526" y="33.33220551972303"/>
      <point x="800" y="111.17955017089844" type="curve"/>
      <point x="800" y="-65" type="line"/>
      <point x="800.0" y="-227.81493090000006"/>
      <point x="667.8149308999999" y="-360.0"/>
      <point x="505.0" y="-360.0" type="curve" smooth="yes"/>
      <point x="342.18506909999996" y="-360.0"/>
      <point x="210.0" y="-227.81493089999998"/>
      <point x="210.0" y="-64.99999999999996" type="curve"/>
    </contour>
    <contour>
      <point x="800.0" y="405.0" type="curve" smooth="yes"/>
      <point x="800.0" y="239.42549399999993"/>
      <point x="665.5745059999999" y="104.99999999999994"/>
      <point x="499.99999999999994" y="105.0" type="curve" smooth="yes"/>
      <point x="334.42549399999996" y="105.0"/>
      <point x="200.0" y="239.42549400000001"/>
      <point x="200.0" y="405.0" type="curve" smooth="yes"/>
      <point x="200.0" y="570.574506"/>
      <point x="334.425494" y="705.0"/>
      <point x="500.0" y="705.0" type="curve" smooth="yes"/>
      <point x="665.574506" y="705.0"/>
      <point x="800.0" y="570.574506"/>
    </contour>
  </outline>
</glyph>
<glyph name="h" format="2">
  <advance width="1020"/>
  <unicode hex="0068"/>
  <outline>
    <contour>
      <point x="137.5" y="0" type="line"/>
      <point x="257.5" y="0" type="line"/>
      <point x="257.5" y="442.5" type="line"/>
      <point x="257.5" y="587.37769275"/>
      <point x="375.12230725" y="705.0"/>
      <point x="520.0" y="705.0" type="curve" smooth="yes"/>
      <point x="664.87769275" y="705.0"/>
      <point x="782.5" y="587.37769275"/>
      <point x="782.5" y="442.5" type="curve"/>
      <point x="782.5" y="0" type="line"/>
      <point x="902.5" y="0" type="line"/>
      <point x="902.5" y="442.5" type="line"/>
      <point x="902.5" y="653.60749515"/>
      <point x="731.10749515" y="825.0"/>
      <point x="520.0" y="825.0" type="curve" smooth="yes"/>
      <point x="418.41232893638306" y="825.0"/>
      <point x="326.02129738519625" y="785.3113315568938"/>
      <point x="257.5" y="720.595085144043" type="curve"/>
      <point x="257.5" y="1170" type="line"/>
      <point x="137.5" y="1170" type="line"/>
    </contour>
  </outline>
</glyph>
<glyph name="i" format="2">
  <advance width="1020"/>
  <unicode hex="0069"/>
  <outline>
    <contour>
      <point x="636.0" y="1026.0" type="curve" smooth="yes"/>
      <point x="636.0" y="1078.98384192"/>
      <point x="592.98384192" y="1122.0"/>
      <point x="540.0" y="1122.0" type="curve" smooth="yes"/>
      <point x="487.01615808" y="1122.0"/>
      <point x="444.0" y="1078.98384192"/>
      <point x="444.0" y="1026.0" type="curve" smooth="yes"/>
      <point x="444.0" y="973.01615808"/>
      <point x="487.01615807999997" y="930.0"/>
      <point x="540.0" y="930.0" type="curve" smooth="yes"/>
      <point x="592.98384192" y="930.0"/>
      <point x="636.0" y="973.01615808"/>
    </contour>
    <contour>
      <point x="180" y="0" type="line"/>
      <point x="900" y="0" type="line"/>
      <point x="900" y="120" type="line"/>
      <point x="630" y="120" type="line"/>
      <point x="630" y="810" type="line"/>
      <point x="210" y="810" type="line"/>
      <point x="210" y="690" type="line"/>
      <point x="510" y="690" type="line"/>
      <point x="510" y="120" type="line"/>
      <point x="180" y="120" type="line"/>
    </contour>
  </outline>
</glyph>
<glyph name="j" format="2">
  <advance width="980"/>
  <unicode hex="006A"/>
  <outline>
    <contour>
      <point x="718.0" y="996.0" type="curve" smooth="yes"/>
      <point x="718.0" y="1048.98384192"/>
      <point x="674.98384192" y="1092.0"/>
      <point x="622.0" y="1092.0" type="curve" smooth="yes"/>
      <point x="569.01615808" y="1092.0"/>
      <point x="526.0" y="1048.98384192"/>
      <point x="526.0" y="996.0" type="curve" smooth="yes"/>
      <point x="526.0" y="943.01615808"/>
      <point x="569.01615808" y="900.0"/>
      <point x="622.0" y="900.0" type="curve" smooth="yes"/>
      <point x="674.98384192" y="900.0"/>
      <point x="718.0" y="943.01615808"/>
    </contour>
    <contour>
      <point x="152" y="-310" type="line"/>
      <point x="372" y="-310" type="line"/>
      <point x="543.0936562" y="-310.0"/>
      <point x="682.0" y="-171.09365619999997"/>
      <point x="682.0" y="1.8982025386783973e-14" type="curve"/>
      <point x="682" y="780" type="line"/>
      <point x="272" y="780" type="line"/>
      <point x="272" y="660" type="line"/>
      <point x="562" y="660" type="line"/>
      <point x="562" y="0" type="line"/>
      <point x="562.0" y="-104.86385379999999"/>
      <point x="476.8638538" y="-190.0"/>
      <point x="372.0" y="-190.0" type="curve"/>
      <point x="152" y="-190" type="line"/>
    </contour>
  </outline>
</glyph>
<glyph name="k" format="2">
  <advance width="1020"/>
  <unicode hex="006B"/>
  <outline>
    <contour>
      <point x="175" y="0" type="line"/>
      <point x="295" y="0" type="line"/>
      <point x="295" y="345" type="line"/>
      <point x="755" y="0" type="line"/>
      <point x="955" y="0" type="line"/>
      <point x="415" y="405" type="line"/>
      <point x="955" y="810" type="line"/>
      <point x="755" y="810" type="line"/>
      <point x="295" y="465" type="line"/>
      <point x="295" y="1170" type="line"/>
      <point x="175" y="1170" type="line"/>
    </contour>
  </outline>
</glyph>
<glyph name="l" format="2">
  <advance width="980"/>
  <unicode hex="006C"/>
  <outline>
    <contour>
      <point x="150" y="0" type="line"/>
      <point x="850" y="0" type="line"/>
      <point x="850" y="120" type="line"/>
      <point x="590" y="120" type="line"/>
      <point x="590" y="1170" type="line"/>
      <point x="170" y="1170" type="line"/>
      <point x="170" y="1050" type="line"/>
      <point x="470" y="1050" type="line"/>
      <point x="470" y="120" type="line"/>
      <point x="150" y="120" type="line"/>
    </contour>
  </outline>
</glyph>
<glyph name="m" format="2">
  <advance width="1020"/>
  <unicode hex="006D"/>
  <outline>
    <contour>
      <point x="80" y="0" type="line"/>
      <point x="200" y="0" type="line"/>
      <point x="200.0" y="545.4463971208888" type="line"/>
      <point x="200.0" y="592.6273716506712"/>
      <point x="208.58560794130494" y="710.0"/>
      <point x="327.5" y="710.0" type="curve" smooth="yes"/>
      <point x="446.4143920591213" y="710.0"/>
      <point x="455.0" y="592.627371651334"/>
      <point x="455.0" y="545.4463971208888" type="curve"/>
      <point x="455" y="0" type="line"/>
      <point x="575" y="0" type="line"/>
      <point x="575.0" y="545.4463971208888" type="line"/>
      <point x="575.0" y="592.6273716506712"/>
      <point x="583.5856079413049" y="710.0"/>
      <point x="702.5" y="710.0" type="curve" smooth="yes"/>
      <point x="821.4143920591214" y="710.0"/>
      <point x="830.0" y="592.627371651334"/>
      <point x="830.0" y="545.4463971208888" type="curve"/>
      <point x="830" y="0" type="line"/>
      <point x="950" y="0" type="line"/>
      <point x="950.0" y="539.75" type="line"/>
      <point x="950.0" y="782.1970669102188"/>
      <point x="792.5868831403973" y="830.0"/>
      <point x="702.5" y="830.0" type="curve" smooth="yes"/>
      <point x="627.5877588623" y="830.0"/>
      <point x="560.4042638445021" y="796.646123957576"/>
      <point x="515.002555847168" y="743.9786758422852" type="curve"/>
      <point x="469.6008813945995" y="796.6435695008464"/>
      <point x="402.41510971607" y="829.9999999999999"/>
      <point x="327.5" y="830.0" type="curve" smooth="yes"/>
      <point x="280.87713235136" y="830.0"/>
      <point x="237.24791747586522" y="817.0807085702526"/>
      <point x="200" y="794.6290740966797" type="curve"/>
      <point x="200" y="810" type="line"/>
      <point x="80" y="810" type="line"/>
    </contour>
  </outline>
</glyph>
<glyph name="n" format="2">
  <advance width="1020"/>
  <unicode hex="006E"/>
  <outline>
    <contour>
      <point x="128.5" y="0" type="line"/>
      <point x="248.5" y="0" type="line"/>
      <point x="248.5" y="399.75" type="line"/>
      <point x="248.50000000000003" y="653.9228657603818"/>
      <point x="415.498115531504" y="710.0"/>
      <point x="516.0" y="710.0" type="curve" smooth="yes"/>
      <point x="616.5018844684959" y="710.0"/>
      <point x="783.5" y="653.9228657603818"/>
      <point x="783.5" y="399.75" type="curve"/>
      <point x="783.5" y="0" type="line"/>
      <point x="903.5" y="0" type="line"/>
      <point x="903.5" y="399.75" type="line"/>
      <point x="903.5" y="726.0331933854604"/>
      <point x="676.5974834754675" y="830.0"/>
      <point x="516.0" y="830.0" type="curve" smooth="yes"/>
      <point x="412.30719271170994" y="830.0"/>
      <point x="318.07249079804365" y="789.1829588393181"/>
      <point x="248.5" y="722.7418670654297" type="curve"/>
      <point x="248.5" y="810" type="line"/>
      <point x="128.5" y="810" type="line"/>
    </contour>
  </outline>
</glyph>
<glyph name="p" format="2">
  <advance width="980"/>
  <unicode hex="0070"/>
  <outline>
    <contour>
      <point x="110" y="-480" type="line"/>
      <point x="230" y="-480" type="line"/>
      <point x="230" y="108.689697265625" type="line"/>
      <point x="300.0953720534406" y="41.38426493901608"/>
      <point x="395.25291486078135" y="-7.105427357601002e-15"/>
      <point x="499.99999999999994" y="-1.4210854715202004e-14" type="curve" smooth="yes"/>
      <point x="715.2468577999999" y="-5.684341886080802e-14"/>
      <point x="890.0" y="174.7531421999999"/>
      <point x="890.0" y="390.0" type="curve" smooth="yes"/>
      <point x="890.0" y="605.2468578"/>
      <point x="715.2468578" y="780.0"/>
      <point x="500.0" y="780.0" type="curve" smooth="yes"/>
      <point x="395.2529148607814" y="780.0"/>
      <point x="300.09537205344066" y="738.615735060984"/>
      <point x="230" y="671.3124008178711" type="curve"/>
      <point x="230" y="780" type="line"/>
      <point x="110" y="780" type="line"/>
    </contour>
    <contour>
      <point x="770.0" y="390.0" type="curve" smooth="yes"/>
      <point x="770.0" y="240.98294459999994"/>
      <point x="649.0170553999999" y="120.0"/>
      <point x="499.99999999999994" y="120.0" type="curve" smooth="yes"/>
      <point x="350.9829446" y="120.0"/>
      <point x="230.0" y="240.98294460000002"/>
      <point x="230.0" y="390.0" type="curve" smooth="yes"/>
      <point x="230.0" y="539.0170554"/>
      <point x="350.9829446" y="660.0"/>
      <point x="500.0" y="660.0" type="curve" smooth="yes"/>
      <point x="649.0170554" y="660.0"/>
      <point x="770.0" y="539.0170554"/>
    </contour>
  </outline>
</glyph>
<glyph name="r" format="2">
  <advance width="1020"/>
  <unicode hex="0072"/>
  <outline>
    <contour>
      <point x="152.5" y="0" type="line"/>
      <point x="632.5" y="0" type="line"/>
      <point x="632.5" y="120" type="line"/>
      <point x="407.5" y="120" type="line"/>
      <point x="407.5" y="265.82142639160156" type="line"/>
      <point x="407.5" y="474.2952998854532"/>
      <point x="501.62228832738697" y="690.0"/>
      <point x="831.67857" y="690.0" type="curve"/>
      <point x="917.5" y="690" type="line"/>
      <point x="917.5" y="810" type="line"/>
      <point x="831.6785736083984" y="810.0" type="line"/>
      <point x="718.8266221851908" y="810.0"/>
      <point x="547.9020798014184" y="798.3353072491466"/>
      <point x="407.5" y="633.9224090576172" type="curve"/>
      <point x="407.5" y="810" type="line"/>
      <point x="152.5" y="810" type="line"/>
      <point x="152.5" y="690" type="line"/>
      <point x="287.5" y="690" type="line"/>
      <point x="287.5" y="120" type="line"/>
      <point x="152.5" y="120" type="line"/>
    </contour>
  </outline>
</glyph>
<glyph name="s" format="2">
  <advance width="980"/>
  <unicode hex="0073"/>
  <outline>
    <contour>
      <point x="125" y="227.5" type="line"/>
      <point x="125.0" y="101.93933295000005"/>
      <point x="286.3105928" y="2.842170943040401e-14"/>
      <point x="485.0" y="0.0" type="curve" smooth="yes"/>
      <point x="683.6894072" y="-2.842170943040401e-14"/>
      <point x="845.0" y="101.93933294999994"/>
      <point x="845.0" y="227.49999999999994" type="curve"/>
      <point x="845.0" y="336.8141212190664"/>
      <point x="722.5796322758188" y="427.10706706797214"/>
      <point x="559.9806976318359" y="450.04132080078125" type="curve"/>
      <point x="428.92222595214844" y="468.52685546875" type="line"/>
      <point x="340.35696779138084" y="481.01880756559575"/>
      <point x="275.0" y="517.7037387538096"/>
      <point x="275.0" y="562.5" type="curve"/>
      <point x="275.0" y="616.31171445"/>
      <point x="369.0978458" y="660.0"/>
      <point x="485.0" y="660.0" type="curve" smooth="yes"/>
      <point x="600.9021542" y="660.0"/>
      <point x="695.0" y="616.31171445"/>
      <point x="695.0" y="562.5" type="curve"/>
      <point x="830" y="562.5" type="line"/>
      <point x="830.0" y="682.54151685"/>
      <point x="675.4106819" y="780.0"/>
      <point x="485.0" y="780.0" type="curve" smooth="yes"/>
      <point x="294.5893181" y="780.0"/>
      <point x="140.0" y="682.54151685"/>
      <point x="140.0" y="562.5" type="curve"/>
      <point x="140.0" y="458.0276278024113"/>
      <point x="257.243268598286" y="371.77413237970245"/>
      <point x="412.9791564941406" y="349.76448822021484" type="curve"/>
      <point x="544.0328140258789" y="331.24310302734375" type="line"/>
      <point x="639.4689396222009" y="317.7554272403736"/>
      <point x="710.0" y="277.07253934842055"/>
      <point x="710.0000000000001" y="227.5" type="curve"/>
      <point x="710.0" y="168.16913534999998"/>
      <point x="609.1808795" y="119.99999999999999"/>
      <point x="485.0" y="120.0" type="curve" smooth="yes"/>
      <point x="360.8191205" y="120.00000000000001"/>
      <point x="260.0" y="168.16913535000003"/>
      <point x="260.0" y="227.50000000000003" type="curve"/>
    </contour>
  </outline>
</glyph>
<glyph name="t" format="2">
  <advance width="980"/>
  <unicode hex="0074"/>
  <outline>
    <contour>
      <point x="315" y="310" type="line"/>
      <point x="315.0" y="138.90634380000003"/>
      <point x="453.90634379999995" y="0.0"/>
      <point x="625.0" y="0.0" type="curve"/>
      <point x="825" y="0" type="line"/>
      <point x="825" y="120" type="line"/>
      <point x="625" y="120" type="line"/>
      <point x="520.1361462" y="120.0"/>
      <point x="435.0" y="205.13614620000004"/>
      <point x="435.0" y="310.0" type="curve"/>
      <point x="435" y="660" type="line"/>
      <point x="825" y="660" type="line"/>
      <point x="825" y="780" type="line"/>
      <point x="435" y="780" type="line"/>
      <point x="435" y="1000" type="line"/>
      <point x="315" y="1000" type="line"/>
      <point x="315" y="780" type="line"/>
      <point x="105" y="780" type="line"/>
      <point x="105" y="660" type="line"/>
      <point x="315" y="660" type="line"/>
    </contour>
  </outline>
</glyph>
<glyph name="v" format="2">
  <advance width="1020"/>
  <unicode hex="0076"/>
  <outline>
    <contour>
      <point x="444.28707122802734" y="0" type="line"/>
      <point x="575.7129287719727" y="0" type="line"/>
      <point x="937.5" y="810" type="line"/>
      <point x="806.0741500854492" y="810" type="line"/>
      <point x="510" y="147.12374877929688" type="line"/>
      <point x="213.92584991455078" y="810" type="line"/>
      <point x="82.5" y="810" type="line"/>
    </contour>
  </outline>
</glyph>
<glyph name="w" format="2">
  <advance width="1020"/>
  <unicode hex="0077"/>
  <outline>
    <contour>
      <point x="246.58490753173828" y="0" type="line"/>
      <point x="370.2452697753906" y="0" type="line"/>
      <point x="510" y="561.5565795898438" type="line"/>
      <point x="649.7547302246094" y="0" type="line"/>
      <point x="773.4150924682617" y="0" type="line"/>
      <point x="975" y="810" type="line"/>
      <point x="851.3396377563477" y="810" type="line"/>
      <point x="711.5849075317383" y="248.44342803955078" type="line"/>
      <point x="571.8301773071289" y="810" type="line"/>
      <point x="448.1698226928711" y="810" type="line"/>
      <point x="308.4150924682617" y="248.44342803955078" type="line"/>
      <point x="168.66036224365234" y="810" type="line"/>
      <point x="45" y="810" type="line"/>
    </contour>
  </outline>
</glyph>
<glyph name="x" format="2">
  <advance width="1020"/>
  <unicode hex="0078"/>
  <outline>
    <contour>
      <point x="90" y="0" type="line"/>
      <point x="246.96929931640625" y="0" type="line"/>
      <point x="510" y="311.9257583618164" type="line"/>
      <point x="773.0307006835938" y="0" type="line"/>
      <point x="930" y="0" type="line"/>
      <point x="588.4846496582031" y="405" type="line"/>
      <point x="930" y="810" type="line"/>
      <point x="773.0307006835938" y="810" type="line"/>
      <point x="510" y="498.0742416381836" type="line"/>
      <point x="246.96929931640625" y="810" type="line"/>
      <point x="90" y="810" type="line"/>
      <point x="431.5153503417969" y="405" type="line"/>
    </contour>
  </outline>
</glyph>
<glyph name="y" format="2">
  <advance width="1020"/>
  <unicode hex="0079"/>
  <outline>
    <contour>
      <point x="232.59210968017578" y="-450" type="line"/>
      <point x="364.4210205078125" y="-450" type="line"/>
      <point x="575.9144515991211" y="15" type="line"/>
      <point x="575.9144592285156" y="15" type="line"/>
      <point x="575.9144592285156" y="15.000007629394531" type="line"/>
      <point x="937.5" y="810" type="line"/>
      <point x="805.6710891723633" y="810" type="line"/>
      <point x="510" y="159.92281341552734" type="line"/>
      <point x="214.32891082763672" y="810" type="line"/>
      <point x="82.5" y="810" type="line"/>
      <point x="444.0855407714844" y="15" type="line"/>
    </contour>
  </outline>
</glyph>
<glyph name="z" format="2">
  <advance width="1020"/>
  <unicode hex="007A"/>
  <outline>
    <contour>
      <point x="155" y="0" type="line"/>
      <point x="860" y="0" type="line"/>
      <point x="860" y="120" type="line"/>
      <point x="320.26209259033203" y="120" type="line"/>
      <point x="860" y="690" type="line"/>
      <point x="860" y="810" type="line"/>
      <point x="155" y="810" type="line"/>
      <point x="155" y="690" type="line"/>
      <point x="694.737907409668" y="690" type="line"/>
      <point x="155" y="120" type="line"/>
    </contour>
  </outline>
</glyph>
<glyph name="braceleft" format="2">
  <advance width="1020"/>
  <unicode hex="007B"/>
  <outline>
    <contour>
      <point x="450.0" y="222.75" type="line"/>
      <point x="450.0" y="-48.272106716915346"/>
      <point x="633.2239401707387" y="-59.99999999999999"/>
      <point x="732.75" y="-60.00000000000001" type="curve"/>
      <point x="810" y="-60" type="line"/>
      <point x="810" y="60" type="line"/>
      <point x="724.8739671683776" y="59.99999999999999" type="line"/>
      <point x="576.4649352531475" y="60.000000000000014"/>
      <point x="570.0" y="152.00017622464497"/>
      <point x="570.0" y="222.75" type="curve"/>
      <point x="570.0" y="362.25" type="line"/>
      <point x="570.0" y="434.7346782026456"/>
      <point x="568.4262889953816" y="514.6594792693778"/>
      <point x="488.6590042114258" y="584.9996032714844" type="curve"/>
      <point x="568.4262891610286" y="655.3409966396719"/>
      <point x="570.0" y="735.2649269168523"/>
      <point x="570.0" y="807.75" type="curve"/>
      <point x="570.0" y="955.1260328316223" type="line"/>
      <point x="570.0" y="1103.5350647468524"/>
      <point x="662.000176224645" y="1110.0"/>
      <point x="732.75" y="1110.0" type="curve"/>
      <point x="810" y="1110" type="line"/>
      <point x="810" y="1230" type="line"/>
      <point x="732.75" y="1230.0" type="line"/>
      <point x="461.72789328308465" y="1230.0"/>
      <point x="450.0" y="1046.7760598292614"/>
      <point x="450.0" y="947.25" type="curve"/>
      <point x="450.0" y="799.8739671683776" type="line"/>
      <point x="450.0" y="651.4649352531475"/>
      <point x="357.999823775355" y="645.0"/>
      <point x="287.25" y="645.0" type="curve"/>
      <point x="210" y="645" type="line"/>
      <point x="210" y="525" type="line"/>
      <point x="287.25" y="525.0" type="line"/>
      <point x="358.3808741056224" y="525.0"/>
      <point x="450.0" y="518.2924489935434"/>
      <point x="450.0" y="370.12603283162235" type="curve"/>
    </contour>
  </outline>
</glyph>
<glyph name="bar" format="2">
  <advance width="1020"/>
  <unicode hex="007C"/>
  <outline>
    <contour>
      <point x="450.0" y="-120.0" type="line"/>
      <point x="570.0" y="-120.0" type="line"/>
      <point x="570.0" y="1290.0" type="line"/>
      <point x="450.0" y="1290.0" type="line"/>
    </contour>
  </outline>
</glyph>
<glyph name="braceright" format="2">
  <advance width="980"/>
  <unicode hex="007D"/>
  <outline>
    <contour>
      <point x="310" y="-120" type="line"/>
      <point x="442.4596048000001" y="-120.0"/>
      <point x="550.0" y="-12.459604799999966"/>
      <point x="550.0" y="120.0" type="curve"/>
      <point x="550" y="405" type="line"/>
      <point x="550.0" y="471.22980240000004"/>
      <point x="603.7701976" y="525.0"/>
      <point x="670.0" y="525.0" type="curve"/>
      <point x="790" y="525" type="line"/>
      <point x="790" y="645" type="line"/>
      <point x="670" y="645" type="line"/>
      <point x="603.7701976" y="645.0"/>
      <point x="550.0" y="698.7701976"/>
      <point x="550.0" y="765.0" type="curve"/>
      <point x="550" y="1050" type="line"/>
      <point x="550.0" y="1182.4596048"/>
      <point x="442.45960479999997" y="1290.0"/>
      <point x="310.0" y="1290.0" type="curve"/>
      <point x="190" y="1290" type="line"/>
      <point x="190" y="1170" type="line"/>
      <point x="310" y="1170" type="line"/>
      <point x="376.2298024" y="1170.0"/>
      <point x="430.0" y="1116.2298024"/>
      <point x="430.0" y="1050.0" type="curve"/>
      <point x="430" y="765" type="line"/>
      <point x="430.0" y="693.3402810204336"/>
      <point x="461.4742159018474" y="628.9737524889324"/>
      <point x="511.3409957885742" y="584.9996032714844" type="curve"/>
      <point x="461.4742159018474" y="541.0262475110677"/>
      <point x="430.0" y="476.65971897956643"/>
      <point x="429.99999999999994" y="405.0" type="curve"/>
      <point x="430" y="120" type="line"/>
      <point x="430.0" y="53.77019759999996"/>
      <point x="376.22980240000004" y="0.0"/>
      <point x="310.0" y="0.0" type="curve"/>
      <point x="190" y="0" type="line"/>
      <point x="190" y="-120" type="line"/>
    </contour>
  </outline>
</glyph>
<glyph name="tilde" format="2">
  <advance width="1020"/>
  <unicode hex="007E"/>
  <outline>
    <contour>
      <point x="605.9703" y="503.87355" type="curve"/>
      <point x="474.02970123291016" y="580.0494995117188" type="line"/>
      <point x="436.62996" y="601.64224"/>
      <point x="394.20529" y="613.0099"/>
      <point x="351.0198" y="613.0099" type="curve"/>
      <point x="215.23778" y="613.0099"/>
      <point x="105.0" y="502.77212"/>
      <point x="105.0" y="366.9901" type="curve"/>
      <point x="225" y="366.99009704589844" type="line"/>
      <point x="225.0" y="436.54232"/>
      <point x="281.46758" y="493.0099"/>
      <point x="351.0198" y="493.0099" type="curve"/>
      <point x="373.14089" y="493.0099"/>
      <point x="394.87227" y="487.187"/>
      <point x="414.0297" y="476.12645" type="curve"/>
      <point x="545.9702987670898" y="399.95050048828125" type="line"/>
      <point x="583.37004" y="378.35776"/>
      <point x="625.79471" y="366.9901"/>
      <point x="668.9802" y="366.9901" type="curve"/>
      <point x="804.76222" y="366.9901"/>
      <point x="915.0" y="477.22788"/>
      <point x="915.0" y="613.0099" type="curve"/>
      <point x="795" y="613.0099029541016" type="line"/>
      <point x="795.0" y="543.45768"/>
      <point x="738.53242" y="486.9901"/>
      <point x="668.9802" y="486.9901" type="curve"/>
      <point x="646.85911" y="486.9901"/>
      <point x="625.12773" y="492.813"/>
    </contour>
  </outline>
</glyph>
<glyph name="invertedexclam" format="2">
  <advance width="980"/>
  <unicode hex="00A1"/>
  <outline>
    <contour>
      <point x="370.0" y="660.0" type="curve" smooth="yes"/>
      <point x="369.99999999999994" y="593.7701976"/>
      <point x="423.77019759999996" y="540.0"/>
      <point x="489.99999999999994" y="540.0" type="curve" smooth="yes"/>
      <point x="556.2298023999999" y="540.0"/>
      <point x="610.0" y="593.7701976"/>
      <point x="610.0" y="660.0" type="curve" smooth="yes"/>
      <point x="610.0" y="726.2298024000002"/>
      <point x="556.2298024" y="780.0"/>
      <point x="490.0" y="780.0" type="curve" smooth="yes"/>
      <point x="423.7701976" y="780.0"/>
      <point x="370.0" y="726.2298024000002"/>
    </contour>
    <contour>
      <point x="550.0" y="444.0" type="line"/>
      <point x="429.99999999999994" y="444.0" type="line"/>
      <point x="429.99999999999983" y="-390.0" type="line"/>
      <point x="549.9999999999998" y="-390.0" type="line"/>
    </contour>
  </outline>
</glyph>
<glyph name="cent" format="2">
  <advance width="1020"/>
  <unicode hex="00A2"/>
  <outline>
    <contour>
      <point x="475.8104934692383" y="-120" type="line"/>
      <point x="571.8104934692383" y="-120" type="line"/>
      <point x="571.8104934692383" y="-12.273666381835938" type="line"/>
      <point x="729.7629515764565" y="5.722338101010401"/>
      <point x="861.2323559936879" y="111.49247249214588"/>
      <point x="916.1895065307616" y="254.99999999999994" type="curve"/>
      <point x="783.6118850708008" y="255" type="line"/>
      <point x="739.3492919528045" y="178.5503218047807"/>
      <point x="662.3276015104597" y="123.40859709668231"/>
      <point x="571.8104934692383" y="108.83914947509766" type="curve"/>
      <point x="571.8104934692383" y="701.1633453369141" type="line"/>
      <point x="662.3261951314273" y="686.5916354952535"/>
      <point x="739.3470819230464" y="631.4508174306593"/>
      <point x="783.6099319458007" y="555.0" type="curve"/>
      <point x="916.1817626953125" y="555" type="line"/>
      <point x="861.220004423426" y="698.515616049276"/>
      <point x="729.7555627264517" y="804.278312999944"/>
      <point x="571.8104934692383" y="822.2765502929688" type="curve"/>
      <point x="571.8104934692383" y="930" type="line"/>
      <point x="475.8104934692383" y="930" type="line"/>
      <point x="475.8104934692383" y="822.2743759155273" type="line"/>
      <point x="266.57499644069856" y="798.4324184990547"/>
      <point x="103.8104934692384" y="620.5740661387573"/>
      <point x="103.81049346923842" y="404.9999999999999" type="curve" smooth="yes"/>
      <point x="103.81049346923828" y="189.4259338612428"/>
      <point x="266.5749964406984" y="11.567581500945238"/>
      <point x="475.8104934692383" y="-12.273628234863281" type="curve"/>
    </contour>
    <contour>
      <point x="223.81049346923828" y="405.0" type="curve" smooth="yes"/>
      <point x="223.81049346923828" y="554.238262940016"/>
      <point x="333.01864997273606" y="678.1708634182276"/>
      <point x="475.8104934692383" y="701.1705932617188" type="curve"/>
      <point x="475.8104934692383" y="108.83553314208984" type="line"/>
      <point x="333.018649972736" y="131.82913658177253"/>
      <point x="223.81049346923828" y="255.76173705998403"/>
    </contour>
  </outline>
</glyph>
<glyph name="pound" format="2">
  <advance width="980"/>
  <unicode hex="00A3"/>
  <outline>
    <contour>
      <point x="100" y="0" type="line"/>
      <point x="880" y="0" type="line"/>
      <point x="880" y="120" type="line"/>
      <point x="340" y="120" type="line"/>
      <point x="340" y="477" type="line"/>
      <point x="700" y="477" type="line"/>
      <point x="700" y="573" type="line"/>
      <point x="340" y="573" type="line"/>
      <point x="340" y="840" type="line"/>
      <point x="340.0" y="955.9021542"/>
      <point x="434.0978458" y="1050.0"/>
      <point x="550.0" y="1050.0" type="curve" smooth="yes"/>
      <point x="665.9021542" y="1050.0"/>
      <point x="760.0" y="955.9021542"/>
      <point x="760.0" y="840.0" type="curve"/>
      <point x="880" y="840" type="line"/>
      <point x="880.0" y="1022.1319566"/>
      <point x="732.1319566" y="1170.0"/>
      <point x="550.0" y="1170.0" type="curve" smooth="yes"/>
      <point x="367.86804340000003" y="1170.0"/>
      <point x="220.0" y="1022.1319566000001"/>
      <point x="220.0" y="840.0" type="curve"/>
      <point x="220" y="573" type="line"/>
      <point x="100" y="573" type="line"/>
      <point x="100" y="477" type="line"/>
      <point x="220" y="477" type="line"/>
      <point x="220" y="120" type="line"/>
      <point x="100" y="120" type="line"/>
    </contour>
  </outline>
</glyph>
<glyph name="currency" format="2">
  <advance width="1020"/>
  <unicode hex="00A4"/>
  <outline>
    <contour>
      <point x="824.9999999999999" y="585.0" type="curve" smooth="yes"/>
      <point x="825.0" y="650.25998235802"/>
      <point x="805.1116240567194" y="710.9114400416612"/>
      <point x="771.0706481933594" y="761.2178268432617" type="curve"/>
      <point x="966.083869934082" y="956.2310562133789" type="line"/>
      <point x="881.2310562133789" y="1041.083869934082" type="line"/>
      <point x="686.2122192382812" y="846.0650405883789" type="line"/>
      <point x="635.9062695988792" y="880.1133194710703"/>
      <point x="575.25720070634" y="900.0"/>
      <point x="510.00000000000006" y="899.9999999999999" type="curve" smooth="yes"/>
      <point x="444.74036534844" y="900.0"/>
      <point x="384.08920626277074" y="880.1118359874654"/>
      <point x="333.7821731567383" y="846.0706481933594" type="curve"/>
      <point x="138.7689437866211" y="1041.083869934082" type="line"/>
      <point x="53.91613006591797" y="956.2310562133789" type="line"/>
      <point x="248.9349594116211" y="761.2122192382812" type="line"/>
      <point x="214.89049531284496" y="710.91790307159"/>
      <point x="194.99999999999997" y="650.26345942262"/>
      <point x="195.0" y="585.0" type="curve" smooth="yes"/>
      <point x="195.0" y="519.74001764198"/>
      <point x="214.8883759432806" y="459.0885599583388"/>
      <point x="248.92935180664062" y="408.7821731567383" type="curve"/>
      <point x="53.91613006591797" y="213.7689437866211" type="line"/>
      <point x="138.7689437866211" y="128.91613006591797" type="line"/>
      <point x="333.78778076171875" y="323.9349594116211" type="line"/>
      <point x="384.09373040112075" y="289.8866805289296"/>
      <point x="444.74279929366" y="270.0"/>
      <point x="510.0" y="270.0" type="curve" smooth="yes"/>
      <point x="575.25963465156" y="270.0"/>
      <point x="635.9107937372293" y="289.8881640125346"/>
      <point x="686.2178268432617" y="323.9293518066406" type="curve"/>
      <point x="881.2310562133789" y="128.91613006591797" type="line"/>
      <point x="966.083869934082" y="213.7689437866211" type="line"/>
      <point x="771.0650405883789" y="408.78778076171875" type="line"/>
      <point x="805.109504687155" y="459.08209692841"/>
      <point x="825.0" y="519.73654057738"/>
    </contour>
    <contour>
      <point x="705.0" y="585.0" type="curve" smooth="yes"/>
      <point x="705.0" y="477.37657"/>
      <point x="617.62343" y="390.0"/>
      <point x="510.0" y="390.0" type="curve" smooth="yes"/>
      <point x="402.37657" y="390.0"/>
      <point x="315.0" y="477.37657"/>
      <point x="315.0" y="585.0" type="curve" smooth="yes"/>
      <point x="315.0" y="692.62343"/>
      <point x="402.37657" y="780.0"/>
      <point x="510.0" y="780.0" type="curve" smooth="yes"/>
      <point x="617.62343" y="780.0"/>
      <point x="705.0" y="692.62343"/>
    </contour>
  </outline>
</glyph>
<glyph name="yen" format="2">
  <advance width="1020"/>
  <unicode hex="00A5"/>
  <outline>
    <contour>
      <point x="105" y="264" type="line"/>
      <point x="450" y="264" type="line"/>
      <point x="450" y="0" type="line"/>
      <point x="570" y="0" type="line"/>
      <point x="570" y="264" type="line"/>
      <point x="915" y="264" type="line"/>
      <point x="915" y="360" type="line"/>
      <point x="570" y="360" type="line"/>
      <point x="570" y="480" type="line"/>
      <point x="915" y="480" type="line"/>
      <point x="915" y="576" type="line"/>
      <point x="622.1739120483398" y="576" type="line"/>
      <point x="945" y="1170" type="line"/>
      <point x="808.4228820800781" y="1170" type="line"/>
      <point x="510" y="620.9018936157227" type="line"/>
      <point x="211.57711791992188" y="1170" type="line"/>
      <point x="75" y="1170" type="line"/>
      <point x="397.82608795166016" y="576" type="line"/>
      <point x="105" y="576" type="line"/>
      <point x="105" y="480" type="line"/>
      <point x="450" y="480" type="line"/>
      <point x="450" y="360" type="line"/>
      <point x="105" y="360" type="line"/>
    </contour>
  </outline>
</glyph>
<glyph name="brokenbar" format="2">
  <advance width="980"/>
  <unicode hex="00A6"/>
  <outline>
    <contour>
      <point x="430.0" y="645.0" type="line"/>
      <point x="550.0" y="645.0" type="line"/>
      <point x="550.0" y="1290.0" type="line"/>
      <point x="430.0" y="1290.0" type="line"/>
    </contour>
    <contour>
      <point x="430.0" y="-120" type="line"/>
      <point x="550.0" y="-120" type="line"/>
      <point x="550.0" y="525.0" type="line"/>
      <point x="430.0" y="525.0" type="line"/>
    </contour>
  </outline>
</glyph>
<glyph name="section" format="2">
  <advance width="980"/>
  <unicode hex="00A7"/>
  <outline>
    <contour>
      <point x="490.0" y="354.0" type="curve" smooth="yes"/>
      <point x="467.74805800580606" y="354.0"/>
      <point x="446.3751652549177" y="357.0032599788022"/>
      <point x="426.4934310913086" y="362.54027557373047" type="curve"/>
      <point x="356.3338563032012" y="385.5189297342655"/>
      <point x="303.3588244541192" y="434.63179433453536"/>
      <point x="298.38272857666016" y="496.49585723876953" type="curve"/>
      <point x="298.3072738647461" y="497.6717529296875" type="line"/>
      <point x="298.1030960083008" y="501.25958251953125" type="line"/>
      <point x="298.0303497314453" y="504.29027557373047" type="line"/>
      <point x="298" y="506" type="line"/>
      <point x="298.0" y="589.89108304"/>
      <point x="384.03231616000005" y="658.0"/>
      <point x="490.0" y="658.0" type="curve" smooth="yes"/>
      <point x="514.6193660188634" y="658.0"/>
      <point x="538.1626853964058" y="654.3237010465402"/>
      <point x="559.801025390625" y="647.6187438964844" type="curve"/>
      <point x="623.8365600973584" y="626.374639593674"/>
      <point x="671.7612523026968" y="580.6542266746452"/>
      <point x="680.5505523681641" y="524.6331024169922" type="curve"/>
      <point x="680.5605697631836" y="524.5639038085938" type="line"/>
      <point x="681.1767730712891" y="520.0115356445312" type="line"/>
      <point x="681.3160247802734" y="518.677848815918" type="line"/>
      <point x="681.6322479248047" y="515.2707672119141" type="line"/>
      <point x="681.7599411010742" y="513.2806625366211" type="line"/>
      <point x="681.9048843383789" y="510.4081039428711" type="line"/>
      <point x="681.9832153320312" y="507.1446075439453" type="line"/>
      <point x="682" y="506" type="line"/>
      <point x="682.0" y="422.10891695999993"/>
      <point x="595.96768384" y="354.0"/>
    </contour>
    <contour>
      <point x="186" y="82" type="line"/>
      <point x="186.0" y="-50.459604799999966"/>
      <point x="322.21783392" y="-158.0"/>
      <point x="489.99999999999994" y="-158.0" type="curve" smooth="yes"/>
      <point x="657.7821660799999" y="-158.0"/>
      <point x="794.0" y="-50.45960480000008"/>
      <point x="794.0" y="82.0" type="curve"/>
      <point x="794.0" y="164.13156362517043"/>
      <point x="741.0236324413777" y="234.7469487558492"/>
      <point x="661.4732513427734" y="278.7885208129883" type="curve"/>
      <point x="746.1072022232804" y="327.44933929518777"/>
      <point x="801.9999999999999" y="411.0791646198297"/>
      <point x="802.0" y="505.99999999999994" type="curve"/>
      <point x="802.0" y="507.78223515194367"/>
      <point x="801.9802956208165" y="509.5604897848876"/>
      <point x="801.9410629272461" y="511.28826904296875" type="curve"/>
      <point x="802.0" y="508.0376612042881"/>
      <point x="801.9739603948095" y="510.0692255185663"/>
      <point x="801.9221649169922" y="511.87398529052734" type="curve"/>
      <point x="798.9682970445051" y="628.3407232444183"/>
      <point x="712.2383708224252" y="726.6744113085234"/>
      <point x="592.3508224487305" y="762.9904403686523" type="curve"/>
      <point x="592.1900863647461" y="763.0446929931641" type="line"/>
      <point x="418.97666931152344" y="820.1990432739258" type="line"/>
      <point x="357.68045924910393" y="840.424639435079"/>
      <point x="314.0" y="880.9971652724616"/>
      <point x="314.0" y="930.0000000000001" type="curve"/>
      <point x="314.0" y="996.2298023999999"/>
      <point x="392.86295648" y="1050.0"/>
      <point x="490.0" y="1050.0" type="curve" smooth="yes"/>
      <point x="587.13704352" y="1050.0"/>
      <point x="666.0" y="996.2298023999999"/>
      <point x="666.0" y="930.0" type="curve"/>
      <point x="786" y="930" type="line"/>
      <point x="786.0" y="1062.4596047999999"/>
      <point x="653.3668459200001" y="1170.0"/>
      <point x="490.0" y="1170.0" type="curve" smooth="yes"/>
      <point x="326.63315408" y="1170.0"/>
      <point x="194.0" y="1062.4596047999999"/>
      <point x="194.0" y="930.0" type="curve"/>
      <point x="194.0" y="848.6699288485225"/>
      <point x="244.58966029084823" y="778.5874485499552"/>
      <point x="320.78954315185547" y="734.4962539672852" type="curve"/>
      <point x="234.8904340762549" y="686.0358845731587"/>
      <point x="178.00000000000003" y="601.7642145145721"/>
      <point x="178.0" y="505.9999999999999" type="curve"/>
      <point x="178.0" y="504.21881569425443"/>
      <point x="178.01968114973766" y="502.4416072148842"/>
      <point x="178.05886840820312" y="500.71375274658203" type="curve"/>
      <point x="178.0" y="503.95443319524566"/>
      <point x="178.02623048800348" y="501.9149863833238"/>
      <point x="178.07840728759766" y="500.1082458496094" type="curve"/>
      <point x="181.05151868139686" y="383.3067666547612"/>
      <point x="268.27737878441064" y="284.7482381545152"/>
      <point x="388.7020797729492" y="248.68975830078125" type="curve"/>
      <point x="389.03892517089844" y="248.57984924316406" type="line"/>
      <point x="560.0117340087891" y="192.98906707763672" type="line"/>
      <point x="625.8619534300086" y="171.57826282048404"/>
      <point x="674.0" y="132.06780995013037"/>
      <point x="674.0" y="82.0" type="curve"/>
      <point x="674.0" y="15.770197599999904"/>
      <point x="591.55236368" y="-38.0"/>
      <point x="490.0" y="-38.0" type="curve" smooth="yes"/>
      <point x="388.44763632" y="-38.0"/>
      <point x="306.0" y="15.770197600000017"/>
      <point x="306.0" y="82.0" type="curve"/>
    </contour>
  </outline>
</glyph>
<glyph name="diaeresis" format="2">
  <advance width="980"/>
  <unicode hex="00A8"/>
  <outline>
    <contour>
      <point x="414.3" y="1106.8" type="curve" smooth="yes"/>
      <point x="414.3" y="1149.187073536"/>
      <point x="379.887073536" y="1183.6"/>
      <point x="337.5" y="1183.6" type="curve" smooth="yes"/>
      <point x="295.112926464" y="1183.6"/>
      <point x="260.7" y="1149.187073536"/>
      <point x="260.7" y="1106.8" type="curve" smooth="yes"/>
      <point x="260.7" y="1064.412926464"/>
      <point x="295.112926464" y="1030.0"/>
      <point x="337.5" y="1030.0" type="curve" smooth="yes"/>
      <point x="379.887073536" y="1030.0"/>
      <point x="414.3" y="1064.412926464"/>
    </contour>
    <contour>
      <point x="719.3" y="1106.8" type="curve" smooth="yes"/>
      <point x="719.3" y="1149.187073536"/>
      <point x="684.887073536" y="1183.6"/>
      <point x="642.5" y="1183.6" type="curve" smooth="yes"/>
      <point x="600.112926464" y="1183.6"/>
      <point x="565.7" y="1149.187073536"/>
      <point x="565.7" y="1106.8" type="curve" smooth="yes"/>
      <point x="565.7" y="1064.412926464"/>
      <point x="600.112926464" y="1030.0"/>
      <point x="642.5" y="1030.0" type="curve" smooth="yes"/>
      <point x="684.887073536" y="1030.0"/>
      <point x="719.3" y="1064.412926464"/>
    </contour>
  </outline>
</glyph>
<glyph name="copyright" format="2">
  <advance width="980"/>
  <unicode hex="00A9"/>
  <outline>
    <contour>
      <point x="880.0" y="585.0" type="curve" smooth="yes"/>
      <point x="880.0" y="800.2468578"/>
      <point x="705.2468578" y="975.0"/>
      <point x="490.0" y="975.0" type="curve" smooth="yes"/>
      <point x="274.7531422" y="975.0"/>
      <point x="100.0" y="800.2468578"/>
      <point x="100.0" y="585.0" type="curve" smooth="yes"/>
      <point x="100.0" y="369.75314220000007"/>
      <point x="274.75314219999996" y="195.00000000000006"/>
      <point x="489.99999999999994" y="195.00000000000006" type="curve" smooth="yes"/>
      <point x="705.2468577999999" y="195.0"/>
      <point x="880.0" y="369.75314219999996"/>
    </contour>
    <contour>
      <point x="805.0" y="585.0" type="curve" smooth="yes"/>
      <point x="805.0" y="411.1467687"/>
      <point x="663.8532313" y="270.0"/>
      <point x="489.99999999999994" y="270.00000000000006" type="curve" smooth="yes"/>
      <point x="316.14676869999994" y="270.00000000000006"/>
      <point x="175.0" y="411.14676870000005"/>
      <point x="175.0" y="585.0" type="curve" smooth="yes"/>
      <point x="175.0" y="758.8532313000001"/>
      <point x="316.14676870000005" y="900.0"/>
      <point x="490.0" y="900.0" type="curve" smooth="yes"/>
      <point x="663.8532313000001" y="900.0"/>
      <point x="805.0" y="758.8532313000001"/>
    </contour>
    <contour>
      <point x="490.0" y="480.00000000000006" type="curve" smooth="yes"/>
      <point x="432.0489229" y="480.00000000000006"/>
      <point x="385.0" y="527.0489229"/>
      <point x="385.0" y="585.0" type="curve" smooth="yes"/>
      <point x="385.0" y="642.9510771"/>
      <point x="432.0489229" y="690.0"/>
      <point x="490.0" y="690.0" type="curve" smooth="yes"/>
      <point x="526.3724719821212" y="690.0"/>
      <point x="558.4502232020862" y="671.4658660748255"/>
      <point x="577.2960548400879" y="643.3333320617676" type="curve"/>
      <point x="676.1073722839355" y="643.3333320617676" type="line"/>
      <point x="651.2836218082596" y="722.5032381387705"/>
      <point x="577.3033721596777" y="780.0"/>
      <point x="489.99999999999994" y="780.0" type="curve" smooth="yes"/>
      <point x="382.3765711" y="780.0"/>
      <point x="295.0" y="692.6234289000001"/>
      <point x="295.0" y="585.0" type="curve" smooth="yes"/>
      <point x="295.0" y="477.37657110000004"/>
      <point x="382.3765711" y="390.0"/>
      <point x="490.0" y="390.0" type="curve" smooth="yes"/>
      <point x="577.3019730551019" y="390.0"/>
      <point x="651.2812506225287" y="447.49491901516234"/>
      <point x="676.1062507629395" y="526.6666679382324" type="curve"/>
      <point x="577.2920150756836" y="526.6666679382324" type="line"/>
      <point x="558.4457256384237" y="498.5315353909557"/>
      <point x="526.3699221347288" y="480.00000000000006"/>
    </contour>
  </outline>
</glyph>
<glyph name="ordinalfeminine" format="2">
  <advance width="1020"/>
  <unicode hex="00AA"/>
  <outline>
    <contour>
      <point x="495.0" y="893.80205" type="curve"/>
      <point x="627.7147827148438" y="893.8020477294922" type="line"/>
      <point x="627.75" y="844.55132"/>
      <point x="565.08119" y="803.5641"/>
      <point x="487.5" y="803.5641" type="curve"/>
      <point x="434.7603" y="803.5641"/>
      <point x="392.25" y="820.10934"/>
      <point x="392.25" y="849.17308" type="curve"/>
      <point x="392.25" y="883.35499"/>
      <point x="438.12277" y="893.80205"/>
    </contour>
    <contour>
      <point x="290.25" y="531.27839" type="line"/>
      <point x="729.75" y="531.27839" type="line"/>
      <point x="729.75" y="605.5641" type="line"/>
      <point x="290.25" y="605.5641" type="line"/>
    </contour>
    <contour>
      <point x="627.75" y="712.2820510864258" type="line"/>
      <point x="729.75" y="712.2820510864258" type="line"/>
      <point x="729.75" y="992.8910293579102" type="line"/>
      <point x="729.75" y="1096.57955"/>
      <point x="634.25571" y="1170.0"/>
      <point x="516.35897" y="1170.0" type="curve"/>
      <point x="397.3024" y="1170.0"/>
      <point x="300.96795" y="1097.22673"/>
      <point x="300.96795" y="1007.89103" type="curve"/>
      <point x="402.9679489135742" y="1007.8910293579102" type="line"/>
      <point x="402.96795" y="1040.95749"/>
      <point x="453.57173" y="1068.0"/>
      <point x="516.35897" y="1068.0" type="curve"/>
      <point x="577.92675" y="1068.0"/>
      <point x="627.75" y="1040.29195"/>
      <point x="627.75" y="992.89103" type="curve"/>
      <point x="627.75" y="986.2820510864258" type="line"/>
      <point x="495" y="986.2820510864258" type="line"/>
      <point x="381.82827" y="986.28205"/>
      <point x="290.25" y="935.93338"/>
      <point x="290.25" y="849.17308" type="curve"/>
      <point x="290.25" y="763.83983"/>
      <point x="378.49169" y="701.5641"/>
      <point x="487.5" y="701.5641" type="curve"/>
      <point x="539.78261910771" y="701.5641"/>
      <point x="588.1792858488175" y="714.7907462934758"/>
      <point x="627.75" y="737.2710266113281" type="curve"/>
    </contour>
  </outline>
</glyph>
<glyph name="angledblleft" format="2">
  <advance width="1020"/>
  <unicode hex="00AB"/>
  <outline>
    <contour>
      <point x="830" y="220" type="line"/>
      <point x="598.1665115356445" y="490" type="line"/>
      <point x="830" y="760" type="line"/>
      <point x="671.8334884643555" y="760" type="line"/>
      <point x="440" y="490" type="line"/>
      <point x="671.8334884643555" y="220" type="line"/>
    </contour>
    <contour>
      <point x="550" y="220" type="line"/>
      <point x="318.16651153564453" y="490" type="line"/>
      <point x="550" y="760" type="line"/>
      <point x="391.83348846435547" y="760" type="line"/>
      <point x="160" y="490" type="line"/>
      <point x="391.83348846435547" y="220" type="line"/>
    </contour>
  </outline>
</glyph>
<glyph name="logicalnot" format="2">
  <advance width="980"/>
  <unicode hex="00AC"/>
  <outline>
    <contour>
      <point x="100" y="430" type="line"/>
      <point x="760" y="430" type="line"/>
      <point x="760" y="0" type="line"/>
      <point x="880" y="0" type="line"/>
      <point x="880" y="550" type="line"/>
      <point x="100" y="550" type="line"/>
    </contour>
  </outline>
</glyph>
<glyph name="registered" format="2">
  <advance width="1020"/>
  <unicode hex="00AE"/>
  <outline>
    <contour>
      <point x="915.0" y="765.0" type="curve" smooth="yes"/>
      <point x="915.0" y="988.52558"/>
      <point x="733.52558" y="1170.0"/>
      <point x="510.0" y="1170.0" type="curve" smooth="yes"/>
      <point x="286.47442" y="1170.0"/>
      <point x="105.0" y="988.52558"/>
      <point x="105.0" y="765.0" type="curve" smooth="yes"/>
      <point x="105.0" y="541.47442"/>
      <point x="286.47442" y="360.0"/>
      <point x="510.0" y="360.0" type="curve" smooth="yes"/>
      <point x="733.52558" y="360.0"/>
      <point x="915.0" y="541.47442"/>
    </contour>
    <contour>
      <point x="840.0" y="765.0" type="curve" smooth="yes"/>
      <point x="840.0" y="582.86804"/>
      <point x="692.13196" y="435.0"/>
      <point x="510.0" y="435.0" type="curve" smooth="yes"/>
      <point x="327.86804" y="435.0"/>
      <point x="180.0" y="582.86804"/>
      <point x="180.0" y="765.0" type="curve" smooth="yes"/>
      <point x="180.0" y="947.13196"/>
      <point x="327.86804" y="1095.0"/>
      <point x="510.0" y="1095.0" type="curve" smooth="yes"/>
      <point x="692.13196" y="1095.0"/>
      <point x="840.0" y="947.13196"/>
    </contour>
    <contour>
      <point x="344.3399963378906" y="536.7468795776367" type="line"/>
      <point x="434.3399963378906" y="536.7468795776367" type="line"/>
      <point x="434.3399963378906" y="691.7762908935547" type="line"/>
      <point x="513.7146606445312" y="691.7762908935547" type="line"/>
      <point x="615.5863418579102" y="536.7468795776367" type="line"/>
      <point x="720.8399963378906" y="536.7468795776367" type="line"/>
      <point x="607.0221633911133" y="709.9560775756836" type="line"/>
      <point x="661.3075656367647" y="736.4005478081365"/>
      <point x="698.34" y="789.0280022011501"/>
      <point x="698.34" y="849.5740800000001" type="curve" smooth="yes"/>
      <point x="698.34" y="908.4741512923782"/>
      <point x="670.5192460158593" y="1007.3718684756948"/>
      <point x="484.59000000000003" y="1007.3718704551221" type="curve"/>
      <point x="344.3399963378906" y="1007.3718719482422" type="line"/>
    </contour>
    <contour>
      <point x="501.83057993285456" y="924.3203964233398" type="line"/>
      <point x="526.6684318238966" y="924.3203964233398"/>
      <point x="608.34" y="923.2745781006106"/>
      <point x="608.34" y="849.57408" type="curve" smooth="yes"/>
      <point x="608.34" y="775.8739174657062"/>
      <point x="526.6730246046692" y="774.8277599913154"/>
      <point x="501.8305855626255" y="774.8277596678462" type="curve"/>
      <point x="434.3399963378906" y="774.8277587890625" type="line"/>
      <point x="434.3399963378906" y="924.3203964233398" type="line"/>
    </contour>
  </outline>
</glyph>
<glyph name="macron" format="2">
  <advance width="1020"/>
  <unicode hex="00AF"/>
  <outline>
    <contour>
      <point x="240.0" y="1108.0" type="line"/>
      <point x="780.0" y="1108.0" type="line"/>
      <point x="780.0" y="1192.0" type="line"/>
      <point x="240.0" y="1192.0" type="line"/>
    </contour>
  </outline>
</glyph>
<glyph name="degree" format="2">
  <advance width="1020"/>
  <unicode hex="00B0"/>
  <outline>
    <contour>
      <point x="750.0" y="930.0" type="curve" smooth="yes"/>
      <point x="750.0" y="1062.4596048"/>
      <point x="642.4596048000001" y="1170.0"/>
      <point x="510.0" y="1170.0" type="curve" smooth="yes"/>
      <point x="377.54039520000003" y="1170.0"/>
      <point x="270.0" y="1062.4596048"/>
      <point x="270.0" y="930.0" type="curve" smooth="yes"/>
      <point x="270.0" y="797.5403952"/>
      <point x="377.5403951999999" y="690.0"/>
      <point x="510.0" y="690.0" type="curve" smooth="yes"/>
      <point x="642.4596048" y="690.0"/>
      <point x="750.0" y="797.5403951999999"/>
    </contour>
    <contour>
      <point x="630.0" y="930.0" type="curve" smooth="yes"/>
      <point x="630.0" y="863.7701976"/>
      <point x="576.2298023999999" y="810.0"/>
      <point x="510.0" y="810.0" type="curve" smooth="yes"/>
      <point x="443.77019759999996" y="810.0"/>
      <point x="390.0" y="863.7701976"/>
      <point x="390.0" y="930.0" type="curve" smooth="yes"/>
      <point x="390.0" y="996.2298024"/>
      <point x="443.7701976" y="1050.0"/>
      <point x="510.0" y="1050.0" type="curve" smooth="yes"/>
      <point x="576.2298024" y="1050.0"/>
      <point x="630.0" y="996.2298024"/>
    </contour>
  </outline>
</glyph>
<glyph name="plusminus" format="2">
  <advance width="980"/>
  <unicode hex="00B1"/>
  <outline>
    <contour>
      <point x="430" y="280" type="line"/>
      <point x="550" y="280" type="line"/>
      <point x="550" y="520" type="line"/>
      <point x="790" y="520" type="line"/>
      <point x="790" y="640" type="line"/>
      <point x="550" y="640" type="line"/>
      <point x="550" y="880" type="line"/>
      <point x="430" y="880" type="line"/>
      <point x="430" y="640" type="line"/>
      <point x="190" y="640" type="line"/>
      <point x="190" y="520" type="line"/>
      <point x="430" y="520" type="line"/>
    </contour>
    <contour>
      <point x="190.0" y="100.0" type="line"/>
      <point x="790.0" y="100.0" type="line"/>
      <point x="790.0" y="220.0" type="line"/>
      <point x="190.0" y="220.0" type="line"/>
    </contour>
  </outline>
</glyph>
<glyph name="sup_two" format="2">
  <advance width="1020"/>
  <unicode hex="00B2"/>
  <outline>
    <contour>
      <point x="273.1057662963867" y="411.75" type="line"/>
      <point x="757.875" y="411.75" type="line"/>
      <point x="757.875" y="513.75" type="line"/>
      <point x="422.4198226928711" y="513.75" type="line"/>
      <point x="648.1089077494682" y="724.8592645555557" type="line"/>
      <point x="707.7974735979975" y="780.6918682257725"/>
      <point x="757.875" y="839.1487110621256"/>
      <point x="757.875" y="935.08654" type="curve"/>
      <point x="757.875" y="1071.89247"/>
      <point x="646.80594" y="1182.96154"/>
      <point x="510.0" y="1182.96154" type="curve" smooth="yes"/>
      <point x="373.19406" y="1182.96154"/>
      <point x="262.125" y="1071.89247"/>
      <point x="262.125" y="935.08654" type="curve"/>
      <point x="364.125" y="935.086540222168" type="line"/>
      <point x="364.125" y="1015.59714"/>
      <point x="429.4894" y="1080.96154"/>
      <point x="510.0" y="1080.96154" type="curve" smooth="yes"/>
      <point x="590.5106" y="1080.96154"/>
      <point x="655.875" y="1015.59714"/>
      <point x="655.875" y="935.08654" type="curve"/>
      <point x="655.875" y="875.6427796548619"/>
      <point x="622.002716344596" y="840.1077291694162"/>
      <point x="579.2369052144729" y="800.1046480172691" type="curve"/>
      <point x="273.1057662963867" y="513.75" type="line"/>
    </contour>
  </outline>
</glyph>
<glyph name="sup_three" format="2">
  <advance width="1020"/>
  <unicode hex="00B3"/>
  <outline>
    <contour>
      <point x="252.75" y="623.6162796020508" type="line"/>
      <point x="252.75" y="500.061117179651"/>
      <point x="368.01986110499996" y="399.75"/>
      <point x="510.0" y="399.75" type="curve" smooth="yes"/>
      <point x="651.980138895" y="399.75"/>
      <point x="767.25" y="500.061117179651"/>
      <point x="767.25" y="623.6162790697672" type="curve"/>
      <point x="767.25" y="693.924231946881"/>
      <point x="729.924736043836" y="756.7055851047785"/>
      <point x="671.5923233032227" y="797.7436370849609" type="curve"/>
      <point x="724.4098917280237" y="837.3689636191125"/>
      <point x="757.875" y="896.0513139825816"/>
      <point x="757.875" y="961.4912790697674" type="curve"/>
      <point x="757.875" y="1080.7097366021512"/>
      <point x="646.8059355825001" y="1177.5"/>
      <point x="510.0" y="1177.5" type="curve" smooth="yes"/>
      <point x="373.19406441750004" y="1177.5"/>
      <point x="262.125" y="1080.7097366021512"/>
      <point x="262.125" y="961.4912790697674" type="curve"/>
      <point x="364.125" y="961.4912796020508" type="line"/>
      <point x="364.125" y="1024.414404562151"/>
      <point x="429.48939645750005" y="1075.5"/>
      <point x="510.0" y="1075.5" type="curve" smooth="yes"/>
      <point x="590.5106035425001" y="1075.5"/>
      <point x="655.875" y="1024.414404562151"/>
      <point x="655.875" y="961.4912790697674" type="curve"/>
      <point x="655.875" y="898.5681535773836"/>
      <point x="590.5106035425001" y="847.4825581395348"/>
      <point x="510.0" y="847.4825581395348" type="curve"/>
      <point x="456.375" y="847.4825592041016" type="line"/>
      <point x="456.375" y="745.4825592041016" type="line"/>
      <point x="510" y="745.4825592041016" type="line"/>
      <point x="595.684806855" y="745.4825581395347"/>
      <point x="665.25" y="690.8761089198836"/>
      <point x="665.25" y="623.6162790697673" type="curve"/>
      <point x="665.25" y="556.3564492196509"/>
      <point x="595.684806855" y="501.7499999999998"/>
      <point x="510.0" y="501.7499999999998" type="curve" smooth="yes"/>
      <point x="424.31519314499997" y="501.7499999999998"/>
      <point x="354.75" y="556.356449219651"/>
      <point x="354.75" y="623.6162790697674" type="curve"/>
    </contour>
  </outline>
</glyph>
<glyph name="acute" format="2">
  <advance width="1020"/>
  <unicode hex="00B4"/>
  <outline>
    <contour>
      <point x="388.19341" y="1030.0" type="line"/>
      <point x="484.70567" y="1030.0" type="line"/>
      <point x="631.80659" y="1290.0" type="line"/>
      <point x="535.29433" y="1290.0" type="line"/>
    </contour>
  </outline>
</glyph>
<glyph name="mu" format="2">
  <advance width="1020"/>
  <unicode hex="00B5"/>
  <outline>
    <contour>
      <point x="156.4000015258789" y="-225" type="line"/>
      <point x="276.4000015258789" y="-225" type="line"/>
      <point x="276.4000015258789" y="60.96539306640625" type="line"/>
      <point x="335.7598680669871" y="10.474124148866025"/>
      <point x="412.64920916014" y="-20.000000000000018"/>
      <point x="496.6" y="-20.00000000000003" type="curve" smooth="yes"/>
      <point x="600.32864738901" y="-20.0"/>
      <point x="693.2767248990579" y="26.52421764244901"/>
      <point x="755.6977310180664" y="99.83998107910156" type="curve"/>
      <point x="796.4907360486824" y="39.605609382137196"/>
      <point x="865.45666996492" y="1.4210854715202004e-14"/>
      <point x="943.6" y="2.1316282072803006e-14" type="curve"/>
      <point x="943.5999984741211" y="120" type="line"/>
      <point x="893.397859285279" y="120.0"/>
      <point x="836.7999995706051" y="144.74137785906612"/>
      <point x="836.8000001624141" y="257.83782737646754" type="curve"/>
      <point x="836.8000030517578" y="810" type="line"/>
      <point x="716.8000030517578" y="810" type="line"/>
      <point x="716.8000030517578" y="362.9499969482422" type="line"/>
      <point x="716.8000030517578" y="121.10186656554723"/>
      <point x="552.3758879751998" y="100.0"/>
      <point x="496.6" y="100.0" type="curve" smooth="yes"/>
      <point x="440.82411202480023" y="100.0"/>
      <point x="276.39999937974756" y="121.10186946471714"/>
      <point x="276.4000001331795" y="362.95" type="curve"/>
      <point x="276.4000015258789" y="810" type="line"/>
      <point x="156.4000015258789" y="810" type="line"/>
    </contour>
  </outline>
</glyph>
<glyph name="pilcrow" format="2">
  <advance width="980"/>
  <unicode hex="00B6"/>
  <outline>
    <contour>
      <point x="405" y="-120" type="line"/>
      <point x="525" y="-120" type="line"/>
      <point x="525" y="1050" type="line"/>
      <point x="645" y="1050" type="line"/>
      <point x="645" y="-120" type="line"/>
      <point x="765" y="-120" type="line"/>
      <point x="765" y="1050" type="line"/>
      <point x="885" y="1050" type="line"/>
      <point x="885" y="1170" type="line"/>
      <point x="405" y="1170" type="line"/>
      <point x="239.42549400000001" y="1170.0"/>
      <point x="105.0" y="1035.574506"/>
      <point x="105.0" y="870.0" type="curve" smooth="yes"/>
      <point x="105.0" y="704.4254940000001"/>
      <point x="239.42549399999993" y="570.0"/>
      <point x="404.99999999999994" y="570.0" type="curve"/>
    </contour>
  </outline>
</glyph>
<glyph name="periodcentered" format="2">
  <advance width="980"/>
  <unicode hex="00B7"/>
  <outline>
    <contour>
      <point x="610.0" y="370.0" type="curve" smooth="yes"/>
      <point x="610.0" y="436.22980240000004"/>
      <point x="556.2298024" y="490.0"/>
      <point x="490.0" y="490.0" type="curve" smooth="yes"/>
      <point x="423.7701976" y="490.0"/>
      <point x="370.0" y="436.22980240000004"/>
      <point x="370.0" y="370.0" type="curve" smooth="yes"/>
      <point x="370.0" y="303.7701976"/>
      <point x="423.77019759999996" y="250.0"/>
      <point x="490.0" y="250.0" type="curve" smooth="yes"/>
      <point x="556.2298023999999" y="250.0"/>
      <point x="610.0" y="303.77019759999996"/>
    </contour>
  </outline>
</glyph>
<glyph name="cedilla" format="2">
  <advance width="980"/>
  <unicode hex="00B8"/>
  <outline>
    <contour>
      <point x="414" y="-114" type="line"/>
      <point x="456" y="-114" type="line"/>
      <point x="492.42639132" y="-114.0"/>
      <point x="522.0" y="-143.57360868"/>
      <point x="522.0" y="-180.0" type="curve" smooth="yes"/>
      <point x="522.0" y="-216.42639132"/>
      <point x="492.42639132" y="-246.0"/>
      <point x="456.0" y="-246.0" type="curve"/>
      <point x="374" y="-246" type="line"/>
      <point x="374" y="-330" type="line"/>
      <point x="456" y="-330" type="line"/>
      <point x="538.787253" y="-330.0"/>
      <point x="606.0" y="-262.78725299999996"/>
      <point x="606.0" y="-180.0" type="curve" smooth="yes"/>
      <point x="606.0" y="-111.789595359228"/>
      <point x="560.3725757668434" y="-54.15195591854286"/>
      <point x="498" y="-35.99342346191406" type="curve"/>
      <point x="498" y="60" type="line"/>
      <point x="414" y="60" type="line"/>
    </contour>
  </outline>
</glyph>
<glyph name="sup_one" format="2">
  <advance width="980"/>
  <unicode hex="00B9"/>
  <outline>
    <contour>
      <point x="258.75" y="438.75" type="line"/>
      <point x="721.25" y="438.75" type="line"/>
      <point x="721.25" y="540.75" type="line"/>
      <point x="541" y="540.75" type="line"/>
      <point x="541" y="1170" type="line"/>
      <point x="439" y="1170" type="line"/>
      <point x="258.75" y="1067.1872177124023" type="line"/>
      <point x="258.75" y="949.7611312866211" type="line"/>
      <point x="439" y="1052.5739135742188" type="line"/>
      <point x="439" y="540.75" type="line"/>
      <point x="258.75" y="540.75" type="line"/>
    </contour>
  </outline>
</glyph>
<glyph name="ordinalmasculine" format="2">
  <advance width="980"/>
  <unicode hex="00BA"/>
  <outline>
    <contour>
      <point x="685.0" y="975.0" type="curve" smooth="yes"/>
      <point x="685.0" y="1082.6234289"/>
      <point x="597.6234289" y="1170.0"/>
      <point x="490.0" y="1170.0" type="curve" smooth="yes"/>
      <point x="382.3765711" y="1170.0"/>
      <point x="295.0" y="1082.6234289"/>
      <point x="295.0" y="975.0" type="curve" smooth="yes"/>
      <point x="295.0" y="867.3765711"/>
      <point x="382.3765711" y="780.0"/>
      <point x="490.0" y="780.0" type="curve" smooth="yes"/>
      <point x="597.6234288999999" y="780.0"/>
      <point x="685.0" y="867.3765710999999"/>
    </contour>
    <contour>
      <point x="583.0" y="975.0" type="curve" smooth="yes"/>
      <point x="583.0" y="923.6719031399999"/>
      <point x="541.32809686" y="882.0"/>
      <point x="490.0" y="882.0" type="curve" smooth="yes"/>
      <point x="438.67190314" y="882.0"/>
      <point x="397.0" y="923.67190314"/>
      <point x="397.0" y="975.0" type="curve" smooth="yes"/>
      <point x="397.0" y="1026.32809686"/>
      <point x="438.67190314000004" y="1068.0"/>
      <point x="490.0" y="1068.0" type="curve" smooth="yes"/>
      <point x="541.32809686" y="1068.0"/>
      <point x="583.0" y="1026.32809686"/>
    </contour>
    <contour>
      <point x="295.0" y="609.7142857142857" type="line"/>
      <point x="685.0" y="609.7142857142857" type="line"/>
      <point x="685.0" y="684.0" type="line"/>
      <point x="295.0" y="684.0" type="line"/>
    </contour>
  </outline>
</glyph>
<glyph name="angledblright" format="2">
  <advance width="1020"/>
  <unicode hex="00BB"/>
  <outline>
    <contour>
      <point x="470" y="220" type="line"/>
      <point x="628.1665115356445" y="220" type="line"/>
      <point x="860" y="490" type="line"/>
      <point x="628.1665115356445" y="760" type="line"/>
      <point x="470" y="760" type="line"/>
      <point x="701.8334884643555" y="490" type="line"/>
    </contour>
    <contour>
      <point x="190" y="220" type="line"/>
      <point x="348.16651153564453" y="220" type="line"/>
      <point x="580" y="490" type="line"/>
      <point x="348.16651153564453" y="760" type="line"/>
      <point x="190" y="760" type="line"/>
      <point x="421.83348846435547" y="490" type="line"/>
    </contour>
  </outline>
</glyph>
<glyph name="one_over_four" format="2">
  <advance width="1020"/>
  <unicode hex="00BC"/>
  <outline>
    <contour>
      <point x="86.75" y="643.5" type="line"/>
      <point x="479" y="643.5" type="line"/>
      <point x="479" y="745.5" type="line"/>
      <point x="345.125" y="745.5" type="line"/>
      <point x="345.125" y="1218" type="line"/>
      <point x="243.125" y="1218" type="line"/>
      <point x="86.75" y="1127.7168502807617" type="line"/>
      <point x="86.75" y="1009.9373931884766" type="line"/>
      <point x="243.125" y="1100.2205429077148" type="line"/>
      <point x="243.125" y="745.5" type="line"/>
      <point x="86.75" y="745.5" type="line"/>
    </contour>
    <contour>
      <point x="86.75000000000003" y="344.9999999999723" type="line"/>
      <point x="926.75" y="742.8050931050661" type="line"/>
      <point x="926.75" y="825.0" type="line"/>
      <point x="86.75000000000003" y="427.1949068949063" type="line"/>
    </contour>
    <contour>
      <point x="678.2847442626953" y="230.85989379882812" type="line"/>
      <point x="817.75" y="409.0229263305664" type="line"/>
      <point x="817.75" y="230.85989379882812" type="line"/>
    </contour>
    <contour>
      <point x="548.75" y="128.85989379882812" type="line"/>
      <point x="817.75" y="128.85989379882812" type="line"/>
      <point x="817.75" y="0" type="line"/>
      <point x="919.75" y="0" type="line"/>
      <point x="919.75" y="128.85989379882812" type="line"/>
      <point x="988.25" y="128.85989379882812" type="line"/>
      <point x="988.25" y="230.85989379882812" type="line"/>
      <point x="919.75" y="230.85989379882812" type="line"/>
      <point x="919.75" y="574.5" type="line"/>
      <point x="817.75" y="574.5" type="line"/>
      <point x="548.75" y="230.85989379882812" type="line"/>
    </contour>
  </outline>
</glyph>
<glyph name="one_over_two" format="2">
  <advance width="1020"/>
  <unicode hex="00BD"/>
  <outline>
    <contour>
      <point x="91.25" y="643.5" type="line"/>
      <point x="463.25" y="643.5" type="line"/>
      <point x="463.25" y="745.5" type="line"/>
      <point x="337.25" y="745.5" type="line"/>
      <point x="337.25" y="1218" type="line"/>
      <point x="235.25" y="1218" type="line"/>
      <point x="91.25" y="1134.861557006836" type="line"/>
      <point x="91.25" y="1022.3167495727539" type="line"/>
      <point x="235.25" y="1105.455192565918" type="line"/>
      <point x="235.25" y="745.5" type="line"/>
      <point x="91.25" y="745.5" type="line"/>
    </contour>
    <contour>
      <point x="91.25" y="345.0" type="line"/>
      <point x="931.25" y="742.80509" type="line"/>
      <point x="931.25" y="825.0" type="line"/>
      <point x="91.25" y="427.19491" type="line"/>
    </contour>
    <contour>
      <point x="566.1602630615234" y="0" type="line"/>
      <point x="938.75" y="0" type="line"/>
      <point x="938.75" y="102" type="line"/>
      <point x="716.5179595947266" y="102" type="line"/>
      <point x="845.3493646390631" y="220.9544868279909" type="line"/>
      <point x="898.0880599366092" y="269.6499460829636"/>
      <point x="938.75" y="315.22226173564866"/>
      <point x="938.75" y="391.57051" type="curve"/>
      <point x="938.75" y="497.95213"/>
      <point x="852.38162" y="584.32051"/>
      <point x="746.0" y="584.32051" type="curve" smooth="yes"/>
      <point x="639.61838" y="584.32051"/>
      <point x="553.25" y="497.95213"/>
      <point x="553.25" y="391.57051" type="curve"/>
      <point x="655.25" y="391.5705108642578" type="line"/>
      <point x="655.25" y="441.6568"/>
      <point x="695.91371" y="482.32051"/>
      <point x="746.0" y="482.32051" type="curve" smooth="yes"/>
      <point x="796.08629" y="482.32051"/>
      <point x="836.75" y="441.6568"/>
      <point x="836.75" y="391.57051" type="curve"/>
      <point x="836.75" y="352.56494089760304"/>
      <point x="812.1125930815683" y="329.09628099218315"/>
      <point x="788.5273394195806" y="307.3192017001993" type="curve"/>
      <point x="566.1602630615234" y="102" type="line"/>
    </contour>
  </outline>
</glyph>
<glyph name="three_over_four" format="2">
  <advance width="1020"/>
  <unicode hex="00BE"/>
  <outline>
    <contour>
      <point x="86.75" y="811.75" type="line"/>
      <point x="86.75" y="714.7969281533333"/>
      <point x="176.14295350999998" y="636.0833333333334"/>
      <point x="286.25" y="636.0833333333333" type="curve" smooth="yes"/>
      <point x="396.35704649" y="636.0833333333333"/>
      <point x="485.75" y="714.7969281533333"/>
      <point x="485.75" y="811.75" type="curve"/>
      <point x="485.75" y="861.1386704232668"/>
      <point x="462.55284050408443" y="905.7942602054253"/>
      <point x="425.23704528808594" y="937.7026748657227" type="curve"/>
      <point x="458.5261912012202" y="968.2373283293451"/>
      <point x="478.99999999999994" y="1009.7348812272747"/>
      <point x="478.9999999999999" y="1055.4166666666667" type="curve"/>
      <point x="479.0" y="1149.2422200666667"/>
      <point x="392.631620105" y="1225.4166666666667"/>
      <point x="286.25" y="1225.4166666666667" type="curve" smooth="yes"/>
      <point x="179.868379895" y="1225.4166666666667"/>
      <point x="93.5" y="1149.2422200666667"/>
      <point x="93.5" y="1055.4166666666667" type="curve"/>
      <point x="195.5" y="1055.4166641235352" type="line"/>
      <point x="195.5" y="1092.9468880266668"/>
      <point x="236.163711935" y="1123.4166666666667"/>
      <point x="286.25" y="1123.4166666666667" type="curve" smooth="yes"/>
      <point x="336.336288065" y="1123.4166666666667"/>
      <point x="377.0" y="1092.9468880266668"/>
      <point x="377.0" y="1055.4166666666667" type="curve"/>
      <point x="377.0" y="1017.8864453066667"/>
      <point x="336.336288065" y="987.4166666666667"/>
      <point x="286.25" y="987.4166666666667" type="curve"/>
      <point x="240.5" y="987.4166641235352" type="line"/>
      <point x="240.5" y="885.4166641235352" type="line"/>
      <point x="286.25" y="885.4166641235352" type="line"/>
      <point x="340.06171444999995" y="885.4166666666667"/>
      <point x="383.75" y="852.4077398066667"/>
      <point x="383.75" y="811.75" type="curve"/>
      <point x="383.75" y="771.0922601933332"/>
      <point x="340.06171444999995" y="738.0833333333333"/>
      <point x="286.25" y="738.0833333333333" type="curve" smooth="yes"/>
      <point x="232.43828555" y="738.0833333333333"/>
      <point x="188.75" y="771.0922601933333"/>
      <point x="188.75" y="811.75" type="curve"/>
    </contour>
    <contour>
      <point x="86.75000000000003" y="344.9999999999723" type="line"/>
      <point x="926.75" y="742.8050931050661" type="line"/>
      <point x="926.75" y="825.0" type="line"/>
      <point x="86.75000000000003" y="427.1949068949063" type="line"/>
    </contour>
    <contour>
      <point x="678.2847442626953" y="230.85989379882812" type="line"/>
      <point x="817.75" y="409.0229263305664" type="line"/>
      <point x="817.75" y="230.85989379882812" type="line"/>
    </contour>
    <contour>
      <point x="548.75" y="128.85989379882812" type="line"/>
      <point x="817.75" y="128.85989379882812" type="line"/>
      <point x="817.75" y="0" type="line"/>
      <point x="919.75" y="0" type="line"/>
      <point x="919.75" y="128.85989379882812" type="line"/>
      <point x="988.25" y="128.85989379882812" type="line"/>
      <point x="988.25" y="230.85989379882812" type="line"/>
      <point x="919.75" y="230.85989379882812" type="line"/>
      <point x="919.75" y="574.5" type="line"/>
      <point x="817.75" y="574.5" type="line"/>
      <point x="548.75" y="230.85989379882812" type="line"/>
    </contour>
  </outline>
</glyph>
<glyph name="invertedquestion" format="2">
  <advance width="1020"/>
  <unicode hex="00BF"/>
  <outline>
    <contour>
      <point x="405.0000000000001" y="705.0" type="curve" smooth="yes"/>
      <point x="405.0000000000001" y="638.7701976"/>
      <point x="458.7701976000001" y="585.0"/>
      <point x="525.0000000000001" y="585.0" type="curve" smooth="yes"/>
      <point x="591.2298024000002" y="585.0"/>
      <point x="645.0000000000001" y="638.7701976"/>
      <point x="645.0000000000001" y="705.0" type="curve" smooth="yes"/>
      <point x="645.0000000000001" y="771.2298024000002"/>
      <point x="591.2298024000002" y="825.0"/>
      <point x="525.0000000000001" y="825.0" type="curve" smooth="yes"/>
      <point x="458.77019760000013" y="825.0"/>
      <point x="405.0000000000001" y="771.2298024000002"/>
    </contour>
    <contour>
      <point x="585" y="489" type="line"/>
      <point x="465" y="489" type="line"/>
      <point x="465" y="344.9400939941406" type="line"/>
      <point x="297.6006223653852" y="316.39645809787055"/>
      <point x="170.0000000000001" y="170.4820070325477"/>
      <point x="170.0000000000001" y="-4.999999999999943" type="curve"/>
      <point x="170.0" y="-200.92983210000006"/>
      <point x="329.0701679" y="-360.0"/>
      <point x="525.0" y="-360.0" type="curve" smooth="yes"/>
      <point x="720.9298320999999" y="-360.0"/>
      <point x="880.0" y="-200.92983210000017"/>
      <point x="880.0" y="-5.000000000000057" type="curve"/>
      <point x="760" y="-5" type="line"/>
      <point x="760.0" y="-134.70002970000013"/>
      <point x="654.7000297" y="-240.0"/>
      <point x="525.0" y="-240.0" type="curve" smooth="yes"/>
      <point x="395.2999703" y="-240.0"/>
      <point x="290.0" y="-134.7000296999999"/>
      <point x="290.0" y="-5.0" type="curve"/>
      <point x="290.00000000000006" y="124.70002969999996"/>
      <point x="395.2999703" y="230.0"/>
      <point x="525.0" y="230.0" type="curve"/>
      <point x="585" y="230" type="line"/>
    </contour>
  </outline>
</glyph>
<glyph name="A_with_acute" format="2">
  <advance width="1020"/>
  <unicode hex="00C1"/>
  <outline>
    <contour>
      <point x="461.74387" y="1290.0" type="line"/>
      <point x="558.25613" y="1290.0" type="line"/>
      <point x="705.35706" y="1550.0" type="line"/>
      <point x="608.84479" y="1550.0" type="line"/>
    </contour>
    <contour>
      <point x="37.5" y="0" type="line"/>
      <point x="164.61878204345703" y="0" type="line"/>
      <point x="278.46305084228516" y="325.7142868041992" type="line"/>
      <point x="741.5369491577148" y="325.7142868041992" type="line"/>
      <point x="855.381217956543" y="0" type="line"/>
      <point x="982.5" y="0" type="line"/>
      <point x="573.5593872070312" y="1170" type="line"/>
      <point x="446.44061279296875" y="1170" type="line"/>
    </contour>
    <contour>
      <point x="320.40567779541016" y="445.7142868041992" type="line"/>
      <point x="510" y="988.1533432006836" type="line"/>
      <point x="699.5943222045898" y="445.7142868041992" type="line"/>
    </contour>
  </outline>
</glyph>
<glyph name="A_with_circumflex" format="2">
  <advance width="980"/>
  <unicode hex="00C2"/>
  <outline>
    <contour>
      <point x="230" y="1290" type="line"/>
      <point x="340.42383575439453" y="1290" type="line"/>
      <point x="490" y="1465.2947616577148" type="line"/>
      <point x="639.5761642456055" y="1290" type="line"/>
      <point x="750" y="1290" type="line"/>
      <point x="545.2119216918945" y="1530" type="line"/>
      <point x="434.78807830810547" y="1530" type="line"/>
    </contour>
    <contour>
      <point x="70" y="0" type="line"/>
      <point x="195.46983337402344" y="0" type="line"/>
      <point x="294.9282455444336" y="325.7142868041992" type="line"/>
      <point x="685.0717544555664" y="325.7142868041992" type="line"/>
      <point x="784.5301666259766" y="0" type="line"/>
      <point x="910" y="0" type="line"/>
      <point x="552.7349166870117" y="1170" type="line"/>
      <point x="427.2650833129883" y="1170" type="line"/>
    </contour>
    <contour>
      <point x="331.57081604003906" y="445.7142868041992" type="line"/>
      <point x="490" y="964.5507278442383" type="line"/>
      <point x="648.4291839599609" y="445.7142868041992" type="line"/>
    </contour>
  </outline>
</glyph>
<glyph name="A_with_smalltilde" format="2">
  <advance width="980"/>
  <unicode hex="00C3"/>
  <outline>
    <contour>
      <point x="539.7978105831189" y="1388.5041622606027" type="curve"/>
      <point x="488.38260650634766" y="1424.505470275879" type="line"/>
      <point x="460.77944687773305" y="1443.8334161841103"/>
      <point x="427.89810397352664" y="1454.2008637785211"/>
      <point x="394.20086377852124" y="1454.2008637785211" type="curve"/>
      <point x="303.5759407621814" y="1454.2008637785211"/>
      <point x="230.0" y="1380.6249230163398"/>
      <point x="230.0" y="1290.0" type="curve"/>
      <point x="314" y="1290" type="line"/>
      <point x="314.0" y="1334.2640613363399"/>
      <point x="349.9368024421814" y="1370.2008637785211"/>
      <point x="394.2008637785212" y="1370.2008637785211" type="curve"/>
      <point x="410.65965521482576" y="1370.2008637785211"/>
      <point x="426.719936765306" y="1365.1370764565993"/>
      <point x="440.2021894168811" y="1355.6967015179187" type="curve"/>
      <point x="491.61739349365234" y="1319.6953887939453" type="line"/>
      <point x="519.220553122267" y="1300.3674475944108"/>
      <point x="552.1018960264735" y="1290.0"/>
      <point x="585.7991362214789" y="1290.0" type="curve"/>
      <point x="676.4240592378186" y="1290.0"/>
      <point x="750.0" y="1363.5759407621813"/>
      <point x="750.0" y="1454.2008637785211" type="curve"/>
      <point x="666" y="1454.2008666992188" type="line"/>
      <point x="666.0" y="1409.9368024421815"/>
      <point x="630.0631975578186" y="1374.0"/>
      <point x="585.7991362214788" y="1374.0" type="curve"/>
      <point x="569.3403447851742" y="1374.0"/>
      <point x="553.280063234694" y="1379.0637873219218"/>
    </contour>
    <contour>
      <point x="70" y="0" type="line"/>
      <point x="195.46983337402344" y="0" type="line"/>
      <point x="294.9282455444336" y="325.7142868041992" type="line"/>
      <point x="685.0717544555664" y="325.7142868041992" type="line"/>
      <point x="784.5301666259766" y="0" type="line"/>
      <point x="910" y="0" type="line"/>
      <point x="552.7349166870117" y="1170" type="line"/>
      <point x="427.2650833129883" y="1170" type="line"/>
    </contour>
    <contour>
      <point x="331.57081604003906" y="445.7142868041992" type="line"/>
      <point x="490" y="964.5507278442383" type="line"/>
      <point x="648.4291839599609" y="445.7142868041992" type="line"/>
    </contour>
  </outline>
</glyph>
<glyph name="A_with_diaeresis" format="2">
  <advance width="1020"/>
  <unicode hex="00C4"/>
  <outline>
    <contour>
      <point x="471.0" y="1410.0" type="curve" smooth="yes"/>
      <point x="471.0" y="1462.98384"/>
      <point x="427.98384" y="1506.0"/>
      <point x="375.0" y="1506.0" type="curve" smooth="yes"/>
      <point x="322.01616" y="1506.0"/>
      <point x="279.0" y="1462.98384"/>
      <point x="279.0" y="1410.0" type="curve" smooth="yes"/>
      <point x="279.0" y="1357.01616"/>
      <point x="322.01616" y="1314.0"/>
      <point x="375.0" y="1314.0" type="curve" smooth="yes"/>
      <point x="427.98384" y="1314.0"/>
      <point x="471.0" y="1357.01616"/>
    </contour>
    <contour>
      <point x="741.0" y="1410.0" type="curve" smooth="yes"/>
      <point x="741.0" y="1462.98384"/>
      <point x="697.98384" y="1506.0"/>
      <point x="645.0" y="1506.0" type="curve" smooth="yes"/>
      <point x="592.01616" y="1506.0"/>
      <point x="549.0" y="1462.98384"/>
      <point x="549.0" y="1410.0" type="curve" smooth="yes"/>
      <point x="549.0" y="1357.01616"/>
      <point x="592.01616" y="1314.0"/>
      <point x="645.0" y="1314.0" type="curve" smooth="yes"/>
      <point x="697.98384" y="1314.0"/>
      <point x="741.0" y="1357.01616"/>
    </contour>
    <contour>
      <point x="37.5" y="0" type="line"/>
      <point x="164.61878204345703" y="0" type="line"/>
      <point x="278.46305084228516" y="325.7142868041992" type="line"/>
      <point x="741.5369491577148" y="325.7142868041992" type="line"/>
      <point x="855.381217956543" y="0" type="line"/>
      <point x="982.5" y="0" type="line"/>
      <point x="573.5593872070312" y="1170" type="line"/>
      <point x="446.44061279296875" y="1170" type="line"/>
    </contour>
    <contour>
      <point x="320.40567779541016" y="445.7142868041992" type="line"/>
      <point x="510" y="988.1533432006836" type="line"/>
      <point x="699.5943222045898" y="445.7142868041992" type="line"/>
    </contour>
  </outline>
</glyph>
<glyph name="A_with_ring" format="2">
  <advance width="1020"/>
  <unicode hex="00C5"/>
  <outline>
    <contour>
      <point x="660.0" y="1410.0" type="curve" smooth="yes"/>
      <point x="660.0" y="1492.78725"/>
      <point x="592.78725" y="1560.0"/>
      <point x="510.0" y="1560.0" type="curve" smooth="yes"/>
      <point x="427.21275" y="1560.0"/>
      <point x="360.0" y="1492.78725"/>
      <point x="360.0" y="1410.0" type="curve" smooth="yes"/>
      <point x="360.0" y="1327.21275"/>
      <point x="427.21275" y="1260.0"/>
      <point x="510.0" y="1260.0" type="curve" smooth="yes"/>
      <point x="592.78725" y="1260.0"/>
      <point x="660.0" y="1327.21275"/>
    </contour>
    <contour>
      <point x="576.0" y="1410.0" type="curve" smooth="yes"/>
      <point x="576.0" y="1373.57361"/>
      <point x="546.42639" y="1344.0"/>
      <point x="510.0" y="1344.0" type="curve" smooth="yes"/>
      <point x="473.57361" y="1344.0"/>
      <point x="444.0" y="1373.57361"/>
      <point x="444.0" y="1410.0" type="curve" smooth="yes"/>
      <point x="444.0" y="1446.42639"/>
      <point x="473.57361" y="1476.0"/>
      <point x="510.0" y="1476.0" type="curve" smooth="yes"/>
      <point x="546.42639" y="1476.0"/>
      <point x="576.0" y="1446.42639"/>
    </contour>
    <contour>
      <point x="37.5" y="0" type="line"/>
      <point x="164.61878204345703" y="0" type="line"/>
      <point x="278.46305084228516" y="325.7142868041992" type="line"/>
      <point x="741.5369491577148" y="325.7142868041992" type="line"/>
      <point x="855.381217956543" y="0" type="line"/>
      <point x="982.5" y="0" type="line"/>
      <point x="573.5593872070312" y="1170" type="line"/>
      <point x="446.44061279296875" y="1170" type="line"/>
    </contour>
    <contour>
      <point x="320.40567779541016" y="445.7142868041992" type="line"/>
      <point x="510" y="988.1533432006836" type="line"/>
      <point x="699.5943222045898" y="445.7142868041992" type="line"/>
    </contour>
  </outline>
</glyph>
<glyph name="AE" format="2">
  <advance width="1020"/>
  <unicode hex="00C6"/>
  <outline>
    <contour>
      <point x="40.92857360839844" y="0" type="line"/>
      <point x="167.88259887695312" y="0" type="line"/>
      <point x="280.36426544189453" y="325.7142868041992" type="line"/>
      <point x="511.92857360839844" y="325.7142868041992" type="line"/>
      <point x="511.92857360839844" y="0" type="line"/>
      <point x="929.0714263916016" y="0" type="line"/>
      <point x="929.0714263916016" y="120" type="line"/>
      <point x="631.9285736083984" y="120" type="line"/>
      <point x="631.9285736083984" y="525" type="line"/>
      <point x="899.0714263916016" y="525" type="line"/>
      <point x="899.0714263916016" y="645" type="line"/>
      <point x="631.9285736083984" y="645" type="line"/>
      <point x="631.9285736083984" y="1050" type="line"/>
      <point x="929.0714263916016" y="1050" type="line"/>
      <point x="929.0714263916016" y="1170" type="line"/>
      <point x="444.97454833984375" y="1170" type="line"/>
    </contour>
    <contour>
      <point x="321.8048782348633" y="445.7142868041992" type="line"/>
      <point x="511.92857360839844" y="996.2573928833008" type="line"/>
      <point x="511.92857360839844" y="445.7142868041992" type="line"/>
    </contour>
  </outline>
</glyph>
<glyph name="C_with_cedilla" format="2">
  <advance width="1020"/>
  <unicode hex="00C7"/>
  <outline>
    <contour>
      <point x="87.5" y="405" type="line"/>
      <point x="87.5" y="184.60800050184"/>
      <point x="255.61973658521984" y="3.1726200909403133"/>
      <point x="470.5" y="-17.94049835205078" type="curve"/>
      <point x="470.5" y="-114" type="line"/>
      <point x="512.5" y="-114" type="line"/>
      <point x="548.92639" y="-114.0"/>
      <point x="578.5" y="-143.57361"/>
      <point x="578.5" y="-180.0" type="curve" smooth="yes"/>
      <point x="578.5" y="-216.42639"/>
      <point x="548.92639" y="-246.0"/>
      <point x="512.5" y="-246.0" type="curve"/>
      <point x="430.5" y="-246" type="line"/>
      <point x="430.5" y="-330" type="line"/>
      <point x="512.5" y="-330" type="line"/>
      <point x="595.28725" y="-330.0"/>
      <point x="662.5" y="-262.78725"/>
      <point x="662.5" y="-180.0" type="curve" smooth="yes"/>
      <point x="662.5" y="-111.789597831"/>
      <point x="616.8725737302912" y="-54.151956788982304"/>
      <point x="554.5" y="-35.99342346191406" type="curve"/>
      <point x="554.5" y="-17.938339233398438" type="line"/>
      <point x="769.3802634147802" y="3.1726200909403346"/>
      <point x="937.5" y="184.60800050183997"/>
      <point x="937.4999999999999" y="405.0" type="curve"/>
      <point x="817.5" y="405" type="line"/>
      <point x="817.5" y="236.66592"/>
      <point x="680.83408" y="100.0"/>
      <point x="512.5" y="100.0" type="curve" smooth="yes"/>
      <point x="344.16592" y="100.0"/>
      <point x="207.5" y="236.66592"/>
      <point x="207.5" y="405.0" type="curve"/>
      <point x="207.5" y="765" type="line"/>
      <point x="207.5" y="933.33408"/>
      <point x="344.16592" y="1070.0"/>
      <point x="512.5" y="1070.0" type="curve" smooth="yes"/>
      <point x="680.83408" y="1070.0"/>
      <point x="817.5" y="933.33408"/>
      <point x="817.5" y="765.0" type="curve"/>
      <point x="937.5" y="765" type="line"/>
      <point x="937.5" y="999.56388"/>
      <point x="747.06388" y="1190.0"/>
      <point x="512.5" y="1190.0" type="curve" smooth="yes"/>
      <point x="277.93612" y="1190.0"/>
      <point x="87.5" y="999.56388"/>
      <point x="87.5" y="765.0" type="curve"/>
    </contour>
  </outline>
</glyph>
<glyph name="E_with_grave" format="2">
  <advance width="980"/>
  <unicode hex="00C8"/>
  <outline>
    <contour>
      <point x="553.2561327465595" y="1290.0" type="line"/>
      <point x="406.1552104177393" y="1550.0" type="line"/>
      <point x="309.6429449246202" y="1550.0" type="line"/>
      <point x="456.7438672534405" y="1290.0" type="line"/>
    </contour>
    <contour>
      <point x="115" y="0" type="line"/>
      <point x="895" y="0" type="line"/>
      <point x="895" y="120" type="line"/>
      <point x="235" y="120" type="line"/>
      <point x="235" y="525" type="line"/>
      <point x="835" y="525" type="line"/>
      <point x="835" y="645" type="line"/>
      <point x="235" y="645" type="line"/>
      <point x="235" y="1050" type="line"/>
      <point x="895" y="1050" type="line"/>
      <point x="895" y="1170" type="line"/>
      <point x="115" y="1170" type="line"/>
    </contour>
  </outline>
</glyph>
<glyph name="E_with_acute" format="2">
  <advance width="980"/>
  <unicode hex="00C9"/>
  <outline>
    <contour>
      <point x="456.7438672534405" y="1290.0" type="line"/>
      <point x="553.2561327465596" y="1290.0" type="line"/>
      <point x="700.3570550753798" y="1550.0" type="line"/>
      <point x="603.8447895822608" y="1550.0" type="line"/>
    </contour>
    <contour>
      <point x="115" y="0" type="line"/>
      <point x="895" y="0" type="line"/>
      <point x="895" y="120" type="line"/>
      <point x="235" y="120" type="line"/>
      <point x="235" y="525" type="line"/>
      <point x="835" y="525" type="line"/>
      <point x="835" y="645" type="line"/>
      <point x="235" y="645" type="line"/>
      <point x="235" y="1050" type="line"/>
      <point x="895" y="1050" type="line"/>
      <point x="895" y="1170" type="line"/>
      <point x="115" y="1170" type="line"/>
    </contour>
  </outline>
</glyph>
<glyph name="E_with_circumflex" format="2">
  <advance width="1020"/>
  <unicode hex="00CA"/>
  <outline>
    <contour>
      <point x="242.5" y="1290" type="line"/>
      <point x="354.98670196533203" y="1290" type="line"/>
      <point x="512.5" y="1466.8515319824219" type="line"/>
      <point x="670.013298034668" y="1290" type="line"/>
      <point x="782.5" y="1290" type="line"/>
      <point x="568.7433547973633" y="1530" type="line"/>
      <point x="456.2566452026367" y="1530" type="line"/>
    </contour>
    <contour>
      <point x="137.5" y="0" type="line"/>
      <point x="887.5" y="0" type="line"/>
      <point x="887.5" y="120" type="line"/>
      <point x="257.5" y="120" type="line"/>
      <point x="257.5" y="525" type="line"/>
      <point x="827.5" y="525" type="line"/>
      <point x="827.5" y="645" type="line"/>
      <point x="257.5" y="645" type="line"/>
      <point x="257.5" y="1050" type="line"/>
      <point x="887.5" y="1050" type="line"/>
      <point x="887.5" y="1170" type="line"/>
      <point x="137.5" y="1170" type="line"/>
    </contour>
  </outline>
</glyph>
<glyph name="E_with_diaeresis" format="2">
  <advance width="980"/>
  <unicode hex="00CB"/>
  <outline>
    <contour>
      <point x="429.3" y="1366.8" type="curve" smooth="yes"/>
      <point x="429.3" y="1409.187073536"/>
      <point x="394.887073536" y="1443.6"/>
      <point x="352.5" y="1443.6" type="curve" smooth="yes"/>
      <point x="310.112926464" y="1443.6"/>
      <point x="275.7" y="1409.187073536"/>
      <point x="275.7" y="1366.8" type="curve" smooth="yes"/>
      <point x="275.7" y="1324.412926464"/>
      <point x="310.112926464" y="1290.0"/>
      <point x="352.5" y="1290.0" type="curve" smooth="yes"/>
      <point x="394.887073536" y="1290.0"/>
      <point x="429.3" y="1324.412926464"/>
    </contour>
    <contour>
      <point x="734.3" y="1366.8" type="curve" smooth="yes"/>
      <point x="734.3" y="1409.187073536"/>
      <point x="699.887073536" y="1443.6"/>
      <point x="657.5" y="1443.6" type="curve" smooth="yes"/>
      <point x="615.112926464" y="1443.6"/>
      <point x="580.7" y="1409.187073536"/>
      <point x="580.7" y="1366.8" type="curve" smooth="yes"/>
      <point x="580.7" y="1324.412926464"/>
      <point x="615.112926464" y="1290.0"/>
      <point x="657.5" y="1290.0" type="curve" smooth="yes"/>
      <point x="699.887073536" y="1290.0"/>
      <point x="734.3" y="1324.412926464"/>
    </contour>
    <contour>
      <point x="115" y="0" type="line"/>
      <point x="895" y="0" type="line"/>
      <point x="895" y="120" type="line"/>
      <point x="235" y="120" type="line"/>
      <point x="235" y="525" type="line"/>
      <point x="835" y="525" type="line"/>
      <point x="835" y="645" type="line"/>
      <point x="235" y="645" type="line"/>
      <point x="235" y="1050" type="line"/>
      <point x="895" y="1050" type="line"/>
      <point x="895" y="1170" type="line"/>
      <point x="115" y="1170" type="line"/>
    </contour>
  </outline>
</glyph>
<glyph name="I_with_grave" format="2">
  <advance width="1020"/>
  <unicode hex="00CC"/>
  <outline>
    <contour>
      <point x="558.2561327465595" y="1290.0" type="line"/>
      <point x="411.1552104177393" y="1550.0" type="line"/>
      <point x="314.6429449246202" y="1550.0" type="line"/>
      <point x="461.7438672534405" y="1290.0" type="line"/>
    </contour>
    <contour>
      <point x="150" y="0" type="line"/>
      <point x="870" y="0" type="line"/>
      <point x="870" y="120" type="line"/>
      <point x="570" y="120" type="line"/>
      <point x="570" y="1050" type="line"/>
      <point x="870" y="1050" type="line"/>
      <point x="870" y="1170" type="line"/>
      <point x="150" y="1170" type="line"/>
      <point x="150" y="1050" type="line"/>
      <point x="450" y="1050" type="line"/>
      <point x="450" y="120" type="line"/>
      <point x="150" y="120" type="line"/>
    </contour>
  </outline>
</glyph>
<glyph name="I_with_acute" format="2">
  <advance width="1020"/>
  <unicode hex="00CD"/>
  <outline>
    <contour>
      <point x="461.74387" y="1290.0" type="line"/>
      <point x="558.25613" y="1290.0" type="line"/>
      <point x="705.35706" y="1550.0" type="line"/>
      <point x="608.84479" y="1550.0" type="line"/>
    </contour>
    <contour>
      <point x="150" y="0" type="line"/>
      <point x="870" y="0" type="line"/>
      <point x="870" y="120" type="line"/>
      <point x="570" y="120" type="line"/>
      <point x="570" y="1050" type="line"/>
      <point x="870" y="1050" type="line"/>
      <point x="870" y="1170" type="line"/>
      <point x="150" y="1170" type="line"/>
      <point x="150" y="1050" type="line"/>
      <point x="450" y="1050" type="line"/>
      <point x="450" y="120" type="line"/>
      <point x="150" y="120" type="line"/>
    </contour>
  </outline>
</glyph>
<glyph name="I_with_circumflex" format="2">
  <advance width="980"/>
  <unicode hex="00CE"/>
  <outline>
    <contour>
      <point x="230" y="1290" type="line"/>
      <point x="340.42383575439453" y="1290" type="line"/>
      <point x="490" y="1465.2947616577148" type="line"/>
      <point x="639.5761642456055" y="1290" type="line"/>
      <point x="750" y="1290" type="line"/>
      <point x="545.2119216918945" y="1530" type="line"/>
      <point x="434.78807830810547" y="1530" type="line"/>
    </contour>
    <contour>
      <point x="130" y="0" type="line"/>
      <point x="850" y="0" type="line"/>
      <point x="850" y="120" type="line"/>
      <point x="550" y="120" type="line"/>
      <point x="550" y="1050" type="line"/>
      <point x="850" y="1050" type="line"/>
      <point x="850" y="1170" type="line"/>
      <point x="130" y="1170" type="line"/>
      <point x="130" y="1050" type="line"/>
      <point x="430" y="1050" type="line"/>
      <point x="430" y="120" type="line"/>
      <point x="130" y="120" type="line"/>
    </contour>
  </outline>
</glyph>
<glyph name="I_with_diaeresis" format="2">
  <advance width="1020"/>
  <unicode hex="00CF"/>
  <outline>
    <contour>
      <point x="471.0" y="1410.0" type="curve" smooth="yes"/>
      <point x="471.0" y="1462.98384"/>
      <point x="427.98384" y="1506.0"/>
      <point x="375.0" y="1506.0" type="curve" smooth="yes"/>
      <point x="322.01616" y="1506.0"/>
      <point x="279.0" y="1462.98384"/>
      <point x="279.0" y="1410.0" type="curve" smooth="yes"/>
      <point x="279.0" y="1357.01616"/>
      <point x="322.01616" y="1314.0"/>
      <point x="375.0" y="1314.0" type="curve" smooth="yes"/>
      <point x="427.98384" y="1314.0"/>
      <point x="471.0" y="1357.01616"/>
    </contour>
    <contour>
      <point x="741.0" y="1410.0" type="curve" smooth="yes"/>
      <point x="741.0" y="1462.98384"/>
      <point x="697.98384" y="1506.0"/>
      <point x="645.0" y="1506.0" type="curve" smooth="yes"/>
      <point x="592.01616" y="1506.0"/>
      <point x="549.0" y="1462.98384"/>
      <point x="549.0" y="1410.0" type="curve" smooth="yes"/>
      <point x="549.0" y="1357.01616"/>
      <point x="592.01616" y="1314.0"/>
      <point x="645.0" y="1314.0" type="curve" smooth="yes"/>
      <point x="697.98384" y="1314.0"/>
      <point x="741.0" y="1357.01616"/>
    </contour>
    <contour>
      <point x="150" y="0" type="line"/>
      <point x="870" y="0" type="line"/>
      <point x="870" y="120" type="line"/>
      <point x="570" y="120" type="line"/>
      <point x="570" y="1050" type="line"/>
      <point x="870" y="1050" type="line"/>
      <point x="870" y="1170" type="line"/>
      <point x="150" y="1170" type="line"/>
      <point x="150" y="1050" type="line"/>
      <point x="450" y="1050" type="line"/>
      <point x="450" y="120" type="line"/>
      <point x="150" y="120" type="line"/>
    </contour>
  </outline>
</glyph>
<glyph name="ETH" format="2">
  <advance width="1020"/>
  <unicode hex="00D0"/>
  <outline>
    <contour>
      <point x="132.5" y="0" type="line"/>
      <point x="522.5" y="0" type="line"/>
      <point x="746.0255831000001" y="0.0"/>
      <point x="927.5" y="181.47441690000002"/>
      <point x="927.5" y="405.0" type="curve"/>
      <point x="927.5" y="765" type="line"/>
      <point x="927.5" y="988.5255831"/>
      <point x="746.0255831" y="1170.0"/>
      <point x="522.5" y="1170.0" type="curve"/>
      <point x="132.5" y="1170" type="line"/>
      <point x="132.5" y="627" type="line"/>
      <point x="42.5" y="627" type="line"/>
      <point x="42.5" y="543" type="line"/>
      <point x="132.5" y="543" type="line"/>
    </contour>
    <contour>
      <point x="807.5" y="405" type="line"/>
      <point x="807.5" y="247.7042193"/>
      <point x="679.7957807" y="120.0"/>
      <point x="522.5" y="120.0" type="curve"/>
      <point x="252.5" y="120" type="line"/>
      <point x="252.5" y="543" type="line"/>
      <point x="522.5" y="543" type="line"/>
      <point x="522.5" y="627" type="line"/>
      <point x="252.5" y="627" type="line"/>
      <point x="252.5" y="1050" type="line"/>
      <point x="522.5" y="1050" type="line"/>
      <point x="679.7957807" y="1050.0"/>
      <point x="807.5" y="922.2957807"/>
      <point x="807.5" y="765.0" type="curve"/>
    </contour>
  </outline>
</glyph>
<glyph name="N_with_smalltilde" format="2">
  <advance width="980"/>
  <unicode hex="00D1"/>
  <outline>
    <contour>
      <point x="539.7978105831189" y="1388.5041622606027" type="curve"/>
      <point x="488.38260650634766" y="1424.505470275879" type="line"/>
      <point x="460.77944687773305" y="1443.8334161841103"/>
      <point x="427.89810397352664" y="1454.2008637785211"/>
      <point x="394.20086377852124" y="1454.2008637785211" type="curve"/>
      <point x="303.5759407621814" y="1454.2008637785211"/>
      <point x="230.0" y="1380.6249230163398"/>
      <point x="230.0" y="1290.0" type="curve"/>
      <point x="314" y="1290" type="line"/>
      <point x="314.0" y="1334.2640613363399"/>
      <point x="349.9368024421814" y="1370.2008637785211"/>
      <point x="394.2008637785212" y="1370.2008637785211" type="curve"/>
      <point x="410.65965521482576" y="1370.2008637785211"/>
      <point x="426.719936765306" y="1365.1370764565993"/>
      <point x="440.2021894168811" y="1355.6967015179187" type="curve"/>
      <point x="491.61739349365234" y="1319.6953887939453" type="line"/>
      <point x="519.220553122267" y="1300.3674475944108"/>
      <point x="552.1018960264735" y="1290.0"/>
      <point x="585.7991362214789" y="1290.0" type="curve"/>
      <point x="676.4240592378186" y="1290.0"/>
      <point x="750.0" y="1363.5759407621813"/>
      <point x="750.0" y="1454.2008637785211" type="curve"/>
      <point x="666" y="1454.2008666992188" type="line"/>
      <point x="666.0" y="1409.9368024421815"/>
      <point x="630.0631975578186" y="1374.0"/>
      <point x="585.7991362214789" y="1374.0" type="curve"/>
      <point x="569.3403447851742" y="1374.0"/>
      <point x="553.280063234694" y="1379.0637873219218"/>
    </contour>
    <contour>
      <point x="100" y="0" type="line"/>
      <point x="220" y="0" type="line"/>
      <point x="220" y="930.8561401367188" type="line"/>
      <point x="760" y="0" type="line"/>
      <point x="880" y="0" type="line"/>
      <point x="880" y="1170" type="line"/>
      <point x="760" y="1170" type="line"/>
      <point x="760" y="239.14385986328125" type="line"/>
      <point x="220" y="1170" type="line"/>
      <point x="100" y="1170" type="line"/>
    </contour>
  </outline>
</glyph>
<glyph name="O_with_acute" format="2">
  <advance width="1020"/>
  <unicode hex="00D3"/>
  <outline>
    <contour>
      <point x="461.7438672534405" y="1305.0" type="line"/>
      <point x="558.2561327465596" y="1305.0" type="line"/>
      <point x="705.3570550753798" y="1565.0" type="line"/>
      <point x="608.8447895822608" y="1565.0" type="line"/>
    </contour>
    <contour>
      <point x="795" y="390" type="line"/>
      <point x="795.0" y="232.70421929999992"/>
      <point x="667.2957807" y="105.0"/>
      <point x="509.99999999999994" y="105.0" type="curve" smooth="yes"/>
      <point x="352.7042193" y="105.0"/>
      <point x="225.0" y="232.7042193"/>
      <point x="225.0" y="390.00000000000006" type="curve"/>
      <point x="225" y="780" type="line"/>
      <point x="225.0" y="937.2957807"/>
      <point x="352.7042193" y="1065.0"/>
      <point x="510.0" y="1065.0" type="curve" smooth="yes"/>
      <point x="667.2957807" y="1065.0"/>
      <point x="795.0" y="937.2957807"/>
      <point x="795.0" y="780.0" type="curve"/>
    </contour>
    <contour>
      <point x="105" y="390" type="line"/>
      <point x="105.0" y="166.47441690000005"/>
      <point x="286.47441689999994" y="-15.0"/>
      <point x="509.99999999999994" y="-15.0" type="curve" smooth="yes"/>
      <point x="733.5255831" y="-15.0"/>
      <point x="915.0" y="166.4744168999999"/>
      <point x="915.0" y="389.99999999999994" type="curve"/>
      <point x="915" y="780" type="line"/>
      <point x="915.0" y="1003.5255831"/>
      <point x="733.5255831" y="1185.0"/>
      <point x="510.0" y="1185.0" type="curve" smooth="yes"/>
      <point x="286.47441690000005" y="1185.0"/>
      <point x="105.0" y="1003.5255831000001"/>
      <point x="105.0" y="780.0" type="curve"/>
    </contour>
  </outline>
</glyph>
<glyph name="O_with_smalltilde" format="2">
  <advance width="1020"/>
  <unicode hex="00D5"/>
  <outline>
    <contour>
      <point x="542.1591915368687" y="1403.3186679242103" type="curve"/>
      <point x="536.4670901794234" y="1407.3043196825047" type="line"/>
      <point x="490.2984120744971" y="1439.6319718994384"/>
      <point x="456.7954097161729" y="1459.12849"/>
      <point x="409.12849" y="1459.12849" type="curve"/>
      <point x="315.7839399999999" y="1459.12849"/>
      <point x="240.0" y="1383.34456"/>
      <point x="240.0" y="1290.0" type="curve"/>
      <point x="324" y="1290" type="line"/>
      <point x="324.0" y="1336.98369"/>
      <point x="362.1448" y="1375.12849"/>
      <point x="409.12849" y="1375.12849" type="curve"/>
      <point x="433.77863009536816" y="1375.12849"/>
      <point x="451.3509656991225" y="1364.3582076408716"/>
      <point x="477.8408079005186" y="1345.8098212722953" type="curve"/>
      <point x="483.53290917600384" y="1341.824169228615" type="line"/>
      <point x="529.7015861170041" y="1309.4965150464193"/>
      <point x="563.2045902838271" y="1290.0"/>
      <point x="610.87151" y="1290.0" type="curve"/>
      <point x="704.21606" y="1290.0"/>
      <point x="780.0" y="1365.783931"/>
      <point x="780.0" y="1459.12849" type="curve"/>
      <point x="696" y="1459.1284866333008" type="line"/>
      <point x="696.0" y="1412.1447969699707"/>
      <point x="657.8552" y="1374.0"/>
      <point x="610.87151" y="1374.0" type="curve"/>
      <point x="586.2213699046317" y="1374.0"/>
      <point x="568.6490344877649" y="1384.7702826260313"/>
    </contour>
    <contour>
      <point x="815.0" y="447.75" type="line"/>
      <point x="815.0" y="170.82443097343946"/>
      <point x="629.0575873956514" y="100.0"/>
      <point x="510.0" y="100.0" type="curve" smooth="yes"/>
      <point x="390.94241260434865" y="100.00000000000001"/>
      <point x="205.00000000000003" y="170.82443097343946"/>
      <point x="205.0" y="447.75" type="curve"/>
      <point x="205.0" y="722.25" type="line"/>
      <point x="205.00000000000003" y="999.1755690265605"/>
      <point x="390.94241260434865" y="1070.0"/>
      <point x="510.0" y="1070.0" type="curve" smooth="yes"/>
      <point x="629.0575873956514" y="1070.0"/>
      <point x="815.0" y="999.1755690265605"/>
      <point x="815.0" y="722.25" type="curve"/>
    </contour>
    <contour>
      <point x="85.0" y="447.75" type="line"/>
      <point x="85.00000000000003" y="98.76342663747107"/>
      <point x="330.87837468627856" y="-19.99999999999998"/>
      <point x="510.0" y="-20.0" type="curve" smooth="yes"/>
      <point x="689.1216253137214" y="-20.0"/>
      <point x="935.0" y="98.76342663747101"/>
      <point x="935.0" y="447.75" type="curve"/>
      <point x="935.0" y="722.25" type="line"/>
      <point x="935.0" y="1071.2365733625288"/>
      <point x="689.1216253137214" y="1190.0"/>
      <point x="510.0" y="1190.0" type="curve" smooth="yes"/>
      <point x="330.87837468627856" y="1190.0"/>
      <point x="85.00000000000003" y="1071.236573362529"/>
      <point x="85.0" y="722.25" type="curve"/>
    </contour>
  </outline>
</glyph>
<glyph name="O_with_diaeresis" format="2">
  <advance width="980"/>
  <unicode hex="00D6"/>
  <outline>
    <contour>
      <point x="414.3" y="1366.8" type="curve" smooth="yes"/>
      <point x="414.3" y="1409.187073536"/>
      <point x="379.887073536" y="1443.6"/>
      <point x="337.5" y="1443.6" type="curve" smooth="yes"/>
      <point x="295.112926464" y="1443.6"/>
      <point x="260.7" y="1409.187073536"/>
      <point x="260.7" y="1366.8" type="curve" smooth="yes"/>
      <point x="260.7" y="1324.412926464"/>
      <point x="295.112926464" y="1290.0"/>
      <point x="337.5" y="1290.0" type="curve" smooth="yes"/>
      <point x="379.887073536" y="1290.0"/>
      <point x="414.3" y="1324.412926464"/>
    </contour>
    <contour>
      <point x="719.3" y="1366.8" type="curve" smooth="yes"/>
      <point x="719.3" y="1409.187073536"/>
      <point x="684.887073536" y="1443.6"/>
      <point x="642.5" y="1443.6" type="curve" smooth="yes"/>
      <point x="600.112926464" y="1443.6"/>
      <point x="565.7" y="1409.187073536"/>
      <point x="565.7" y="1366.8" type="curve" smooth="yes"/>
      <point x="565.7" y="1324.412926464"/>
      <point x="600.112926464" y="1290.0"/>
      <point x="642.5" y="1290.0" type="curve" smooth="yes"/>
      <point x="684.887073536" y="1290.0"/>
      <point x="719.3" y="1324.412926464"/>
    </contour>
    <contour>
      <point x="760" y="390" type="line"/>
      <point x="760.0" y="240.98294459999994"/>
      <point x="639.0170553999999" y="120.0"/>
      <point x="489.99999999999994" y="120.0" type="curve" smooth="yes"/>
      <point x="340.9829446" y="120.0"/>
      <point x="220.0" y="240.98294460000002"/>
      <point x="220.0" y="390.00000000000006" type="curve"/>
      <point x="220" y="780" type="line"/>
      <point x="220.0" y="929.0170554"/>
      <point x="340.9829446" y="1050.0"/>
      <point x="490.0" y="1050.0" type="curve" smooth="yes"/>
      <point x="639.0170554" y="1050.0"/>
      <point x="760.0" y="929.0170554"/>
      <point x="760.0" y="780.0" type="curve"/>
    </contour>
    <contour>
      <point x="100" y="390" type="line"/>
      <point x="100.0" y="174.75314220000004"/>
      <point x="274.75314219999996" y="0.0"/>
      <point x="489.99999999999994" y="0.0" type="curve" smooth="yes"/>
      <point x="705.2468577999999" y="0.0"/>
      <point x="880.0" y="174.7531421999999"/>
      <point x="880.0" y="389.99999999999994" type="curve"/>
      <point x="880" y="780" type="line"/>
      <point x="880.0" y="995.2468578"/>
      <point x="705.2468578" y="1170.0"/>
      <point x="490.0" y="1170.0" type="curve" smooth="yes"/>
      <point x="274.7531422" y="1170.0"/>
      <point x="100.0" y="995.2468578"/>
      <point x="100.0" y="780.0" type="curve"/>
    </contour>
  </outline>
</glyph>
<glyph name="multiply" format="2">
  <advance width="980"/>
  <unicode hex="00D7"/>
  <outline>
    <contour>
      <point x="256.6547622680664" y="171.80194854736328" type="line"/>
      <point x="490" y="405.1471862792969" type="line"/>
      <point x="723.3452377319336" y="171.80194854736328" type="line"/>
      <point x="808.1980514526367" y="256.6547622680664" type="line"/>
      <point x="574.8528137207031" y="490" type="line"/>
      <point x="808.1980514526367" y="723.3452377319336" type="line"/>
      <point x="723.3452377319336" y="808.1980514526367" type="line"/>
      <point x="490" y="574.8528137207031" type="line"/>
      <point x="256.6547622680664" y="808.1980514526367" type="line"/>
      <point x="171.80194854736328" y="723.3452377319336" type="line"/>
      <point x="405.1471862792969" y="490" type="line"/>
      <point x="171.80194854736328" y="256.6547622680664" type="line"/>
    </contour>
  </outline>
</glyph>
<glyph name="O_with_stroke" format="2">
  <advance width="980"/>
  <unicode hex="00D8"/>
  <outline>
    <contour>
      <point x="489.9999999999881" y="1050.0" type="curve" smooth="yes"/>
      <point x="559.9331080309865" y="1050.0"/>
      <point x="623.6920189452741" y="1023.3548692501954"/>
      <point x="671.6697158813477" y="979.654899597168" type="curve"/>
      <point x="252.5594482421875" y="261.43699645996094" type="line"/>
      <point x="231.79644909845626" y="299.6699322451573"/>
      <point x="219.9999999999881" y="343.46823231490686"/>
      <point x="219.9999999999881" y="390.00000000000006" type="curve"/>
      <point x="220" y="780" type="line"/>
      <point x="219.99999999998812" y="929.0170554"/>
      <point x="340.9829445999882" y="1050.0"/>
    </contour>
    <contour>
      <point x="760" y="390" type="line"/>
      <point x="759.9999999999882" y="240.98294459999994"/>
      <point x="639.0170553999881" y="120.0"/>
      <point x="489.99999999998806" y="120.0" type="curve" smooth="yes"/>
      <point x="420.0668919689897" y="120.0"/>
      <point x="356.30798105470217" y="146.6451307498046"/>
      <point x="308.33028411865234" y="190.34510040283203" type="curve"/>
      <point x="727.4405517578125" y="908.5630035400391" type="line"/>
      <point x="748.20355090152" y="870.3300677548427"/>
      <point x="759.9999999999882" y="826.5317676850932"/>
      <point x="759.9999999999882" y="780.0" type="curve"/>
    </contour>
    <contour>
      <point x="100" y="0" type="line"/>
      <point x="197.2559356689453" y="0" type="line"/>
      <point x="246.91773223876953" y="85.10407257080078" type="line"/>
      <point x="313.6019537236054" y="31.84764349337135"/>
      <point x="398.11111640516805" y="1.4210854715202004e-14"/>
      <point x="489.99999999998806" y="1.4210854715202004e-14" type="curve" smooth="yes"/>
      <point x="705.246857799988" y="0.0"/>
      <point x="879.9999999999882" y="174.7531421999999"/>
      <point x="879.9999999999882" y="389.99999999999994" type="curve"/>
      <point x="880" y="780" type="line"/>
      <point x="879.9999999999882" y="872.1024084777576"/>
      <point x="848.0041739393928" y="956.7907592477459"/>
      <point x="794.5307235717773" y="1023.5336074829102" type="curve"/>
      <point x="880" y="1170" type="line"/>
      <point x="782.7440643310547" y="1170" type="line"/>
      <point x="733.0822677612305" y="1084.8959274291992" type="line"/>
      <point x="666.3980462763708" y="1138.1523565066286"/>
      <point x="581.8888835948081" y="1170.0"/>
      <point x="489.99999999998806" y="1170.0" type="curve" smooth="yes"/>
      <point x="274.75314219998813" y="1170.0"/>
      <point x="99.99999999998812" y="995.2468578"/>
      <point x="99.99999999998812" y="780.0" type="curve"/>
      <point x="100" y="390" type="line"/>
      <point x="99.99999999998812" y="297.89759152224246"/>
      <point x="131.99582606058345" y="213.20924075225417"/>
      <point x="185.46927642822266" y="146.46639251708984" type="curve"/>
    </contour>
  </outline>
</glyph>
<glyph name="U_with_grave" format="2">
  <advance width="1020"/>
  <unicode hex="00D9"/>
  <outline>
    <contour>
      <point x="558.25613" y="1290.0" type="line"/>
      <point x="411.15521" y="1550.0" type="line"/>
      <point x="314.64294" y="1550.0" type="line"/>
      <point x="461.74387" y="1290.0" type="line"/>
    </contour>
    <contour>
      <point x="110" y="380" type="line"/>
      <point x="110.0" y="159.23399"/>
      <point x="289.23399" y="-20.0"/>
      <point x="510.0" y="-20.0" type="curve" smooth="yes"/>
      <point x="730.76601" y="-20.0"/>
      <point x="910.0" y="159.23399"/>
      <point x="910.0" y="380.0" type="curve"/>
      <point x="910" y="1170" type="line"/>
      <point x="790" y="1170" type="line"/>
      <point x="790" y="380" type="line"/>
      <point x="790.0" y="225.46379"/>
      <point x="664.53621" y="100.0"/>
      <point x="510.0" y="100.0" type="curve" smooth="yes"/>
      <point x="355.46379" y="100.0"/>
      <point x="230.0" y="225.46379"/>
      <point x="230.0" y="380.0" type="curve"/>
      <point x="230" y="1170" type="line"/>
      <point x="110" y="1170" type="line"/>
    </contour>
  </outline>
</glyph>
<glyph name="U_with_acute" format="2">
  <advance width="1020"/>
  <unicode hex="00DA"/>
  <outline>
    <contour>
      <point x="461.7438672534405" y="1290.0" type="line"/>
      <point x="558.2561327465596" y="1290.0" type="line"/>
      <point x="705.3570550753798" y="1550.0" type="line"/>
      <point x="608.8447895822608" y="1550.0" type="line"/>
    </contour>
    <contour>
      <point x="110" y="385" type="line"/>
      <point x="110.0" y="164.23399200000006"/>
      <point x="289.23399199999994" y="-15.0"/>
      <point x="509.99999999999994" y="-15.0" type="curve" smooth="yes"/>
      <point x="730.7660079999999" y="-15.0"/>
      <point x="910.0" y="164.23399199999992"/>
      <point x="910.0" y="384.99999999999994" type="curve"/>
      <point x="910" y="1170" type="line"/>
      <point x="790" y="1170" type="line"/>
      <point x="790" y="385" type="line"/>
      <point x="790.0" y="230.46379439999993"/>
      <point x="664.5362055999999" y="105.0"/>
      <point x="509.99999999999994" y="105.0" type="curve" smooth="yes"/>
      <point x="355.4637944" y="105.0"/>
      <point x="230.0" y="230.4637944"/>
      <point x="230.0" y="385.00000000000006" type="curve"/>
      <point x="230" y="1170" type="line"/>
      <point x="110" y="1170" type="line"/>
    </contour>
  </outline>
</glyph>
<glyph name="U_with_circumflex" format="2">
  <advance width="1020"/>
  <unicode hex="00DB"/>
  <outline>
    <contour>
      <point x="240" y="1290" type="line"/>
      <point x="352.48670196533203" y="1290" type="line"/>
      <point x="510" y="1466.8515396118164" type="line"/>
      <point x="667.513298034668" y="1290" type="line"/>
      <point x="780" y="1290" type="line"/>
      <point x="566.2433471679688" y="1530" type="line"/>
      <point x="453.75665283203125" y="1530" type="line"/>
    </contour>
    <contour>
      <point x="110" y="380" type="line"/>
      <point x="110.0" y="159.23399"/>
      <point x="289.23399" y="-20.0"/>
      <point x="510.0" y="-20.0" type="curve" smooth="yes"/>
      <point x="730.76601" y="-20.0"/>
      <point x="910.0" y="159.23399"/>
      <point x="910.0" y="380.0" type="curve"/>
      <point x="910" y="1170" type="line"/>
      <point x="790" y="1170" type="line"/>
      <point x="790" y="380" type="line"/>
      <point x="790.0" y="225.46379"/>
      <point x="664.53621" y="100.0"/>
      <point x="510.0" y="100.0" type="curve" smooth="yes"/>
      <point x="355.46379" y="100.0"/>
      <point x="230.0" y="225.46379"/>
      <point x="230.0" y="380.0" type="curve"/>
      <point x="230" y="1170" type="line"/>
      <point x="110" y="1170" type="line"/>
    </contour>
  </outline>
</glyph>
<glyph name="U_with_diaeresis" format="2">
  <advance width="980"/>
  <unicode hex="00DC"/>
  <outline>
    <contour>
      <point x="414.3" y="1366.8" type="curve" smooth="yes"/>
      <point x="414.3" y="1409.187073536"/>
      <point x="379.887073536" y="1443.6"/>
      <point x="337.5" y="1443.6" type="curve" smooth="yes"/>
      <point x="295.112926464" y="1443.6"/>
      <point x="260.7" y="1409.187073536"/>
      <point x="260.7" y="1366.8" type="curve" smooth="yes"/>
      <point x="260.7" y="1324.412926464"/>
      <point x="295.112926464" y="1290.0"/>
      <point x="337.5" y="1290.0" type="curve" smooth="yes"/>
      <point x="379.887073536" y="1290.0"/>
      <point x="414.3" y="1324.412926464"/>
    </contour>
    <contour>
      <point x="719.3" y="1366.8" type="curve" smooth="yes"/>
      <point x="719.3" y="1409.187073536"/>
      <point x="684.887073536" y="1443.6"/>
      <point x="642.5" y="1443.6" type="curve" smooth="yes"/>
      <point x="600.112926464" y="1443.6"/>
      <point x="565.7" y="1409.187073536"/>
      <point x="565.7" y="1366.8" type="curve" smooth="yes"/>
      <point x="565.7" y="1324.412926464"/>
      <point x="600.112926464" y="1290.0"/>
      <point x="642.5" y="1290.0" type="curve" smooth="yes"/>
      <point x="684.887073536" y="1290.0"/>
      <point x="719.3" y="1324.412926464"/>
    </contour>
    <contour>
      <point x="100" y="390" type="line"/>
      <point x="100.0" y="174.75314220000004"/>
      <point x="274.75314219999996" y="0.0"/>
      <point x="489.99999999999994" y="0.0" type="curve" smooth="yes"/>
      <point x="705.2468577999999" y="0.0"/>
      <point x="880.0" y="174.7531421999999"/>
      <point x="880.0" y="389.99999999999994" type="curve"/>
      <point x="880" y="1170" type="line"/>
      <point x="760" y="1170" type="line"/>
      <point x="760" y="390" type="line"/>
      <point x="760.0" y="240.98294459999994"/>
      <point x="639.0170553999999" y="120.0"/>
      <point x="489.99999999999994" y="120.0" type="curve" smooth="yes"/>
      <point x="340.9829446" y="120.0"/>
      <point x="220.0" y="240.98294460000002"/>
      <point x="220.0" y="390.00000000000006" type="curve"/>
      <point x="220" y="1170" type="line"/>
      <point x="100" y="1170" type="line"/>
    </contour>
  </outline>
</glyph>
<glyph name="Y_with_acute" format="2">
  <advance width="980"/>
  <unicode hex="00DD"/>
  <outline>
    <contour>
      <point x="441.7438672534405" y="1290" type="line"/>
      <point x="538.2561327465596" y="1290" type="line"/>
      <point x="685.3570550753798" y="1550" type="line"/>
      <point x="588.8447895822608" y="1550" type="line"/>
    </contour>
    <contour>
      <point x="430" y="0" type="line"/>
      <point x="550" y="0" type="line"/>
      <point x="550" y="480" type="line"/>
      <point x="910" y="1170" type="line"/>
      <point x="774.6491622924805" y="1170" type="line"/>
      <point x="490" y="624.4224395751953" type="line"/>
      <point x="205.35083770751953" y="1170" type="line"/>
      <point x="70" y="1170" type="line"/>
      <point x="430" y="480" type="line"/>
    </contour>
  </outline>
</glyph>
<glyph name="THORN" format="2">
  <advance width="1020"/>
  <unicode hex="00DE"/>
  <outline>
    <contour>
      <point x="127.5" y="0" type="line"/>
      <point x="247.5" y="0" type="line"/>
      <point x="247.5" y="195" type="line"/>
      <point x="532.5" y="195" type="line"/>
      <point x="747.7468578" y="195.0"/>
      <point x="922.5" y="369.7531422"/>
      <point x="922.5" y="585.0" type="curve" smooth="yes"/>
      <point x="922.5" y="800.2468578"/>
      <point x="747.7468578" y="975.0"/>
      <point x="532.5" y="975.0" type="curve"/>
      <point x="247.5" y="975" type="line"/>
      <point x="247.5" y="1170" type="line"/>
      <point x="127.5" y="1170" type="line"/>
    </contour>
    <contour>
      <point x="532.5" y="855" type="line"/>
      <point x="681.5170554" y="855.0"/>
      <point x="802.5" y="734.0170554"/>
      <point x="802.5" y="585.0" type="curve" smooth="yes"/>
      <point x="802.5" y="435.9829446"/>
      <point x="681.5170554" y="315.0"/>
      <point x="532.5" y="315.0" type="curve"/>
      <point x="247.5" y="315" type="line"/>
      <point x="247.5" y="855" type="line"/>
    </contour>
  </outline>
</glyph>
<glyph name="eszett" format="2">
  <advance width="1020"/>
  <unicode hex="00DF"/>
  <outline>
    <contour>
      <point x="182.5" y="0" type="line"/>
      <point x="302.5" y="0" type="line"/>
      <point x="302.5" y="862.5" type="line"/>
      <point x="302.5" y="977.02237"/>
      <point x="395.47763" y="1070.0"/>
      <point x="510.0" y="1070.0" type="curve"/>
      <point x="624.52237" y="1070.0"/>
      <point x="717.5" y="977.02237"/>
      <point x="717.5" y="862.5" type="curve" smooth="yes"/>
      <point x="717.5" y="747.97763"/>
      <point x="624.52237" y="655.0"/>
      <point x="510.0" y="655.0" type="curve"/>
      <point x="422.5" y="655" type="line"/>
      <point x="422.5" y="535" type="line"/>
      <point x="570" y="535" type="line"/>
      <point x="684.52237" y="535.0"/>
      <point x="777.5" y="442.02237"/>
      <point x="777.5" y="327.5" type="curve" smooth="yes"/>
      <point x="777.5" y="212.97763"/>
      <point x="684.52237" y="120.0"/>
      <point x="570.0" y="120.0" type="curve"/>
      <point x="422.5" y="120" type="line"/>
      <point x="422.5" y="0" type="line"/>
      <point x="570" y="0" type="line"/>
      <point x="750.75217" y="0.0"/>
      <point x="897.5" y="146.74783"/>
      <point x="897.5" y="327.5" type="curve" smooth="yes"/>
      <point x="897.5" y="452.05903162954996"/>
      <point x="827.8124663252098" y="560.4700998524928"/>
      <point x="725.3323211669922" y="615.831298828125" type="curve"/>
      <point x="794.057663444949" y="675.8755419920479"/>
      <point x="837.5" y="764.1545518247"/>
      <point x="837.5000000000001" y="862.5" type="curve" smooth="yes"/>
      <point x="837.5" y="1043.25217"/>
      <point x="690.75217" y="1190.0"/>
      <point x="510.0" y="1190.0" type="curve"/>
      <point x="329.24783" y="1190.0"/>
      <point x="182.5" y="1043.25217"/>
      <point x="182.5" y="862.5" type="curve"/>
    </contour>
  </outline>
</glyph>
